<svg width="16" height="17" fill="none" xmlns="http://www.w3.org/2000/svg"><path fill-rule="evenodd" clip-rule="evenodd" d="M4.774 2.5h6.452c.351 0 .654 0 .904.02.264.022.526.07.778.198a2 2 0 01.874.874c.129.252.176.514.198.778.02.25.02.553.02.904v6.452c0 .351 0 .654-.02.904-.022.263-.07.526-.198.778a2.002 2.002 0 01-.874.874 2.034 2.034 0 01-.777.198c-.25.02-.552.02-.903.02H4.772c-.35 0-.653 0-.903-.02a2.036 2.036 0 01-.777-.198 2 2 0 01-.874-.874 2.036 2.036 0 01-.198-.778C2 12.38 2 12.077 2 11.726V5.274c0-.351 0-.654.02-.904.022-.264.07-.526.198-.778a2 2 0 01.874-.874c.252-.129.514-.176.778-.198.25-.02.553-.02.904-.02zM3.98 3.85c-.182.014-.249.04-.282.056a.666.666 0 00-.291.291c-.017.033-.042.1-.057.282-.015.189-.016.437-.016.821v6.4c0 .385 0 .633.016.822.015.18.04.248.057.28a.667.667 0 00.291.292c.033.017.1.042.28.057.19.015.437.016.82.016h6.405c.384 0 .632 0 .82-.016.18-.015.248-.04.28-.057a.667.667 0 00.292-.291c.017-.033.042-.1.057-.282.015-.189.016-.437.016-.821V5.3c0-.385 0-.633-.016-.822-.015-.18-.04-.248-.057-.28a.667.667 0 00-.291-.292c-.033-.017-.1-.042-.282-.057a11.33 11.33 0 00-.82-.016H4.8c-.385 0-.633 0-.822.016zM8 5.166c.368 0 .667.298.667.666v2h2a.667.667 0 010 1.334h-2v2a.667.667 0 01-1.334 0v-2h-2a.667.667 0 010-1.334h2v-2c0-.368.299-.666.667-.666z" fill="currentColor"/></svg>