<svg width="16" height="17" fill="none" xmlns="http://www.w3.org/2000/svg"><path fill-rule="evenodd" clip-rule="evenodd" d="M11.985 3.173a5.467 5.467 0 00-.384-.006H5.468c-.384 0-.633 0-.822.016-.18.014-.248.04-.28.056a.666.666 0 00-.292.291c-.017.033-.042.1-.057.282-.015.189-.016.437-.016.821V12a2.16 2.16 0 01.834-.166h6.768c.197 0 .305 0 .383-.007h.007l.001-.01c.007-.077.007-.185.007-.383V3.567a5.393 5.393 0 00-.008-.393h-.008zm-.65 9.994h-6.5a.834.834 0 00-.817.666h6.918c.197 0 .305 0 .383-.007h.008v-.01a4.85 4.85 0 00.008-.383v-.266zm-8.643.51a.667.667 0 01-.024-.177V4.608c0-.352 0-.655.02-.905.022-.263.07-.526.198-.778a2 2 0 01.874-.874c.252-.128.514-.176.778-.197.25-.02.553-.02.904-.02h6.18c.169 0 .333 0 .472.01.152.013.332.042.513.135.252.128.455.333.582.582.092.18.122.36.134.513.012.14.012.305.012.474v7.904c0 .17 0 .334-.012.474a1.35 1.35 0 01-.134.512c-.116.229-.296.42-.521.55v.464c0 .17 0 .334-.011.474a1.348 1.348 0 01-.135.512 1.332 1.332 0 01-.582.583c-.18.092-.36.122-.512.134-.14.012-.303.012-.47.012H3.834A1.167 1.167 0 012.668 14c0-.11.008-.217.024-.323z" fill="currentColor"/></svg>