<svg width="16" height="17" fill="none" xmlns="http://www.w3.org/2000/svg"><path fill-rule="evenodd" clip-rule="evenodd" d="M5.333 1.031c.369 0 .667.299.667.667v.667h4v-.667a.667.667 0 011.333 0v.667c.306 0 .573.002.797.02.263.022.525.07.778.198.375.19.682.496.874.873.129.253.176.515.198.778.02.25.02.552.02.903v6.456c0 .35 0 .653-.02.902a2.035 2.035 0 01-.198.778 2.001 2.001 0 01-.874.874 2.033 2.033 0 01-.777.197c-.25.02-.553.02-.903.02H4.772c-.35 0-.653 0-.903-.02a2.034 2.034 0 01-.777-.197 2 2 0 01-.874-.874 2.036 2.036 0 01-.198-.778C2 12.245 2 11.942 2 11.59V5.14c0-.351 0-.655.02-.904.022-.264.07-.526.198-.779a2 2 0 01.874-.873c.252-.129.514-.177.778-.198.224-.018.49-.02.797-.02v-.667c0-.368.298-.667.666-.667zM3.98 3.714c-.182.015-.249.04-.282.057a.666.666 0 00-.291.29c-.017.034-.042.1-.057.282a9.29 9.29 0 00-.016.688h9.334c0-.31-.003-.522-.016-.689-.015-.18-.04-.247-.057-.28a.667.667 0 00-.292-.291c-.033-.017-.1-.042-.28-.057a11.329 11.329 0 00-.822-.016H4.8c-.384 0-.632 0-.821.016zm8.688 2.65H3.333v5.2c0 .385 0 .633.016.822.015.181.04.248.057.281a.667.667 0 00.291.292c.033.016.1.042.28.056.19.016.437.016.82.016h6.405c.384 0 .631 0 .82-.016.18-.014.247-.04.28-.056a.668.668 0 00.292-.292c.017-.033.042-.1.057-.28a11.3 11.3 0 00.016-.82V6.365zm-8 2c0-.368.298-.666.666-.666h.002A.667.667 0 016 8.38v.001a.667.667 0 01-.682.651h-.002a.667.667 0 01-.65-.666v-.001zm2.666 0c0-.368.299-.666.667-.666h.001a.667.667 0 01.667.682v.001a.667.667 0 01-.683.651.667.667 0 01-.652-.666v-.001zm2.667 0c0-.368.299-.666.667-.666h.001a.667.667 0 11-.016 1.334h-.001A.667.667 0 0110 8.366v-.001zm-5.333 2.667c0-.368.298-.666.666-.666h.002a.667.667 0 01.666.682v.001a.667.667 0 01-.682.651h-.002a.667.667 0 01-.65-.666v-.002zm2.666 0c0-.368.299-.666.667-.666h.001a.667.667 0 01.667.682v.001a.667.667 0 01-.683.651.667.667 0 01-.652-.666v-.002zm2.667 0c0-.368.299-.666.667-.666h.001a.667.667 0 01.667.682v.001a.667.667 0 01-.683.651h-.001a.667.667 0 01-.651-.666v-.002z" fill="currentColor"/></svg>