<svg width="24" height="25" fill="none" xmlns="http://www.w3.org/2000/svg"><path d="M3 3.27h.268c.474 0 .711 0 .905.086.17.075.316.196.42.35.12.174.163.407.248.871L7 16.27h10.422c.453 0 .68 0 .868-.08a.999.999 0 00.415-.331c.12-.165.171-.385.273-.826v-.003l1.57-6.8v-.001c.154-.669.232-1.004.147-1.267a1.001 1.001 0 00-.44-.55c-.237-.142-.58-.142-1.266-.142H5.5m12.5 15a1 1 0 110-2 1 1 0 010 2zm-10 0a1 1 0 110-2 1 1 0 010 2z" stroke="currentColor" stroke-width="2" stroke-linecap="round" stroke-linejoin="round"/></svg>