<svg width="18" height="19" fill="none" xmlns="http://www.w3.org/2000/svg"><path d="M12.29 11.046V1.82c0-.733.246-.982.976-.987h3.492c.712.005.976.283.976.99v9.227c0 .72-.264.988-.976.988h-3.49c-.722 0-.979-.26-.979-.993zM.265 7.144a1.511 1.511 0 01.948-1.239l-.08-.082a1.509 1.509 0 01-.384-1.16A1.533 1.533 0 012.01 3.34a1.485 1.485 0 01-.375-1.135A1.546 1.546 0 013.195.833H8.11c1.253.037 2.492.282 3.665.726-.01.088-.014.176-.013.264v9.225c0 .138.01.275.032.41l-.347.303a9.748 9.748 0 00-.33.285c-.729.638-1.46 1.342-1.713 2.32-.09.4-.137.81-.138 1.222 0 .212-.016.424-.032.633 0 .098-.016.193-.024.291-.01.297-.053.593-.127.881-.148.498-.593.781-1.217.781a1.308 1.308 0 01-1.281-.834 6.578 6.578 0 01-.32-3.753c.113-.53.264-1.059.439-1.562.076-.249.156-.5.23-.752H2.459A1.546 1.546 0 01.91 9.915a1.514 1.514 0 01.386-1.159l.026-.029A1.514 1.514 0 01.265 7.144z" fill="currentColor"/></svg>