<svg width="16" height="17" fill="none" xmlns="http://www.w3.org/2000/svg"><path fill-rule="evenodd" clip-rule="evenodd" d="M10.255 2.841c.268-.087.556-.087.824 0 .193.063.34.17.457.268.106.09.221.205.34.324l1.19 1.19c.118.119.234.235.324.34.1.117.206.265.269.459.087.267.087.556 0 .824a1.37 1.37 0 01-.268.457 5.81 5.81 0 01-.325.34l-6.123 6.124h6.39a.667.667 0 010 1.333H2.667A.667.667 0 012 13.834v-2.667c0-.177.07-.347.195-.472l7.25-7.249.012-.013c.119-.118.234-.234.34-.324.117-.099.265-.205.458-.268zM5.057 13.167H3.333v-1.724l7.049-7.048.003-.004c.14-.14.216-.215.275-.265l.007-.006a5.402 5.402 0 01.281.27l1.16 1.16a5.501 5.501 0 01.272.284l-.006.006c-.05.059-.124.134-.26.27l-7.057 7.057z" fill="currentColor"/></svg>