<svg width="25" height="24" fill="none" xmlns="http://www.w3.org/2000/svg"><path d="M12.5 15l3-3m0 0l-3-3m3 3h-11m5-4.751V7.2c0-1.12 0-1.68.218-2.108a2 2 0 01.874-.874C11.02 4 11.58 4 12.7 4h4.6c1.12 0 1.68 0 2.107.218.377.192.683.497.875.874.218.427.218.987.218 2.105v9.607c0 1.118 0 1.677-.218 2.104a2.002 2.002 0 01-.875.874c-.427.218-.986.218-2.104.218h-4.606c-1.118 0-1.678 0-2.105-.218a2 2 0 01-.874-.874C9.5 18.48 9.5 17.92 9.5 16.8v-.05" stroke="currentColor" stroke-width="2" stroke-linecap="round" stroke-linejoin="round"/></svg>