<svg width="24" height="24" fill="none" xmlns="http://www.w3.org/2000/svg"><path d="M20.766 0H3.234A3.234 3.234 0 000 3.234v17.532A3.234 3.234 0 003.234 24h8.647l.014-8.576H9.667a.526.526 0 01-.525-.524l-.011-2.765a.526.526 0 01.526-.527h2.224V8.937c0-3.1 1.893-4.788 4.658-4.788h2.27c.29 0 .525.235.525.525v2.331c0 .29-.235.526-.525.526h-1.393c-1.504 0-1.795.715-1.795 1.764v2.313h3.304c.315 0 .56.275.523.587l-.328 2.765a.526.526 0 01-.522.464h-2.962L15.62 24h5.145A3.234 3.234 0 0024 20.766V3.234A3.234 3.234 0 0020.766 0z" fill="#475993"/></svg>