<svg width="24" height="24" fill="none" xmlns="http://www.w3.org/2000/svg"><g clip-path="url(#clip0_423_12804)"><path fill-rule="evenodd" clip-rule="evenodd" d="M19.958 4.008A11.077 11.077 0 0012.07.738C5.926.738.924 5.74.921 11.887c0 1.965.513 3.883 1.489 5.574L.828 23.238l5.91-1.55a11.137 11.137 0 005.329 1.357h.004c6.145 0 11.147-5.002 11.15-11.15a11.081 11.081 0 00-3.263-7.887zM12.07 21.162h-.004A9.256 9.256 0 017.35 19.87l-.339-.2-3.507.92.936-3.42-.22-.35a9.244 9.244 0 01-1.417-4.933c.002-5.109 4.16-9.266 9.27-9.266a9.202 9.202 0 016.552 2.718 9.212 9.212 0 012.712 6.556c-.002 5.11-4.16 9.267-9.267 9.267zm5.083-6.94c-.278-.14-1.648-.814-1.903-.907-.256-.093-.441-.14-.627.14-.186.278-.72.906-.882 1.092-.163.186-.325.21-.604.07-.278-.14-1.176-.434-2.24-1.383-.828-.739-1.387-1.651-1.55-1.93-.162-.279-.001-.415.122-.568.302-.375.604-.768.697-.953.093-.186.046-.349-.024-.488-.07-.14-.626-1.511-.858-2.069-.227-.543-.456-.47-.627-.478a11.27 11.27 0 00-.534-.01c-.186 0-.488.07-.743.349-.256.279-.975.953-.975 2.324s.998 2.696 1.137 2.882c.14.186 1.965 3 4.76 4.206.664.287 1.183.459 1.588.587.667.212 1.274.182 1.754.11.536-.08 1.648-.674 1.88-1.324.233-.651.233-1.209.163-1.325-.07-.116-.255-.186-.534-.325z" fill="#fff"/></g><defs><clipPath id="clip0_423_12804"><path fill="#fff" d="M0 0h24v24H0z"/></clipPath></defs></svg>