<svg width="32" height="32" fill="none" xmlns="http://www.w3.org/2000/svg"><path d="M16 7.333v3.334m0-3.334a3.333 3.333 0 113.333 3.334M16 7.333a3.333 3.333 0 10-3.333 3.334m3.333 0h3.333m-3.333 0h-3.333m3.333 0v8m3.333-8h4.4c1.494 0 2.24 0 2.81.29.502.256.911.664 1.167 1.165.29.57.29 1.317.29 2.807v3.738m-15.333-8h-4.4c-1.494 0-2.24 0-2.811.29-.502.256-.91.664-1.165 1.165C4 12.692 4 13.44 4 14.934v3.733m0 0V22.4c0 1.494 0 2.24.29 2.81.256.502.664.91 1.166 1.166.57.29 1.316.29 2.807.29H16m-12-8h12m0 0v8m0-8h12m-12 8h7.738c1.49 0 2.235 0 2.805-.29a2.67 2.67 0 001.167-1.166c.29-.57.29-1.315.29-2.805v-3.738" stroke="currentColor" stroke-width="2" stroke-linecap="round" stroke-linejoin="round"/></svg>