<svg width="24" height="24" fill="none" xmlns="http://www.w3.org/2000/svg"><g clip-path="url(#clip0_172_8200)"><path d="M23.096 9.914h-9.79a.783.783 0 00-.783.782v3.127c0 .432.35.783.783.783h5.513a7.359 7.359 0 01-3.168 3.712l2.35 4.069c3.771-2.18 6-6.007 6-10.29a7.93 7.93 0 00-.134-1.537.786.786 0 00-.771-.646z" fill="#167EE6"/><path d="M12 19.304a7.303 7.303 0 01-6.318-3.655l-4.069 2.345A11.984 11.984 0 0012 24c2.177 0 4.23-.586 6-1.607v-.006l-2.35-4.07a7.25 7.25 0 01-3.65.987z" fill="#12B347"/><path d="M18 22.393v-.006l-2.35-4.07a7.251 7.251 0 01-3.65.987V24c2.177 0 4.23-.586 6-1.607z" fill="#0F993E"/><path d="M4.696 12c0-1.33.363-2.574.986-3.649L1.613 6.006A11.875 11.875 0 000 12c0 2.182.586 4.23 1.613 5.994l4.07-2.345A7.25 7.25 0 014.695 12z" fill="#FFD500"/><path d="M12 4.696a7.27 7.27 0 014.638 1.665.78.78 0 001.049-.048l2.216-2.215a.788.788 0 00-.045-1.154A11.964 11.964 0 0012 0 11.984 11.984 0 001.613 6.006l4.07 2.345A7.303 7.303 0 0112 4.696z" fill="#FF4B26"/><path d="M16.637 6.36a.78.78 0 001.05-.047l2.215-2.215a.789.789 0 00-.045-1.154A11.964 11.964 0 0012 0v4.696a7.27 7.27 0 014.637 1.665z" fill="#D93F21"/></g><defs><clipPath id="clip0_172_8200"><path fill="#fff" d="M0 0h24v24H0z"/></clipPath></defs></svg>