<svg width="33" height="33" fill="none" xmlns="http://www.w3.org/2000/svg"><g clip-path="url(#clip0_107_4478)" fill="currentColor"><path d="M19.756 16.27a3.062 3.062 0 11-6.125 0 3.062 3.062 0 016.125 0z"/><path d="M23.855 10.852a2.846 2.846 0 00-.688-1.057 2.845 2.845 0 00-1.056-.687c-.324-.126-.81-.275-1.706-.316-.969-.044-1.26-.054-3.713-.054-2.453 0-2.744.01-3.712.053-.896.042-1.383.191-1.706.317-.4.147-.76.382-1.056.687-.306.297-.54.657-.688 1.057-.126.323-.275.81-.316 1.706-.044.968-.054 1.259-.054 3.712 0 2.453.01 2.744.054 3.713.04.896.19 1.382.316 1.706.147.399.382.76.687 1.056.297.305.657.54 1.057.687.323.126.81.276 1.706.317.968.044 1.259.053 3.712.053 2.454 0 2.744-.009 3.713-.053.895-.041 1.382-.19 1.706-.317a3.043 3.043 0 001.744-1.743c.125-.324.275-.81.316-1.706.044-.97.053-1.26.053-3.713 0-2.453-.009-2.744-.053-3.712-.04-.896-.19-1.383-.316-1.706zm-7.163 10.136a4.718 4.718 0 110-9.436 4.718 4.718 0 010 9.436zm4.905-8.52a1.103 1.103 0 110-2.205 1.103 1.103 0 010 2.205z"/><path d="M16.693.27c-8.835 0-16 7.165-16 16s7.165 16 16 16c8.836 0 16-7.165 16-16s-7.164-16-16-16zm9.132 19.788c-.044.978-.2 1.646-.427 2.23a4.698 4.698 0 01-2.687 2.687c-.584.227-1.252.382-2.23.427-.98.045-1.292.055-3.787.055-2.496 0-2.808-.01-3.788-.055-.978-.045-1.646-.2-2.23-.427a4.502 4.502 0 01-1.628-1.06 4.504 4.504 0 01-1.06-1.627c-.227-.584-.382-1.252-.426-2.23-.046-.98-.056-1.293-.056-3.788s.01-2.808.055-3.788c.045-.978.2-1.646.427-2.23a4.5 4.5 0 011.06-1.627 4.5 4.5 0 011.627-1.06c.585-.227 1.252-.382 2.23-.427.98-.045 1.293-.055 3.788-.055s2.808.01 3.788.055c.978.045 1.646.2 2.23.427.614.23 1.169.592 1.628 1.06a4.5 4.5 0 011.06 1.627c.227.584.382 1.252.427 2.23.044.98.055 1.293.055 3.788s-.01 2.808-.056 3.788z"/></g><defs><clipPath id="clip0_107_4478"><path fill="#fff" transform="translate(.693 .27)" d="M0 0h32v32H0z"/></clipPath></defs></svg>