<svg width="24" height="24" fill="none" xmlns="http://www.w3.org/2000/svg"><path d="M14 6H6c-.932 0-1.398 0-1.766.152a2 2 0 00-1.082 1.083C3 7.602 3 8.068 3 9a3 3 0 110 6c0 .932 0 1.398.152 1.765a2 2 0 001.082 1.083C4.602 18 5.068 18 6 18h8m0-12h4c.932 0 1.398 0 1.765.152a2 2 0 011.083 1.083C21 7.602 21 8.068 21 9a3 3 0 100 6c0 .932 0 1.398-.152 1.765a2 2 0 01-1.083 1.083C19.398 18 18.932 18 18 18h-4m0-12v12" stroke="currentColor" stroke-width="2" stroke-linecap="round" stroke-linejoin="round"/></svg>