<svg width="18" height="19" fill="none" xmlns="http://www.w3.org/2000/svg"><path d="M5.71 7.954v9.225c0 .733-.246.982-.976.987H1.242c-.712-.005-.976-.283-.976-.99V7.949c0-.72.264-.988.976-.988h3.49c.722 0 .979.26.979.993zm12.025 3.902a1.511 1.511 0 01-.948 1.239l.08.082a1.508 1.508 0 01.384 1.16 1.533 1.533 0 01-1.26 1.323 1.486 1.486 0 01.375 1.135 1.546 1.546 0 01-1.561 1.372H9.89a11.277 11.277 0 01-3.665-.726 2.05 2.05 0 00.013-.264V7.952c0-.138-.01-.275-.032-.41l.347-.302c.111-.093.222-.188.33-.286.729-.638 1.46-1.342 1.713-2.32.09-.4.137-.81.138-1.222 0-.212.016-.424.032-.633 0-.098.016-.193.024-.291a4.19 4.19 0 01.127-.881c.148-.498.593-.781 1.217-.781a1.308 1.308 0 011.281.834 6.577 6.577 0 01.32 3.753c-.113.53-.264 1.059-.439 1.562-.076.249-.156.5-.23.752h4.474a1.546 1.546 0 011.55 1.358 1.515 1.515 0 01-.386 1.159l-.026.029a1.514 1.514 0 011.056 1.583z" fill="currentColor"/></svg>