<svg width="24" height="24" fill="none" xmlns="http://www.w3.org/2000/svg"><path d="M3 11v4.8c0 1.12 0 1.68.218 2.108a2 2 0 00.874.874c.427.218.987.218 2.105.218h11.606c1.118 0 1.677 0 2.104-.218.377-.192.683-.498.875-.874.218-.428.218-.986.218-2.104V11M3 11V9m0 2h18M3 9v-.8c0-1.12 0-1.68.218-2.108.192-.377.497-.682.874-.874C4.52 5 5.08 5 6.2 5h11.6c1.12 0 1.68 0 2.107.218.377.192.683.497.875.874.218.427.218.987.218 2.105V9M3 9h18M7 15h4m10-4V9" stroke="currentColor" stroke-width="2" stroke-linecap="round" stroke-linejoin="round"/></svg>