<svg width="16" height="16" fill="none" xmlns="http://www.w3.org/2000/svg"><path fill-rule="evenodd" clip-rule="evenodd" d="M4.774 1.333h6.452c.351 0 .654 0 .904.02.263.022.525.07.778.198.375.192.682.497.874.874.129.252.176.515.198.778.02.25.02.552.02.903v2.67c0 4.788-3.636 6.92-5.108 7.586l-.007.003c-.16.072-.296.133-.546.176a2.14 2.14 0 01-.339.024 2.14 2.14 0 01-.338-.024c-.254-.043-.39-.105-.554-.179C5.636 13.696 2 11.564 2 6.777v-2.67c0-.35 0-.654.02-.904.022-.263.07-.525.198-.778a2 2 0 01.874-.874c.252-.128.514-.176.778-.197.25-.02.553-.02.904-.02zm-.795 1.35c-.182.015-.249.04-.282.056a.666.666 0 00-.291.292c-.017.033-.042.1-.057.281a11.6 11.6 0 00-.016.822v2.643c0 3.97 2.988 5.765 4.325 6.37.08.037.108.049.134.058.016.005.04.013.092.022l.03.002a1.535 1.535 0 00.173 0l.03-.002a.544.544 0 00.09-.022 1.85 1.85 0 00.134-.057l.007-.003c1.34-.608 4.319-2.403 4.319-6.368V4.13c0-.383 0-.631-.016-.82-.015-.18-.04-.248-.057-.28a.667.667 0 00-.292-.292c-.033-.016-.1-.041-.28-.056a11.329 11.329 0 00-.822-.016H4.8c-.384 0-.632 0-.821.016zm6.492 2.846c.26.26.26.682 0 .943L7.805 9.138a.667.667 0 01-.943 0L5.529 7.805a.667.667 0 11.942-.943l.862.862L9.53 5.529c.26-.26.682-.26.942 0z" fill="currentColor"/></svg>