<svg width="25" height="24" fill="none" xmlns="http://www.w3.org/2000/svg"><path d="M2.835 10.337a.5.5 0 01.28-.864l6.004-.712a.5.5 0 00.396-.287l2.532-5.49a.5.5 0 01.908 0l2.532 5.49a.499.499 0 00.395.287l6.004.712a.5.5 0 01.28.864l-4.438 4.105a.5.5 0 00-.15.464l1.177 5.93a.5.5 0 01-.735.534l-5.275-2.953a.499.499 0 00-.488 0l-5.276 2.952a.5.5 0 01-.735-.533l1.178-5.93a.5.5 0 00-.15-.464l-4.439-4.105z" fill="currentColor" stroke="currentColor" stroke-width="2" stroke-linecap="round" stroke-linejoin="round"/></svg>