<svg width="24" height="24" fill="none" xmlns="http://www.w3.org/2000/svg"><g clip-path="url(#clip0_423_12806)"><path d="M23.53 1.966a1.45 1.45 0 00-1.432-.307L.995 8.615c-.575.19-.965.703-.993 1.308a1.439 1.439 0 00.866 1.395l5.219 2.283 1.574 7.303c.066.304.22.574.546.657.33.084.563-.096.81-.28l3.872-2.9 4.528 3.704a1.44 1.44 0 001.382.251c.477-.161.83-.55.945-1.04l4.218-17.93a1.45 1.45 0 00-.432-1.4zM9.354 14.91a.184.184 0 00-.008.021l-.873 3.05-.974-4.518 6.7-3.722-4.685 4.897a.705.705 0 00-.16.272zm.277 4.15l.396-1.386.38-1.325 1.358 1.112-2.134 1.599zM22.589 3.043l-4.217 17.93c-.002.01-.005.021-.025.028-.02.007-.03 0-.038-.006l-4.954-4.055-2.296-1.878 7.375-7.711a.705.705 0 00-.852-1.103l-10.92 6.067-5.229-2.288c-.016-.007-.025-.011-.023-.038 0-.027.01-.03.027-.035l21.102-6.957c.01-.003.022-.007.039.009.017.015.014.027.011.037z" fill="currentColor"/></g><defs><clipPath id="clip0_423_12806"><path fill="currentColor" d="M0 0h24v24H0z"/></clipPath></defs></svg>