<svg width="16" height="17" fill="none" xmlns="http://www.w3.org/2000/svg"><path fill-rule="evenodd" clip-rule="evenodd" d="M7.312 1.833h1.376c.292 0 .545 0 .754.014.22.015.44.048.657.138a2 2 0 011.082 1.083c.09.217.123.437.138.657l.006.108h2.008a.667.667 0 110 1.334h-.666v7.227c0 .351 0 .654-.02.903a2.033 2.033 0 01-.198.777 2.002 2.002 0 01-.875.875 2.033 2.033 0 01-.777.197c-.25.02-.552.02-.903.02H6.106c-.351 0-.654 0-.903-.02a2.034 2.034 0 01-.778-.197 2 2 0 01-.874-.875 2.036 2.036 0 01-.197-.777c-.02-.25-.02-.553-.02-.905V5.167h-.667a.667.667 0 010-1.334h2.008l.006-.108c.015-.22.048-.44.138-.657A2 2 0 015.9 1.985c.217-.09.437-.123.657-.138.21-.014.462-.014.754-.014zm-1.302 2l.001-.017a.773.773 0 01.04-.238.667.667 0 01.36-.36.774.774 0 01.238-.04c.158-.011.365-.011.684-.011h1.334c.32 0 .526 0 .684.01.152.011.21.029.237.04a.667.667 0 01.361.361.773.773 0 01.041.255H6.01zM4.667 5.167v7.2c0 .384 0 .632.016.82.014.182.04.249.056.282a.667.667 0 00.292.292c.032.016.1.042.28.056.189.016.437.016.82.016H9.87c.383 0 .631 0 .82-.016.18-.014.247-.04.28-.056a.668.668 0 00.292-.292c.017-.033.042-.1.056-.28.016-.19.016-.437.016-.82V5.167H4.667zm2 1.333c.368 0 .666.298.666.667v4.666a.667.667 0 01-1.333 0V7.167c0-.369.298-.667.667-.667zm2.666 0c.369 0 .667.298.667.667v4.666a.667.667 0 01-1.333 0V7.167c0-.369.298-.667.666-.667z" fill="currentColor"/></svg>