<svg width="20" height="21" fill="none" xmlns="http://www.w3.org/2000/svg"><path fill-rule="evenodd" clip-rule="evenodd" d="M10 3.77a3.167 3.167 0 100 6.333 3.167 3.167 0 000-6.333zM4.835 6.937a5.167 5.167 0 1110.333 0 5.167 5.167 0 01-10.333 0zm-.077 7.039c1.389-.868 3.245-1.373 5.244-1.373 1.998 0 3.855.505 5.244 1.373 1.375.86 2.422 2.174 2.422 3.794a1 1 0 11-2 0c0-.681-.444-1.45-1.482-2.098-1.024-.64-2.5-1.069-4.184-1.069-1.684 0-3.16.429-4.184 1.069-1.038.648-1.483 1.417-1.483 2.098a1 1 0 11-2 0c0-1.62 1.048-2.935 2.423-3.794z" fill="currentColor"/></svg>