<svg width="33" height="33" fill="none" xmlns="http://www.w3.org/2000/svg"><path d="M16.693.27a16 16 0 100 32 16 16 0 000-32zm9.222 22.262c-.465.065-2.742 0-2.86 0a2.234 2.234 0 01-1.58-.626c-.48-.463-.909-.972-1.378-1.454a3.665 3.665 0 00-.45-.407c-.374-.288-.744-.224-.92.22a8.614 8.614 0 00-.288 1.46c-.031.447-.315.727-.817.758a11.32 11.32 0 01-.929.014 7.063 7.063 0 01-3.216-.794 8.752 8.752 0 01-2.75-2.404c-1.214-1.549-2.183-3.25-3.048-5.005-.046-.09-.933-1.977-.955-2.066-.08-.296 0-.582.246-.682.156-.06 3.08 0 3.129 0a1.025 1.025 0 01.982.708 15.276 15.276 0 002.196 3.85 2.1 2.1 0 00.446.406c.238.164.463.107.561-.17.117-.38.185-.774.204-1.172.016-.789 0-1.307-.044-2.096-.029-.506-.207-.947-.953-1.091-.229-.042-.248-.231-.101-.42.307-.391.727-.455 1.198-.478.702-.04 1.404-.013 2.105 0h.153c.305-.001.61.03.91.092a.838.838 0 01.666.748c.037.199.052.401.046.603-.018.86-.06 1.722-.07 2.582-.008.341.024.682.093 1.017.1.458.415.572.728.241.405-.426.776-.884 1.11-1.369a13.773 13.773 0 001.455-2.827c.204-.51.364-.624.91-.624h3.101c.185-.003.368.022.546.073a.47.47 0 01.325.61c-.153.68-.52 1.26-.909 1.817-.63.893-1.296 1.764-1.942 2.646a3.573 3.573 0 00-.213.354c-.243.44-.225.686.128 1.05.563.58 1.165 1.121 1.709 1.718.399.434.759.901 1.076 1.398.387.625.142 1.214-.6 1.32z" fill="currentColor"/></svg>