<svg width="16" height="16" viewBox="0 0 16 16" fill="currentColor" xmlns="http://www.w3.org/2000/svg">
<path fill-rule="evenodd" clip-rule="evenodd" d="M5.33333 0.666992C5.70152 0.666992 6 0.965469 6 1.33366V2.00033H10V1.33366C10 0.965469 10.2985 0.666992 10.6667 0.666992C11.0349 0.666992 11.3333 0.965469 11.3333 1.33366V2.00034C11.6394 2.00053 11.9061 2.00241 12.1299 2.02071C12.3935 2.04225 12.6554 2.08982 12.9076 2.21831C13.2832 2.40969 13.59 2.71515 13.7822 3.0922C13.9106 3.34432 13.9581 3.60636 13.9796 3.86963C14 4.11909 14 4.42186 14 4.77259V11.2284C14 11.5791 14 11.8818 13.9796 12.1311C13.9581 12.3943 13.9106 12.6562 13.7822 12.9082C13.5902 13.2849 13.2836 13.5909 12.9076 13.7825C12.6555 13.9109 12.3937 13.9584 12.1305 13.98C11.8811 14.0003 11.5784 14.0003 11.2277 14.0003H4.77226C4.42154 14.0003 4.11877 14.0003 3.86931 13.98C3.60604 13.9584 3.344 13.9109 3.09187 13.7825C2.71517 13.5905 2.40954 13.2842 2.21799 12.9082C2.08947 12.656 2.04192 12.3939 2.02038 12.1304C1.99998 11.8807 1.99999 11.5776 2 11.2262V4.77478C1.99999 4.42333 1.99998 4.12009 2.02038 3.87031C2.04191 3.60674 2.08944 3.34449 2.21799 3.0922C2.40973 2.71587 2.71555 2.41006 3.09187 2.21831C3.34416 2.08976 3.60641 2.04223 3.86999 2.0207C4.09386 2.00242 4.36068 2.00053 4.66667 2.00034V1.33366C4.66667 0.965469 4.96514 0.666992 5.33333 0.666992ZM3.97853 3.34961C3.7973 3.36441 3.73012 3.38955 3.69719 3.40632C3.57175 3.47024 3.46991 3.57208 3.406 3.69752C3.38922 3.73044 3.36409 3.79762 3.34929 3.97886C3.33572 4.145 3.33368 4.35698 3.33338 4.66699H12.6666C12.6663 4.35652 12.6643 4.14442 12.6507 3.97823C12.636 3.79735 12.6109 3.73033 12.5941 3.69752C12.5306 3.5728 12.4284 3.4706 12.3023 3.40632C12.2692 3.38949 12.2022 3.36439 12.0213 3.34961C11.8325 3.33418 11.5845 3.33366 11.2001 3.33366H4.80013C4.41577 3.33366 4.1675 3.33418 3.97853 3.34961ZM12.6667 6.00033H3.33333V11.2005C3.33333 11.5848 3.33385 11.833 3.34929 12.0218C3.36408 12.2028 3.38919 12.2699 3.406 12.3029C3.4701 12.4287 3.57213 12.5307 3.69719 12.5945C3.73 12.6112 3.79703 12.6363 3.97791 12.6511C4.16653 12.6665 4.41431 12.667 4.79794 12.667H11.2021C11.5857 12.667 11.8333 12.6665 12.0218 12.6511C12.2024 12.6363 12.2694 12.6112 12.3023 12.5945C12.4281 12.5304 12.5304 12.428 12.5941 12.3029C12.6109 12.27 12.636 12.2031 12.6507 12.0224C12.6661 11.834 12.6667 11.5864 12.6667 11.2027V6.00033Z" fill="currentColor"/>
</svg>
