<svg width="16" height="16" viewBox="0 0 16 16" fill="none" xmlns="http://www.w3.org/2000/svg">
<path fill-rule="evenodd" clip-rule="evenodd" d="M7.9987 2.66671C5.05318 2.66671 2.66536 5.05452 2.66536 8.00004C2.66536 10.9456 5.05318 13.3334 7.9987 13.3334C10.9442 13.3334 13.332 10.9456 13.332 8.00004C13.332 5.05452 10.9442 2.66671 7.9987 2.66671ZM1.33203 8.00004C1.33203 4.31814 4.3168 1.33337 7.9987 1.33337C11.6806 1.33337 14.6654 4.31814 14.6654 8.00004C14.6654 11.6819 11.6806 14.6667 7.9987 14.6667C4.3168 14.6667 1.33203 11.6819 1.33203 8.00004ZM10.4701 6.1953C10.7305 6.45565 10.7305 6.87776 10.4701 7.13811L7.80344 9.80478C7.54309 10.0651 7.12098 10.0651 6.86063 9.80478L5.52729 8.47144C5.26694 8.2111 5.26694 7.78899 5.52729 7.52864C5.78764 7.26829 6.20975 7.26829 6.4701 7.52864L7.33203 8.39056L9.52729 6.1953C9.78764 5.93495 10.2098 5.93495 10.4701 6.1953Z" fill="#24BD22"/>
</svg>
