<svg width="18" height="19" viewBox="0 0 18 19" fill="none" xmlns="http://www.w3.org/2000/svg">
<g clip-path="url(#clip0_306_6907)">
<path d="M12.2894 11.0459C12.2894 7.97181 12.2894 4.89681 12.2894 1.82093C12.2894 1.08769 12.5356 0.838868 13.2661 0.833574L14.8544 0.833574L16.5379 0.833574L16.7576 0.833574C17.4697 0.838868 17.7344 1.11681 17.7344 1.82357L17.7344 7.95946C17.7344 8.98652 17.7344 10.0171 17.7344 11.0512C17.7344 11.7712 17.4697 12.0386 16.7576 12.0386L13.2688 12.0386C12.5461 12.0386 12.2894 11.7792 12.2894 11.0459Z" fill="currentColor"/>
<path d="M0.265028 7.14402C0.295437 6.87089 0.399738 6.61121 0.566714 6.39293C0.733689 6.17465 0.957019 6.00603 1.21268 5.9052L1.13326 5.82314C0.992012 5.66731 0.884899 5.48367 0.8188 5.284C0.752701 5.08434 0.729077 4.87306 0.74944 4.66373C0.789528 4.33708 0.933695 4.032 1.16062 3.79364C1.38753 3.55528 1.68515 3.39629 2.00944 3.3402C1.87147 3.18732 1.76681 3.00742 1.7021 2.81193C1.63739 2.61643 1.61405 2.40961 1.63356 2.20461C1.67693 1.82284 1.86091 1.47091 2.14964 1.21742C2.43837 0.963922 2.81116 0.827031 3.19532 0.833434L4.9715 0.833434L5.02444 0.833434L5.24944 0.833434C6.15738 0.833435 7.10238 0.833435 8.01826 0.833435L8.10826 0.833435C9.36216 0.86955 10.6012 1.11468 11.7744 1.55873C11.7643 1.64659 11.7599 1.73501 11.7612 1.82343C11.7612 4.90108 11.7612 7.97608 11.7612 11.0484C11.7603 11.1858 11.7709 11.3231 11.793 11.4587L11.4462 11.7605C11.335 11.8531 11.2239 11.9484 11.1153 12.0464C10.3874 12.6843 9.65679 13.3884 9.40268 14.3652C9.31252 14.7666 9.26636 15.1767 9.26503 15.5881C9.26503 15.7999 9.24915 16.0117 9.23326 16.2208C9.23326 16.3187 9.21738 16.414 9.20944 16.512C9.19852 16.8095 9.15593 17.105 9.08238 17.3934C8.93415 17.8911 8.48944 18.1743 7.86473 18.1743C7.59071 18.1873 7.31954 18.1137 7.08962 17.9641C6.85969 17.8145 6.68265 17.5963 6.58356 17.3405C6.11314 16.1473 6.00181 14.8426 6.26326 13.587C6.37709 13.0576 6.52797 12.5281 6.70267 12.0252C6.77944 11.7764 6.85885 11.5249 6.93297 11.2734L2.45944 11.2734C2.07911 11.2776 1.71062 11.1413 1.42444 10.8908C1.13826 10.6403 0.954482 10.293 0.908263 9.91549C0.888581 9.70599 0.912783 9.49469 0.979325 9.29506C1.04587 9.09544 1.15329 8.91187 1.29473 8.75608L1.32121 8.72696C1.06404 8.64699 0.83286 8.49988 0.651499 8.30079C0.509707 8.14576 0.402043 7.96269 0.33547 7.76343C0.268897 7.56417 0.244898 7.35315 0.265028 7.14402Z" fill="currentColor"/>
</g>
<defs>
<clipPath id="clip0_306_6907">
<rect width="18" height="18" fill="white" transform="translate(18 18.5) rotate(-180)"/>
</clipPath>
</defs>
</svg>
