<svg width="24" height="24" viewBox="0 0 24 24" fill="currentColor" xmlns="http://www.w3.org/2000/svg">
<path d="M20 17.0007V11.4527C20 10.9184 19.9995 10.6511 19.9346 10.4024C19.877 10.1821 19.7825 9.97356 19.6546 9.78513C19.5102 9.5725 19.3096 9.39618 18.9074 9.04431L14.1074 4.84431C13.3608 4.19103 12.9875 3.86455 12.5674 3.74031C12.1972 3.63083 11.8026 3.63083 11.4324 3.74031C11.0126 3.86446 10.6398 4.19063 9.89436 4.84292L5.09277 9.04432C4.69064 9.39618 4.49004 9.5725 4.3457 9.78513C4.21779 9.97356 4.12255 10.1821 4.06497 10.4024C4 10.6511 4 10.9184 4 11.4527V17.0007C4 17.9325 4 18.3983 4.15224 18.7658C4.35523 19.2559 4.74432 19.6457 5.23438 19.8487C5.60192 20.0009 6.06786 20.001 6.99974 20.001C7.93163 20.001 8.39808 20.0009 8.76562 19.8487C9.25568 19.6457 9.64467 19.256 9.84766 18.7659C9.9999 18.3984 10 17.9324 10 17.0006V16.0006C10 14.896 10.8954 14.0006 12 14.0006C13.1046 14.0006 14 14.896 14 16.0006V17.0006C14 17.9324 14 18.3984 14.1522 18.7659C14.3552 19.256 14.7443 19.6457 15.2344 19.8487C15.6019 20.0009 16.0679 20.001 16.9997 20.001C17.9316 20.001 18.3981 20.0009 18.7656 19.8487C19.2557 19.6457 19.6447 19.2559 19.8477 18.7658C19.9999 18.3983 20 17.9325 20 17.0007Z" stroke="currentColor" stroke-width="2" stroke-linecap="round" stroke-linejoin="round" fill="none "/>
</svg>
