<svg width="17" height="16" viewBox="0 0 17 16" fill="none" xmlns="http://www.w3.org/2000/svg">
<path d="M13.6602 8.00065C13.6602 5.05513 11.2723 2.66732 8.32682 2.66732C5.3813 2.66732 2.99349 5.05513 2.99349 8.00065C2.99349 10.9462 5.3813 13.334 8.32682 13.334C11.2723 13.334 13.6602 10.9462 13.6602 8.00065ZM8.36003 9.63411C8.72822 9.63411 9.02669 9.93259 9.02669 10.3008V10.3672C9.02669 10.5444 8.95627 10.7148 8.83073 10.8398C8.70514 10.9649 8.53468 11.0345 8.35742 11.0339H8.29102C7.92385 11.0324 7.62695 10.7344 7.62695 10.3672V10.3008C7.62695 9.93259 7.92543 9.63411 8.29362 9.63411H8.36003ZM7.66016 8.30078V5.63411C7.66016 5.26592 7.95863 4.96745 8.32682 4.96745C8.69501 4.96745 8.99349 5.26592 8.99349 5.63411V8.30078C8.99349 8.66897 8.69501 8.96745 8.32682 8.96745C7.95863 8.96745 7.66016 8.66897 7.66016 8.30078ZM14.9935 8.00065C14.9935 11.6825 12.0087 14.6673 8.32682 14.6673C4.64492 14.6673 1.66016 11.6825 1.66016 8.00065C1.66016 4.31875 4.64492 1.33398 8.32682 1.33398C12.0087 1.33398 14.9935 4.31875 14.9935 8.00065Z" fill="currentColor"/>
</svg>
