<svg width="18" height="19" viewBox="0 0 18 19" fill="none" xmlns="http://www.w3.org/2000/svg">
<g clip-path="url(#clip0_306_6902)">
<path d="M5.71063 7.95407C5.71063 11.0282 5.71063 14.1032 5.71063 17.1791C5.71063 17.9123 5.46445 18.1611 4.73386 18.1664H3.14563H1.4621H1.24239C0.530331 18.1611 0.265625 17.8832 0.265625 17.1764V11.0405C0.265625 10.0135 0.265625 8.9829 0.265625 7.94878C0.265625 7.22878 0.530331 6.96143 1.24239 6.96143H4.73121C5.45386 6.96143 5.71063 7.22084 5.71063 7.95407Z" fill="currentColor"/>
<path d="M17.735 11.856C17.7046 12.1291 17.6003 12.3888 17.4333 12.6071C17.2663 12.8253 17.043 12.994 16.7873 13.0948L16.8667 13.1769C17.008 13.3327 17.1151 13.5163 17.1812 13.716C17.2473 13.9157 17.2709 14.1269 17.2506 14.3363C17.2105 14.6629 17.0663 14.968 16.8394 15.2064C16.6125 15.4447 16.3148 15.6037 15.9906 15.6598C16.1285 15.8127 16.2332 15.9926 16.2979 16.1881C16.3626 16.3836 16.386 16.5904 16.3664 16.7954C16.3231 17.1772 16.1391 17.5291 15.8504 17.7826C15.5616 18.0361 15.1888 18.173 14.8047 18.1666H13.0285H12.9756H12.7506C11.8426 18.1666 10.8976 18.1666 9.98174 18.1666H9.89174C8.63784 18.1304 7.39876 17.8853 6.22556 17.4413C6.23568 17.3534 6.2401 17.265 6.2388 17.1766C6.2388 14.0989 6.2388 11.0239 6.2388 7.95156C6.23969 7.81415 6.22906 7.67691 6.20703 7.54127L6.5538 7.23951C6.66497 7.14686 6.77615 7.05156 6.88468 6.95362C7.61262 6.31568 8.34321 5.61156 8.59733 4.6348C8.68748 4.23336 8.73364 3.82329 8.73497 3.41186C8.73497 3.20009 8.75085 2.98833 8.76674 2.77921C8.76674 2.68127 8.78262 2.58598 8.79056 2.48803C8.80148 2.19053 8.84407 1.89504 8.91762 1.60656C9.06585 1.10892 9.51056 0.825682 10.1353 0.825682C10.4093 0.812711 10.6805 0.886251 10.9104 1.03589C11.1403 1.18553 11.3173 1.4037 11.4164 1.65951C11.8869 2.8527 11.9982 4.15739 11.7367 5.41303C11.6229 5.94245 11.472 6.47186 11.2973 6.9748C11.2206 7.22362 11.1411 7.47509 11.067 7.72656H15.5406C15.9209 7.72244 16.2894 7.85868 16.5756 8.10921C16.8617 8.35974 17.0455 8.70698 17.0917 9.08451C17.1114 9.29401 17.0872 9.50531 17.0207 9.70494C16.9541 9.90456 16.8467 10.0881 16.7053 10.2439L16.6788 10.273C16.936 10.353 17.1671 10.5001 17.3485 10.6992C17.4903 10.8542 17.598 11.0373 17.6645 11.2366C17.7311 11.4358 17.7551 11.6469 17.735 11.856Z" fill="currentColor"/>
</g>
<defs>
<clipPath id="clip0_306_6902">
<rect width="18" height="18" fill="white" transform="translate(0 0.5)"/>
</clipPath>
</defs>
</svg>
