<svg width="16" height="17" viewBox="0 0 16 17" fill="none" xmlns="http://www.w3.org/2000/svg">
<path fill-rule="evenodd" clip-rule="evenodd" d="M10.2547 2.84065C10.5225 2.75364 10.8109 2.75364 11.0787 2.84065C11.2717 2.90334 11.4194 3.00959 11.5358 3.10833C11.6417 3.19822 11.7572 3.31376 11.8756 3.43222L13.0655 4.62212C13.1845 4.74109 13.3004 4.85695 13.3905 4.96311C13.4895 5.07966 13.5959 5.22761 13.6586 5.42078C13.7457 5.68862 13.7456 5.97708 13.6586 6.24483C13.5959 6.43789 13.4896 6.58574 13.3907 6.70223C13.3007 6.80829 13.1849 6.92403 13.0661 7.04282L6.94279 13.1661H13.3333C13.7015 13.1661 14 13.4646 14 13.8328C14 14.2009 13.7015 14.4994 13.3333 14.4994H2.66667C2.29848 14.4994 2 14.2009 2 13.8328V11.1661C2 10.9893 2.07024 10.8197 2.19526 10.6947L9.44431 3.44562L9.45718 3.43277C9.57579 3.31413 9.69142 3.19847 9.79742 3.10849C9.91381 3.00969 10.0616 2.90337 10.2547 2.84065ZM5.05719 13.1661L3.33333 13.1661V11.4422L10.3817 4.39388L10.385 4.3906C10.5244 4.25119 10.601 4.1753 10.6603 4.12498C10.6625 4.12308 10.6647 4.12129 10.6667 4.1196C10.6687 4.12125 10.6708 4.12299 10.6729 4.12484C10.7321 4.17507 10.8086 4.25082 10.9478 4.39004L12.1077 5.5499C12.2474 5.68968 12.3236 5.76656 12.3741 5.82603C12.3761 5.82839 12.378 5.83064 12.3798 5.83278C12.378 5.83487 12.3762 5.83706 12.3742 5.83936C12.3245 5.89791 12.2499 5.97338 12.1138 6.10945L5.05719 13.1661Z" fill="currentColor"/>
</svg>
