<svg width="16" height="16" viewBox="0 0 16 16" fill="none" xmlns="http://www.w3.org/2000/svg">
<path fill-rule="evenodd" clip-rule="evenodd" d="M4.77445 1.33325H11.2259C11.5773 1.33324 11.8803 1.33323 12.1299 1.35364C12.3935 1.37518 12.6554 1.42275 12.9076 1.55124C13.2832 1.74262 13.59 2.04808 13.7822 2.42512C13.9106 2.67725 13.9581 2.93929 13.9796 3.20256C14 3.45202 14 3.75479 14 4.10551V6.77662C14 11.5639 10.3635 13.6955 8.8921 14.3615L8.88479 14.3648C8.72553 14.4369 8.58934 14.4981 8.33871 14.5412C8.22861 14.5601 8.09697 14.5645 8.00034 14.5645C7.9037 14.5645 7.77206 14.5601 7.66196 14.5412C7.40843 14.4976 7.27153 14.4357 7.10835 14.3618L7.10773 14.3615C5.63626 13.6955 2 11.5639 2 6.77661L2 4.1077C1.99999 3.75626 1.99998 3.45302 2.02038 3.20324C2.04191 2.93966 2.08944 2.67742 2.21799 2.42512C2.40973 2.0488 2.71555 1.74299 3.09187 1.55124C3.34416 1.42269 3.60641 1.37516 3.86999 1.35363C4.11977 1.33323 4.423 1.33324 4.77445 1.33325ZM3.97853 2.68254C3.7973 2.69734 3.73012 2.72247 3.69719 2.73925C3.57175 2.80316 3.46991 2.905 3.406 3.03044C3.38922 3.06337 3.36409 3.13055 3.34929 3.31178C3.33385 3.50076 3.33333 3.74902 3.33333 4.13338V6.77661C3.33333 10.747 6.32081 12.5418 7.65754 13.1468C7.73789 13.1832 7.76621 13.1954 7.79173 13.2044C7.80828 13.2102 7.83155 13.2173 7.88442 13.2265C7.88524 13.2266 7.89454 13.2277 7.91408 13.2288C7.93827 13.2303 7.96825 13.2311 8.00034 13.2311C8.03242 13.2311 8.0624 13.2303 8.08659 13.2288C8.10612 13.2277 8.11542 13.2266 8.11624 13.2265C8.16863 13.2174 8.19143 13.2104 8.20746 13.2047C8.23264 13.1959 8.26033 13.1839 8.34051 13.1476L8.34782 13.1443C9.68728 12.5368 12.6667 10.7415 12.6667 6.77662V4.13119C12.6667 3.74756 12.6661 3.49979 12.6507 3.31116C12.636 3.13028 12.6109 3.06326 12.5941 3.03044C12.5306 2.90572 12.4284 2.80353 12.3023 2.73925C12.2692 2.72242 12.2022 2.69732 12.0213 2.68254C11.8325 2.66711 11.5845 2.66659 11.2001 2.66659H4.80013C4.41577 2.66659 4.1675 2.6671 3.97853 2.68254ZM10.4714 5.52852C10.7318 5.78887 10.7318 6.21098 10.4714 6.47132L7.80474 9.13799C7.54439 9.39834 7.12228 9.39834 6.86193 9.13799L5.5286 7.80466C5.26825 7.54431 5.26825 7.1222 5.5286 6.86185C5.78895 6.6015 6.21106 6.6015 6.47141 6.86185L7.33333 7.72378L9.5286 5.52852C9.78895 5.26817 10.2111 5.26817 10.4714 5.52852Z" fill="currentColor"/>
</svg>
