<svg width="12" height="12" viewBox="0 0 12 12" fill="none" xmlns="http://www.w3.org/2000/svg">
<path d="M1.1665 5.16839C1.00988 5.02354 1.09496 4.7617 1.30681 4.73658L4.30859 4.38053C4.39493 4.3703 4.46993 4.31608 4.50635 4.23712L5.77246 1.49223C5.86181 1.29851 6.13721 1.29848 6.22656 1.49219L7.49268 4.23707C7.52909 4.31602 7.6036 4.37038 7.68994 4.38062L10.6919 4.73658C10.9037 4.7617 10.9886 5.02362 10.832 5.16846L8.61291 7.22095C8.54907 7.27999 8.52065 7.36785 8.5376 7.45313L9.12653 10.418C9.1681 10.6272 8.94542 10.7893 8.75926 10.6851L6.1216 9.2083C6.04573 9.16584 5.95356 9.16603 5.87769 9.2085L3.23974 10.6848C3.05359 10.789 2.83049 10.6272 2.87207 10.418L3.4611 7.45332C3.47804 7.36804 3.44969 7.27997 3.38586 7.22094L1.1665 5.16839Z" fill="currentColor"/>
</svg>
