<svg width="32" height="33" viewBox="0 0 32 33" fill="none" xmlns="http://www.w3.org/2000/svg">
<path d="M15.5 0C6.944 0 0 7.168 0 16C0 24.832 6.944 32 15.5 32C24.056 32 31 24.832 31 16C31 7.168 24.056 0 15.5 0ZM22.692 10.88C22.4595 13.408 21.452 19.552 20.9405 22.384C20.7235 23.584 20.2895 23.984 19.8865 24.032C18.9875 24.112 18.3055 23.424 17.4375 22.832C16.0735 21.904 15.2985 21.328 13.981 20.432C12.4465 19.392 13.4385 18.816 14.322 17.888C14.5545 17.648 18.5225 13.92 18.6 13.584C18.6108 13.5331 18.6093 13.4803 18.5958 13.4301C18.5823 13.3799 18.5571 13.3339 18.5225 13.296C18.4295 13.216 18.3055 13.248 18.197 13.264C18.0575 13.296 15.8875 14.784 11.656 17.728C11.036 18.16 10.478 18.384 9.982 18.368C9.424 18.352 8.37 18.048 7.5795 17.776C6.603 17.456 5.8435 17.28 5.9055 16.72C5.9365 16.432 6.324 16.144 7.0525 15.84C11.5785 13.808 14.5855 12.464 16.089 11.824C20.398 9.968 21.2815 9.648 21.8705 9.648C21.9945 9.648 22.289 9.68 22.475 9.84C22.63 9.968 22.6765 10.144 22.692 10.272C22.6765 10.368 22.7075 10.656 22.692 10.88Z" fill="currentColor"/>
</svg>
