<svg width="16" height="17" viewBox="0 0 16 17" fill="none" xmlns="http://www.w3.org/2000/svg">
<path fill-rule="evenodd" clip-rule="evenodd" d="M7.31202 1.83398H8.68799C8.98042 1.83398 9.23275 1.83397 9.44159 1.84822C9.66147 1.86322 9.88141 1.89622 10.0987 1.98623C10.589 2.1893 10.9781 2.57892 11.181 3.06877C11.271 3.28599 11.304 3.50584 11.3191 3.72574C11.3214 3.76061 11.3234 3.7967 11.3251 3.83399H13.3333C13.7015 3.83399 14 4.13246 14 4.50065C14 4.86884 13.7015 5.16732 13.3333 5.16732H12.6667V12.3951C12.6667 12.7458 12.6667 13.0485 12.6463 13.2978C12.6248 13.5611 12.5773 13.823 12.4488 14.075C12.257 14.4515 11.9504 14.7578 11.5743 14.9495C11.3222 15.0779 11.0604 15.1254 10.7971 15.147C10.5478 15.1673 10.2451 15.1673 9.8944 15.1673H6.10559C5.75487 15.1673 5.4521 15.1673 5.20264 15.147C4.93937 15.1254 4.67733 15.0779 4.42521 14.9495C4.0483 14.7574 3.74277 14.4508 3.55132 14.075C3.42281 13.8228 3.37525 13.5608 3.35371 13.2972C3.33331 13.0476 3.33332 12.7444 3.33333 12.393L3.33333 5.16732H2.66667C2.29848 5.16732 2 4.86884 2 4.50065C2 4.13246 2.29848 3.83399 2.66667 3.83399H4.67489C4.67654 3.79672 4.67852 3.76065 4.6809 3.7258C4.69591 3.50592 4.72891 3.28604 4.81891 3.06877C5.02177 2.57901 5.41078 2.18934 5.90113 1.98623C6.11844 1.89621 6.33844 1.86322 6.55834 1.84822C6.76721 1.83397 7.01958 1.83398 7.31202 1.83398ZM6.01001 3.83399C6.01037 3.82812 6.01075 3.82232 6.01114 3.81658C6.02151 3.66465 6.03925 3.60678 6.05075 3.57902C6.11853 3.41537 6.24831 3.28561 6.41137 3.21807C6.43909 3.20658 6.497 3.18883 6.64908 3.17846C6.80711 3.16768 7.01359 3.16732 7.33333 3.16732H8.66667C8.98642 3.16732 9.19284 3.16768 9.35083 3.17846C9.50283 3.18883 9.56071 3.20657 9.58846 3.21807C9.75161 3.28565 9.88144 3.41546 9.94918 3.57902C9.9607 3.60683 9.97845 3.66473 9.98883 3.81664C9.98922 3.82236 9.9896 3.82814 9.98996 3.83399H6.01001ZM4.66667 5.16732V12.3673C4.66667 12.7517 4.66719 12.9998 4.68262 13.1886C4.69741 13.3696 4.72252 13.4367 4.73933 13.4697C4.80354 13.5957 4.90567 13.6978 5.03052 13.7615C5.06333 13.7782 5.13036 13.8033 5.31124 13.8181C5.49987 13.8335 5.74764 13.834 6.13127 13.834H9.86873C10.2524 13.834 10.5 13.8335 10.6885 13.8181C10.8691 13.8033 10.936 13.7782 10.9689 13.7615C11.0945 13.6975 11.197 13.595 11.2608 13.4697C11.2776 13.4369 11.3026 13.3699 11.3174 13.1892C11.3328 13.0007 11.3333 12.753 11.3333 12.3694V5.16732H4.66667ZM6.66667 6.50065C7.03486 6.50065 7.33333 6.79913 7.33333 7.16732V11.834C7.33333 12.2022 7.03486 12.5007 6.66667 12.5007C6.29848 12.5007 6 12.2022 6 11.834V7.16732C6 6.79913 6.29848 6.50065 6.66667 6.50065ZM9.33333 6.50065C9.70152 6.50065 10 6.79913 10 7.16732V11.834C10 12.2022 9.70152 12.5007 9.33333 12.5007C8.96514 12.5007 8.66667 12.2022 8.66667 11.834V7.16732C8.66667 6.79913 8.96514 6.50065 9.33333 6.50065Z" fill="#CA853F"/>
</svg>
