<svg width="32" height="32" viewBox="0 0 32 32" fill="currentColor" xmlns="http://www.w3.org/2000/svg">
<path d="M28.672 24.508H25.6293C24.4787 24.508 24.132 23.576 22.0693 21.512C20.2667 19.7747 19.5053 19.5587 19.0493 19.5587C18.4187 19.5587 18.2467 19.732 18.2467 20.6V23.336C18.2467 24.076 18.0067 24.5093 16.0733 24.5093C14.1977 24.3833 12.3789 23.8135 10.7666 22.8469C9.15437 21.8802 7.79483 20.5444 6.8 18.9493C4.43868 16.0088 2.79521 12.5585 2 8.87201C2 8.41601 2.17333 8.00268 3.04267 8.00268H6.08267C6.864 8.00268 7.14533 8.35068 7.452 9.15468C8.928 13.4987 11.4467 17.2773 12.4693 17.2773C12.8613 17.2773 13.032 17.104 13.032 16.1267V11.652C12.9027 9.61068 11.8187 9.43868 11.8187 8.70001C11.8324 8.50513 11.9215 8.32327 12.0672 8.19307C12.2128 8.06286 12.4035 7.99456 12.5987 8.00268H17.3773C18.0307 8.00268 18.2467 8.32801 18.2467 9.10934V15.1493C18.2467 15.8013 18.5267 16.0173 18.724 16.0173C19.116 16.0173 19.4173 15.8013 20.136 15.084C21.6759 13.2049 22.9343 11.1119 23.872 8.87068C23.9675 8.6013 24.1487 8.37067 24.3879 8.21413C24.627 8.05759 24.9109 7.98378 25.196 8.00401H28.2373C29.1493 8.00401 29.3427 8.46001 29.1493 9.11068C28.0429 11.5884 26.6742 13.9405 25.0667 16.1267C24.7387 16.6267 24.608 16.8867 25.0667 17.4733C25.368 17.9293 26.4347 18.82 27.1507 19.6667C28.1933 20.7067 29.0587 21.9093 29.7133 23.2267C29.9747 24.0747 29.54 24.508 28.672 24.508Z" fill="currentColor"/>
</svg>
