<svg width="32" height="33" viewBox="0 0 32 33" fill="none" xmlns="http://www.w3.org/2000/svg">

<path d="M16.0006 0.990234C7.51743 0.990234 0.640625 7.86703 0.640625 16.3502C0.640625 24.8334 7.51743 31.7102 16.0006 31.7102C24.4838 31.7102 31.3606 24.8334 31.3606 16.3502C31.3606 7.86703 24.4838 0.990234 16.0006 0.990234ZM21.9078 18.3198C21.9078 18.3198 23.2662 19.6606 23.6006 20.283C23.6102 20.2969 23.6161 20.3076 23.6182 20.315C23.7537 20.5422 23.7873 20.722 23.719 20.8542C23.607 21.075 23.223 21.1838 23.0918 21.1934H20.6918C20.5254 21.1934 20.1766 21.1502 19.7542 20.859C19.4294 20.6318 19.1094 20.259 18.7974 19.8958C18.3318 19.355 17.9286 18.8878 17.5222 18.8878C17.4706 18.8876 17.4193 18.8957 17.3702 18.9118C17.063 19.011 16.6694 19.4494 16.6694 20.6174C16.6694 20.9822 16.3814 21.1918 16.1782 21.1918H15.079C14.7046 21.1918 12.7542 21.0606 11.0262 19.2382C8.91103 17.0062 7.00702 12.5294 6.99102 12.4878C6.87103 12.1982 7.11903 12.043 7.38942 12.043H9.81343C10.1366 12.043 10.2422 12.2398 10.3158 12.4142C10.4022 12.6174 10.719 13.4254 11.239 14.3342C12.0822 15.8158 12.599 16.4174 13.0134 16.4174C13.0911 16.4165 13.1674 16.3968 13.2358 16.3598C13.7766 16.059 13.6758 14.131 13.6518 13.731C13.6518 13.6558 13.6502 12.8686 13.3734 12.491C13.175 12.2174 12.8374 12.1134 12.6326 12.075C12.7155 11.9607 12.8247 11.8679 12.951 11.8046C13.3222 11.619 13.991 11.5918 14.655 11.5918H15.0246C15.7446 11.6014 15.9302 11.6478 16.191 11.7134C16.719 11.8398 16.7302 12.1806 16.6838 13.347C16.6694 13.6782 16.655 14.0526 16.655 14.4942L16.6502 14.8014C16.6342 15.395 16.615 16.0686 17.0342 16.3454C17.0883 16.3811 17.1519 16.3995 17.2166 16.3982C17.3622 16.3982 17.8006 16.3982 18.9878 14.3614C19.3526 13.7051 19.6707 13.024 19.9398 12.323C19.9638 12.2814 20.0342 12.1534 20.1174 12.1038C20.1795 12.0743 20.2471 12.0585 20.3158 12.0574H23.1654C23.4758 12.0574 23.6886 12.1038 23.7286 12.2238C23.799 12.4142 23.7158 12.995 22.415 14.7566L21.8342 15.523C20.655 17.0686 20.655 17.147 21.9078 18.3198Z" fill="currentColor"/>

</svg>
