<svg width="32" height="32" viewBox="0 0 32 32" fill="currentColor" xmlns="http://www.w3.org/2000/svg">
<path d="M25.3991 6.5467C24.1765 5.31217 22.7205 4.33332 21.1158 3.66718C19.5111 3.00104 17.7899 2.66094 16.0524 2.6667C8.77242 2.6667 2.83909 8.60003 2.83909 15.88C2.83909 18.2134 3.45242 20.48 4.59909 22.48L2.73242 29.3334L9.73242 27.4934C11.6658 28.5467 13.8391 29.1067 16.0524 29.1067C23.3324 29.1067 29.2658 23.1734 29.2658 15.8934C29.2658 12.36 27.8924 9.04003 25.3991 6.5467ZM16.0524 26.8667C14.0791 26.8667 12.1458 26.3334 10.4524 25.3334L10.0524 25.0934L5.89242 26.1867L6.99909 22.1334L6.73242 21.72C5.63582 19.9694 5.05365 17.9457 5.05242 15.88C5.05242 9.8267 9.98575 4.89336 16.0391 4.89336C18.9724 4.89336 21.7324 6.04003 23.7991 8.12003C24.8226 9.13852 25.6336 10.3501 26.1853 11.6845C26.7369 13.0189 27.018 14.4495 27.0124 15.8934C27.0391 21.9467 22.1058 26.8667 16.0524 26.8667ZM22.0791 18.6534C21.7458 18.4934 20.1191 17.6934 19.8258 17.5734C19.5191 17.4667 19.3058 17.4134 19.0791 17.7334C18.8524 18.0667 18.2258 18.8134 18.0391 19.0267C17.8524 19.2534 17.6524 19.28 17.3191 19.1067C16.9858 18.9467 15.9191 18.5867 14.6658 17.4667C13.6791 16.5867 13.0258 15.5067 12.8258 15.1734C12.6391 14.84 12.7991 14.6667 12.9724 14.4934C13.1191 14.3467 13.3058 14.1067 13.4658 13.92C13.6258 13.7334 13.6924 13.5867 13.7991 13.3734C13.9058 13.1467 13.8524 12.96 13.7724 12.8C13.6924 12.64 13.0258 11.0134 12.7591 10.3467C12.4924 9.7067 12.2124 9.7867 12.0124 9.77336H11.3724C11.1458 9.77336 10.7991 9.85336 10.4924 10.1867C10.1991 10.52 9.34576 11.32 9.34576 12.9467C9.34576 14.5734 10.5324 16.1467 10.6924 16.36C10.8524 16.5867 13.0258 19.92 16.3324 21.3467C17.1191 21.6934 17.7324 21.8934 18.2124 22.04C18.9991 22.2934 19.7191 22.2534 20.2924 22.1734C20.9324 22.08 22.2524 21.3734 22.5191 20.6C22.7991 19.8267 22.7991 19.1734 22.7058 19.0267C22.6124 18.88 22.4124 18.8134 22.0791 18.6534Z" fill="currentColor"/>
</svg>
