<svg width="32" height="33" viewBox="0 0 32 33" fill="none" xmlns="http://www.w3.org/2000/svg">
<path d="M18.5654 16.083L14.9718 14.4062C14.6582 14.2606 14.4006 14.4238 14.4006 14.771V17.9294C14.4006 18.2766 14.6582 18.4398 14.9718 18.2942L18.5638 16.6174C18.879 16.4702 18.879 16.2302 18.5654 16.083ZM16.0006 0.990234C7.51743 0.990234 0.640625 7.86703 0.640625 16.3502C0.640625 24.8334 7.51743 31.7102 16.0006 31.7102C24.4838 31.7102 31.3606 24.8334 31.3606 16.3502C31.3606 7.86703 24.4838 0.990234 16.0006 0.990234ZM16.0006 22.5902C8.13823 22.5902 8.00063 21.8814 8.00063 16.3502C8.00063 10.819 8.13823 10.1102 16.0006 10.1102C23.863 10.1102 24.0006 10.819 24.0006 16.3502C24.0006 21.8814 23.863 22.5902 16.0006 22.5902Z" fill="currentColor"/>

</svg>
