<svg width="230" height="94" viewBox="0 0 230 94" fill="none" xmlns="http://www.w3.org/2000/svg">
<path d="M11.1296 90.8606L10.434 93.1107L0.104347 93.1799C0.660828 92.8337 0.904285 92.2452 0.904285 91.3798L0.83472 79.2986C0.83472 78.4331 0.556482 77.8447 0 77.4985L3.44323 77.4639C2.88675 77.81 2.60851 78.4331 2.60851 79.2639L2.67807 91.8298L7.58207 91.7952C8.48635 91.7952 9.14717 91.726 9.59931 91.5875C9.98189 91.4837 10.434 91.2414 10.9557 90.8952L11.1296 90.8606Z" fill="#D79F4E"/>
<path d="M28.7991 77.3579C28.2427 77.704 27.9644 78.3271 27.9644 79.1579L27.9992 86.8429C27.9992 88.2275 27.8601 89.266 27.5818 89.993C27.1645 91.0315 26.5037 91.8623 25.5298 92.4508C24.556 93.0393 23.4082 93.3508 22.0518 93.3508C19.9998 93.3508 18.3651 92.7623 17.1826 91.5161C16.6609 90.9623 16.2783 90.3738 16.1044 89.6814C15.8957 88.9891 15.7914 88.0198 15.7914 86.7736L15.7566 79.2272C15.7566 78.3617 15.4784 77.7733 14.9219 77.4271L18.3651 77.3925C17.8086 77.7386 17.5304 78.3617 17.5304 79.1925L17.5652 86.739C17.5652 88.3314 17.8086 89.5084 18.2955 90.2353C19.0955 91.4815 20.3824 92.07 22.1909 92.07C23.5821 92.07 24.6951 91.6546 25.5298 90.8584C26.3645 90.0622 26.7471 88.9891 26.7123 87.6737V86.6352L26.6776 79.1233C26.6776 78.2579 26.3993 77.6694 25.8081 77.3232L28.7991 77.3579Z" fill="#D79F4E"/>
<path d="M48.4481 92.9022L44.6571 92.9368C44.8657 92.7638 45.0049 92.5561 45.0049 92.3137C45.0049 92.1407 44.9005 91.933 44.7614 91.656L40.7965 86.1519L36.7968 91.656C36.5881 91.933 36.4837 92.1753 36.4837 92.383C36.4837 92.5561 36.5881 92.7291 36.762 92.9715L33.3535 93.0061C33.7361 92.833 34.0491 92.6253 34.2926 92.4522C34.6752 92.1406 34.9882 91.7945 35.2664 91.4483L39.927 85.0096L35.6838 79.0555C35.1969 78.3978 34.6404 77.8439 33.9796 77.4631L33.8752 77.3593L37.6315 77.3247C37.4228 77.4977 37.3185 77.7054 37.3185 77.9478C37.3185 78.1208 37.388 78.3285 37.5619 78.6055L41.0399 83.4864L44.5527 78.6401C44.7614 78.3285 44.9005 78.0862 44.8657 77.9131C44.8657 77.7401 44.7614 77.567 44.5875 77.3247L47.9959 77.29C47.6134 77.4631 47.3003 77.6708 47.0569 77.8439C46.7091 78.1208 46.3961 78.467 46.083 78.8824L41.9094 84.6288L46.6047 91.2406C47.0917 91.9329 47.6829 92.4868 48.309 92.833L48.4481 92.9022Z" fill="#D79F4E"/>
<path d="M64.3088 90.5475L63.6132 92.7976L53.5965 92.8669C54.153 92.5207 54.3965 91.9322 54.3965 91.0668L54.3269 78.9855C54.3269 78.1201 54.0487 77.5316 53.4922 77.1854L62.9176 77.1162L63.2306 79.124L63.0915 79.0548C62.3959 78.6394 61.6307 78.4316 60.8656 78.4316L56.0659 78.4663L56.1007 83.4857L60.9003 83.4511C61.4916 83.4511 61.909 83.4165 62.1177 83.3126L62.2916 85.2858C61.9785 85.0435 61.7351 84.8704 61.5612 84.8358C61.3525 84.7665 60.9003 84.7319 60.2047 84.7665L56.1355 84.8011L56.1702 91.5514L60.7612 91.5168C61.6307 91.5168 62.3263 91.4476 62.7785 91.3091C63.1611 91.2053 63.6132 90.9629 64.1349 90.6168L64.3088 90.5475Z" fill="#D79F4E"/>
<path d="M92.6539 90.6522L92.2017 92.6253C91.2279 92.833 90.1149 92.9369 88.8628 92.9369C86.1152 92.9369 83.8893 92.2099 82.1851 90.756C80.4808 89.2675 79.6461 87.329 79.6113 84.9058C79.6113 82.4826 80.4461 80.5095 82.1155 78.9863C83.7849 77.4632 85.9761 76.7016 88.6889 76.667C89.628 76.667 90.5671 76.7362 91.5409 76.9439L91.7844 78.8825C90.5671 78.294 89.3846 78.0171 88.1672 78.0171C86.1848 78.0171 84.6197 78.6748 83.4371 79.921C82.2546 81.1672 81.6634 82.8288 81.6634 84.8366C81.6634 86.8443 82.3242 88.4713 83.6458 89.7175C84.9675 90.9637 86.6717 91.5868 88.7933 91.5522C90.2193 91.6215 91.5061 91.3099 92.6539 90.6522Z" fill="#D79F4E"/>
<path d="M112.338 84.6981C112.338 87.0174 111.572 88.956 110.007 90.5137C108.442 92.0715 106.529 92.8677 104.199 92.9023C101.938 92.9023 100.025 92.2099 98.4256 90.756C96.8605 89.3021 96.0605 87.5021 96.0605 85.3558V84.9404C96.0605 82.5519 96.7909 80.5787 98.3213 79.0209C99.8516 77.4632 101.764 76.667 104.095 76.667C106.425 76.667 108.407 77.4286 109.973 78.9517C111.538 80.4748 112.338 82.3788 112.338 84.6981ZM110.39 84.6635C110.39 82.6903 109.799 81.0633 108.616 79.8171C107.434 78.5709 105.903 77.9478 104.06 77.9478C102.251 77.9478 100.791 78.6055 99.6777 79.8517C98.5647 81.1326 98.0082 82.7596 98.043 84.8019V85.1827C98.043 87.1213 98.6343 88.679 99.8168 89.856C100.999 91.033 102.46 91.6215 104.303 91.6215C106.112 91.6215 107.608 90.9637 108.721 89.6483C109.833 88.3675 110.39 86.7059 110.39 84.6635Z" fill="#D79F4E"/>
<path d="M128.373 87.9149C128.373 89.438 127.816 90.615 126.669 91.4804C125.521 92.3458 123.956 92.7958 121.938 92.7958C120.617 92.7958 119.4 92.6574 118.252 92.3458L118.008 92.2766L117.695 89.7496C118.878 90.8919 120.478 91.4804 122.425 91.4804C123.678 91.4804 124.686 91.1688 125.417 90.5804C126.147 89.9919 126.529 89.1957 126.529 88.1918C126.529 87.3956 126.251 86.7725 125.66 86.3225C125.208 85.9417 124.164 85.4917 122.53 84.9032C121.278 84.4532 120.339 84.0378 119.678 83.6224C118.6 82.9647 118.043 82.03 118.043 80.853C118.043 79.503 118.53 78.4299 119.504 77.7029C120.478 76.9413 121.904 76.5605 123.677 76.5605C124.582 76.5605 125.625 76.6644 126.808 76.8721L127.086 78.9491C125.869 78.2222 124.617 77.8414 123.33 77.8414C122.286 77.8414 121.452 78.0837 120.826 78.5337C120.199 78.9837 119.886 79.6068 119.921 80.3684C119.921 80.9223 120.13 81.4069 120.513 81.7877C120.999 82.2723 122.043 82.7916 123.643 83.3801C125.347 83.9686 126.495 84.5224 127.086 85.007C127.921 85.734 128.373 86.7033 128.373 87.9149Z" fill="#D79F4E"/>
<path d="M152.72 92.3466L149.485 92.3812C149.868 92.0696 150.077 91.585 150.077 90.9965C150.077 90.7888 150.042 90.5465 150.042 90.3042L148.616 79.296L143.121 92.7273L137.417 79.3653L136.13 90.8234C136.13 90.9619 136.095 91.1004 136.095 91.2734C136.095 91.6888 136.304 92.1042 136.686 92.485H133.869C134.391 92.1735 134.704 91.5504 134.808 90.6503L136.095 78.9498C136.13 78.5344 136.165 78.2575 136.165 78.0498C136.165 77.5998 135.956 77.1498 135.504 76.769H138.251L143.329 88.6079L148.164 76.7344H150.877C150.424 77.0805 150.216 77.5652 150.216 78.119C150.216 78.3267 150.251 78.5344 150.251 78.8114L151.781 90.408C151.85 90.9619 151.955 91.3773 152.024 91.585C152.129 91.7235 152.372 92.0004 152.72 92.3466Z" fill="#D79F4E"/>
<path d="M169.1 89.9919L168.404 92.242L158.388 92.3112C158.944 91.965 159.187 91.3765 159.187 90.5111L159.118 78.4299C159.118 77.5644 158.84 76.976 158.283 76.6298L167.709 76.5605L168.022 78.5683L167.883 78.4991C167.187 78.0837 166.422 77.876 165.657 77.876L160.857 77.9106L160.892 82.93L165.691 82.8954C166.283 82.8954 166.7 82.8608 166.909 82.757L167.083 84.7301C166.77 84.4878 166.526 84.3147 166.352 84.2801C166.144 84.2109 165.691 84.1762 164.996 84.2109L160.926 84.2455L160.961 90.9958L165.552 90.9611C166.422 90.9611 167.117 90.8919 167.569 90.7534C167.952 90.6496 168.404 90.4073 168.926 90.0611L169.1 89.9919Z" fill="#D79F4E"/>
<path d="M185.551 78.7095C185.203 78.2941 184.89 78.0518 184.577 77.9133C184.299 77.8095 183.916 77.7749 183.36 77.7749H180.404L180.473 90.3754C180.473 91.2408 180.751 91.8293 181.308 92.1755L177.83 92.2101C178.386 91.8985 178.665 91.2754 178.665 90.41L178.595 77.8095H175.639C175.082 77.8095 174.665 77.8787 174.421 77.9479C174.108 78.0864 173.795 78.3287 173.482 78.7441L173.795 76.494L185.203 76.4248L185.551 78.7095Z" fill="#D79F4E"/>
<path d="M194.665 92.1062L191.222 92.1408C191.778 91.7947 192.021 91.2062 192.021 90.3408L191.952 78.2595C191.952 77.3941 191.674 76.8056 191.117 76.4594L194.56 76.4248C194.004 76.771 193.726 77.3941 193.726 78.2249L193.795 90.3062C193.83 91.1716 194.108 91.7601 194.665 92.1062Z" fill="#D79F4E"/>
<path d="M214.037 89.994L213.585 91.9671C212.611 92.1748 211.498 92.2787 210.246 92.2787C207.498 92.2787 205.272 91.5517 203.568 90.0978C201.864 88.6093 201.029 86.6708 200.994 84.2476C200.994 81.8244 201.829 79.8513 203.498 78.3281C205.168 76.805 207.359 76.0434 210.072 76.0088C211.011 76.0088 211.95 76.078 212.924 76.2857L213.167 78.2243C211.95 77.6358 210.767 77.3588 209.55 77.3588C207.568 77.3588 206.002 78.0166 204.82 79.2628C203.637 80.509 203.046 82.1706 203.046 84.1784C203.046 86.1861 203.707 87.8131 205.029 89.0593C206.35 90.3055 208.055 90.9286 210.176 90.894C211.602 90.9633 212.889 90.6171 214.037 89.994Z" fill="#D79F4E"/>
<path d="M230 87.3631C230 88.8863 229.443 90.0632 228.296 90.9286C227.148 91.7941 225.583 92.2441 223.565 92.2441C222.244 92.2441 221.026 92.1056 219.879 91.7941L219.635 91.7248L219.322 89.1978C220.505 90.3402 222.105 90.9286 224.052 90.9286C225.304 90.9286 226.313 90.6171 227.043 90.0286C227.774 89.4401 228.156 88.6439 228.156 87.64C228.156 86.8439 227.878 86.2208 227.287 85.7707C226.835 85.39 225.791 84.9399 224.157 84.3514C222.905 83.9014 221.966 83.486 221.305 83.0706C220.227 82.4129 219.67 81.4782 219.67 80.3013C219.67 78.9512 220.157 77.8781 221.131 77.1512C222.105 76.4242 223.531 76.0088 225.304 76.0088C226.209 76.0088 227.252 76.1126 228.435 76.3203L228.713 78.3973C227.496 77.6704 226.244 77.2896 224.957 77.2896C223.913 77.2896 223.079 77.5319 222.452 77.982C221.826 78.432 221.513 79.0551 221.548 79.8166C221.548 80.3705 221.757 80.8551 222.139 81.2359C222.626 81.7206 223.67 82.2398 225.27 82.8283C226.974 83.4168 228.122 83.9707 228.713 84.4553C229.548 85.1822 230 86.1515 230 87.3631Z" fill="#D79F4E"/>
<path d="M87.8906 0.709987L88.2037 58.797L146.008 58.4855L145.695 0.398438L87.8906 0.709987ZM95.3336 39.5847V38.2C95.6118 38.2346 96.2031 38.2346 96.8639 37.8884C97.003 37.8192 97.6639 37.4384 98.0812 36.6423C98.1508 36.5038 98.1855 36.3999 98.2203 36.2961C98.3247 36.0191 98.3594 35.7076 98.3594 35.396L98.2899 16.1837L98.2551 11.1989C98.2551 11.0604 98.2551 10.2642 97.7334 9.67575C97.1074 8.94879 95.5423 9.05264 95.4379 9.05264C95.4379 8.98341 95.4379 8.67186 95.4379 8.56801L104.933 8.49877V8.98341C104.829 8.98341 103.263 8.91417 102.637 9.64113C102.081 10.2988 102.116 11.0604 102.116 11.1643L102.15 16.1491C102.185 21.307 102.22 30.9305 102.22 30.9305C102.22 31.4151 102.394 33.0767 101.942 34.1152C101.768 34.5306 101.42 34.9806 100.481 35.6384C99.6811 36.1922 99.1942 36.4345 98.7768 36.8499C98.5334 37.0923 97.7682 37.7154 98.2551 38.0962C98.4638 38.2346 98.7073 38.2 98.9507 38.2L108.55 38.1308C108.585 38.5808 108.654 39.0308 108.759 39.5154L95.3336 39.5847ZM138.67 30.3766H138.148C137.765 29.0266 137.209 27.815 136.478 26.638C135.748 25.461 134.879 24.4571 133.87 23.5917C132.861 22.7263 131.748 22.0686 130.496 21.5493C129.244 21.0647 127.923 20.8224 126.531 20.8224C124.584 20.8224 122.81 21.2031 121.28 22.0686C117.002 24.5264 114.567 29.2343 114.045 34.046C113.593 38.4077 114.741 42.7694 117.558 46.1273C118.671 47.4773 120.097 48.5504 121.662 49.2774C123.227 50.0043 125.001 50.2467 126.705 50.2467C128.166 50.2467 129.557 50.0736 130.844 49.5197C132.131 48.9658 133.244 48.2735 134.253 47.4081C135.226 46.5427 136.061 45.5388 136.757 44.3964C137.452 43.2541 137.939 41.8694 138.078 40.9001H138.53L138.565 50.1082H138.113C138.113 49.6928 138.044 49.2428 137.904 48.8274C137.765 48.3773 137.452 47.9619 136.965 47.8235C136.305 47.6504 135.505 48.1004 135.018 48.412C133.766 49.2082 132.687 49.8313 131.331 50.212C127.47 51.4236 123.123 51.1813 119.332 49.8659C115.68 48.585 112.863 45.8849 111.367 42.354C109.28 37.3692 109.698 31.4497 112.55 26.8111C114.428 23.7648 117.384 21.5839 120.897 20.6147C125.001 19.5069 129.662 19.7146 133.522 21.5493C134.113 21.8263 134.635 22.1724 135.192 22.484C135.678 22.7609 136.409 23.2109 137 23.0725C137.348 23.0032 137.626 22.6917 137.765 22.4147C138.009 21.9993 138.078 21.5493 138.044 20.9954C138.044 20.9954 138.044 20.857 138.044 20.8224H138.565L138.67 30.3766ZM121.21 35.1883H121.732L121.766 39.4462L115.958 39.4808C115.854 39.0308 115.784 38.5808 115.75 38.0962H116.306C117.489 38.0962 118.045 38.0961 118.741 38.0615C118.81 38.0615 118.914 38.0615 118.984 38.0615C119.401 38.0269 119.784 37.9577 120.132 37.7154C120.688 37.3346 121.036 36.7461 121.175 36.0538C121.21 35.7768 121.21 35.1883 121.21 35.1883Z" fill="#D79F4E"/>
</svg>
