<svg width="66" height="64" viewBox="0 0 66 64" fill="none" xmlns="http://www.w3.org/2000/svg">
<g clip-path="url(#clip0_468_1781)">
<path d="M-85.2299 99.9291L-86.0069 102.445L-97.5609 102.522C-96.9388 102.135 -96.6658 101.476 -96.6658 100.509L-96.7446 86.9963C-96.7446 86.0292 -97.0556 85.3704 -97.6777 84.9832L-93.8268 84.9438C-94.449 85.3323 -94.76 86.0292 -94.76 86.9583L-94.6826 101.013L-89.1976 100.974C-88.1856 100.974 -87.4467 100.896 -86.9414 100.743C-86.5135 100.626 -86.0069 100.354 -85.4241 99.9684L-85.2299 99.9291ZM-65.466 84.8284C-66.0881 85.2155 -66.3992 85.9123 -66.3992 86.8414L-66.3612 95.437C-66.3612 96.9855 -66.516 98.1483 -66.8271 98.9606C-67.2943 100.122 -68.0333 101.052 -69.1227 101.71C-70.2121 102.369 -71.4957 102.716 -73.013 102.716C-75.3086 102.716 -77.1369 102.058 -78.4599 100.665C-79.0426 100.045 -79.4705 99.3871 -79.6648 98.6128C-79.8984 97.8386 -80.0152 96.7533 -80.0152 95.3596L-80.0546 86.9189C-80.0546 85.9517 -80.3657 85.2929 -80.9878 84.9058L-77.1369 84.8678C-77.759 85.2549 -78.0701 85.9517 -78.0701 86.8808L-78.0307 95.3216C-78.0307 97.1023 -77.759 98.4186 -77.2143 99.2322C-76.3192 100.626 -74.8807 101.283 -72.8568 101.283C-71.3015 101.283 -70.0559 100.819 -69.1227 99.9291C-68.1895 99.038 -67.7616 97.8372 -67.7997 96.3661V95.2048L-67.839 86.8034C-67.839 85.8349 -68.1515 85.1775 -68.8116 84.7903L-65.466 84.8284ZM-43.4908 102.214L-47.7315 102.252C-47.4979 102.058 -47.3417 101.825 -47.3417 101.555C-47.3417 101.361 -47.4585 101.128 -47.6133 100.819L-52.0483 94.6628L-56.5227 100.819C-56.7563 101.128 -56.8732 101.4 -56.8732 101.632C-56.8732 101.825 -56.7563 102.02 -56.5607 102.29L-60.3736 102.329C-60.0042 102.157 -59.6526 101.95 -59.3236 101.71C-58.8957 101.361 -58.5453 100.974 -58.2342 100.586L-53.0209 93.3846L-57.7669 86.726C-58.3116 85.9898 -58.9351 85.3704 -59.6741 84.9438L-59.7909 84.8284L-55.5895 84.789C-55.6976 84.8705 -55.7854 84.976 -55.846 85.0971C-55.9065 85.2182 -55.9382 85.3517 -55.9386 85.4872C-55.9386 85.6801 -55.8612 85.9123 -55.6669 86.222L-51.7767 91.6826L-47.8483 86.2614C-47.6147 85.9123 -47.4585 85.642 -47.4979 85.4478C-47.4979 85.2549 -47.6147 85.0606 -47.8089 84.7903L-43.9961 84.7509C-44.3659 84.9226 -44.7181 85.13 -45.0474 85.3704C-45.4577 85.71 -45.8232 86.1002 -46.1355 86.5317L-50.8041 92.9594L-45.5527 100.354C-45.008 101.128 -44.3465 101.748 -43.6456 102.135L-43.4908 102.214ZM-25.7495 99.58L-26.5264 102.097L-37.73 102.174C-37.1079 101.787 -36.8363 101.128 -36.8363 100.161L-36.9137 86.6486C-36.9137 85.6801 -37.2247 85.0226 -37.8469 84.6341L-27.3061 84.5581L-26.9543 86.8034L-27.1105 86.726C-27.862 86.2724 -28.7226 86.0315 -29.6004 86.0291L-34.9685 86.0672L-34.9291 91.6812L-29.561 91.6432C-28.8995 91.6432 -28.4336 91.6038 -28.1999 91.4883L-28.0057 93.6943C-28.3548 93.424 -28.6278 93.2297 -28.822 93.1917C-29.0557 93.1143 -29.561 93.0749 -30.3393 93.1143L-34.8898 93.1523L-34.8517 100.703L-29.7172 100.664C-28.7446 100.664 -27.9649 100.586 -27.461 100.433C-27.0331 100.316 -26.5264 100.045 -25.9437 99.6588L-25.7495 99.58ZM5.95557 99.6968L5.45027 101.903C4.36088 102.135 3.11664 102.252 1.71483 102.252C-1.35773 102.252 -3.84757 101.438 -5.75332 99.8122C-7.65907 98.1469 -8.59226 95.979 -8.63301 93.2691C-8.63301 90.5592 -7.69848 88.3519 -5.83076 86.6486C-3.96439 84.9438 -1.51259 84.0921 1.52059 84.0541C2.57195 84.0541 3.62195 84.1315 4.71133 84.3638L4.98301 86.5317C3.62195 85.8743 2.29892 85.5646 0.937859 85.5646C-1.28031 85.5646 -3.02985 86.2995 -4.35287 87.6931C-5.6759 89.0868 -6.33605 90.9463 -6.33605 93.1917C-6.33605 95.437 -5.59848 97.2572 -4.11924 98.6509C-2.64137 100.045 -0.735619 100.743 1.63741 100.702C3.23346 100.781 4.67059 100.432 5.95557 99.6968ZM27.9689 93.0368C27.9689 95.6313 27.1131 97.7992 25.3636 99.5419C23.6127 101.283 21.4733 102.174 18.8666 102.212C16.3387 102.212 14.198 101.438 12.4091 99.8122C10.6582 98.1863 9.76437 96.1719 9.76437 93.7717V93.3071C9.76437 90.6366 10.5807 88.4293 12.2922 86.6866C14.0038 84.9438 16.1431 84.0541 18.7498 84.0541C21.3565 84.0541 23.5733 84.9058 25.3242 86.6092C27.0751 88.3125 27.9689 90.4424 27.9689 93.0368ZM25.7914 92.9974C25.7914 90.7915 25.1299 88.9713 23.8083 87.5777C22.4852 86.184 20.7724 85.4858 18.7118 85.4858C16.6878 85.4858 15.0551 86.222 13.8095 87.6157C12.5653 89.0487 11.9418 90.8689 11.9812 93.1523V93.5788C11.9812 95.7467 12.6427 97.4895 13.9644 98.8057C15.2874 100.123 16.9215 100.781 18.9834 100.781C21.0074 100.781 22.6781 100.045 23.9237 98.5734C25.1693 97.1404 25.7914 95.2822 25.7914 92.9974ZM45.9071 96.6378C45.9071 98.3412 45.285 99.6574 44.0014 100.626C42.7177 101.593 40.9668 102.097 38.7106 102.097C37.2327 102.097 35.8717 101.942 34.5867 101.594L34.315 101.516L33.9646 98.6902C35.2876 99.9671 37.0765 100.626 39.2553 100.626C40.6558 100.626 41.7832 100.277 42.6009 99.618C43.4173 98.9606 43.8452 98.0695 43.8452 96.9475C43.8452 96.0564 43.5341 95.3596 42.8726 94.8557C42.3673 94.4305 41.2005 93.9265 39.3721 93.2691C37.9717 92.7665 36.9217 92.3006 36.1814 91.8361C34.9765 91.1012 34.3531 90.0553 34.3531 88.739C34.3531 87.2286 34.8978 86.0291 35.9872 85.2155C37.0765 84.3638 38.6712 83.9387 40.6558 83.9387C41.6677 83.9387 42.8345 84.0541 44.1562 84.2864L44.4673 86.6092C43.1062 85.7955 41.7058 85.3704 40.2673 85.3704C39.0991 85.3704 38.1659 85.642 37.465 86.1446C36.7655 86.6472 36.415 87.3454 36.4544 88.1957C36.4544 88.8165 36.6881 89.3584 37.1159 89.785C37.6593 90.3256 38.8274 90.907 40.6164 91.5644C42.5235 92.2232 43.8071 92.8426 44.4673 93.3846C45.4018 94.1982 45.9071 95.2822 45.9071 96.6378ZM73.1351 101.593L69.5164 101.632C69.9443 101.283 70.178 100.741 70.178 100.084C70.178 99.8516 70.1386 99.5813 70.1386 99.3097L68.5439 86.9963L62.3974 102.02L56.0186 87.0737L54.5788 99.8897C54.5788 100.045 54.5394 100.199 54.5394 100.392C54.5394 100.858 54.773 101.323 55.2009 101.748H52.0509C52.6336 101.4 52.9841 100.702 53.1009 99.6968L54.5394 86.6092C54.5788 86.1446 54.6182 85.8349 54.6182 85.604C54.6182 85.1 54.3845 84.5961 53.8792 84.1696H56.9518L62.631 97.4121L68.0386 84.1315H71.0731C70.5678 84.5187 70.3342 85.0607 70.3342 85.6801C70.3342 85.9123 70.3722 86.1446 70.3722 86.4543L72.0837 99.4265C72.1625 100.045 72.2793 100.509 72.3568 100.741C72.4736 100.896 72.7452 101.206 73.1351 101.593ZM91.4591 98.9606L90.6808 101.478L79.4772 101.555C80.0993 101.168 80.3723 100.509 80.3723 99.5406L80.2935 86.0291C80.2935 85.0606 79.9825 84.4019 79.3604 84.0147L89.9025 83.9373L90.2529 86.184L90.0967 86.1066C89.3453 85.6526 88.4847 85.4113 87.6068 85.4084L82.2387 85.4478L82.2781 91.0618L87.6462 91.0238C88.3078 91.0238 88.775 90.9844 89.0073 90.8689L89.2029 93.0749C88.8524 92.8032 88.5794 92.6103 88.3852 92.5723C88.1515 92.4949 87.6462 92.4555 86.8679 92.4949L82.3175 92.5329L82.3555 100.084L87.49 100.045C88.4626 100.045 89.2409 99.9671 89.7476 99.8136C90.1755 99.6954 90.6808 99.4251 91.2635 99.038L91.4591 98.9606ZM109.859 86.3389C109.471 85.8743 109.12 85.6026 108.77 85.4478C108.459 85.3323 108.031 85.2929 107.409 85.2929H104.103L104.18 99.3871C104.18 100.354 104.491 101.013 105.113 101.4L101.223 101.438C101.846 101.09 102.157 100.392 102.157 99.4251L102.079 85.3323H98.7724C98.1503 85.3323 97.683 85.4097 97.4114 85.4872C97.0609 85.642 96.7105 85.9123 96.3614 86.3769L96.7104 83.8599L109.471 83.7825L109.859 86.3389ZM120.051 101.323L116.2 101.361C116.822 100.974 117.095 100.315 117.095 99.3477L117.016 85.8349C117.016 84.8678 116.705 84.209 116.083 83.8218L119.934 83.7825C119.312 84.1696 119.001 84.8678 119.001 85.7969L119.078 99.3097C119.118 100.277 119.429 100.936 120.051 101.323ZM141.72 98.9606L141.215 101.168C140.126 101.399 138.882 101.516 137.481 101.516C134.407 101.516 131.917 100.703 130.012 99.0774C128.106 97.412 127.173 95.2441 127.133 92.5329C127.133 89.823 128.066 87.6157 129.934 85.9123C131.802 84.209 134.252 83.3573 137.287 83.3179C138.337 83.3179 139.387 83.3953 140.476 83.6276L140.748 85.7969C139.387 85.1381 138.064 84.8284 136.703 84.8284C134.486 84.8284 132.735 85.5646 131.412 86.9583C130.089 88.3519 129.429 90.2101 129.429 92.4555C129.429 94.7022 130.168 96.521 131.646 97.916C133.124 99.3096 135.031 100.006 137.404 99.9671C138.908 100.04 140.403 99.6909 141.72 98.9606ZM159.576 96.0184C159.576 97.7218 158.954 99.038 157.669 100.006C156.385 100.974 154.636 101.478 152.379 101.478C150.9 101.478 149.539 101.323 148.255 100.975L147.982 100.896L147.633 98.0708C148.955 99.3477 150.745 100.006 152.924 100.006C154.325 100.006 155.452 99.6574 156.268 99C157.086 98.3412 157.514 97.4514 157.514 96.3281C157.514 95.437 157.203 94.7402 156.541 94.2362C156.036 93.8111 154.868 93.3085 153.04 92.6497C151.639 92.1471 150.589 91.6812 149.85 91.2167C148.644 90.4818 148.022 89.4372 148.022 88.1196C148.022 86.6092 148.567 85.4097 149.656 84.5961C150.745 83.7824 152.34 83.3193 154.325 83.3193C155.335 83.3193 156.502 83.4347 157.825 83.667L158.136 85.9898C156.775 85.1775 155.375 84.7509 153.935 84.7509C152.768 84.7509 151.835 85.0226 151.134 85.5252C150.434 86.0278 150.084 86.726 150.123 87.5763C150.123 88.1971 150.355 88.739 150.783 89.1656C151.328 89.7075 152.496 90.2876 154.285 90.945C156.191 91.6038 157.475 92.2232 158.136 92.7652C159.069 93.5788 159.576 94.6628 159.576 96.0184ZM0.62545 -0.902005L0.974541 64.0675L65.6275 63.7184L65.2784 -1.2511L0.62545 -0.902005ZM8.94936 42.5785V41.03C9.5419 41.0867 10.1379 40.9651 10.6609 40.6809C10.8171 40.6035 11.556 40.1783 12.0219 39.2873C12.1007 39.1324 12.1387 39.0156 12.1781 38.9001C12.295 38.5904 12.333 38.2413 12.333 37.8936L12.2556 16.4046L12.2162 10.8286C12.2162 10.6738 12.2162 9.78271 11.6321 9.12527C10.9325 8.31299 9.183 8.42844 9.06482 8.42844V7.88647L19.687 7.80904V8.35102C19.5689 8.35102 17.818 8.27359 17.1184 9.08724C16.4963 9.8221 16.5343 10.6738 16.5343 10.7906L16.5737 16.3652C16.6131 22.1355 16.6512 32.899 16.6512 32.899C16.6512 33.4409 16.8454 35.2992 16.3401 36.4605C16.1459 36.9251 15.756 37.429 14.706 38.1639C13.8122 38.7833 13.2662 39.055 12.8003 39.5195C12.5286 39.7912 11.6728 40.4867 12.2162 40.9132C12.4498 41.068 12.7228 41.03 12.9945 41.03L23.7308 40.9526C23.7716 41.4552 23.8477 41.9577 23.9645 42.5011L8.94936 42.5785ZM57.4204 32.2796H56.8363C56.4155 30.8038 55.7866 29.3956 54.9686 28.0972C54.1781 26.8176 53.1938 25.6683 52.0509 24.6905C50.9235 23.722 49.6779 22.9872 48.2774 22.4058C46.8631 21.8608 45.3595 21.5849 43.8438 21.5921C41.665 21.5921 39.6805 22.0187 37.969 22.9872C33.1849 25.7351 30.4614 31.0014 29.8773 36.3831C29.372 41.2623 30.6557 46.1401 33.807 49.8959C35.0559 51.3971 36.6239 52.6008 38.3969 53.4194C40.1478 54.2331 42.1323 54.5034 44.038 54.5034C45.6721 54.5034 47.2274 54.3105 48.6673 53.6897C50.0515 53.1033 51.3371 52.307 52.4788 51.3289C53.5682 50.3605 54.5027 49.2371 55.2797 47.9603C56.058 46.6834 56.6027 45.1336 56.7589 44.0482H57.2642L57.3036 54.3485H56.797C56.797 53.884 56.7195 53.38 56.5647 52.9155C56.4085 52.4129 56.058 51.9484 55.5133 51.7935C54.7744 51.5993 53.8792 52.1032 53.3359 52.4509C51.9354 53.342 50.7292 54.0388 49.212 54.4654C44.8938 55.8196 40.0309 55.5493 35.7915 54.0782C31.7057 52.6452 28.5557 49.6256 26.8822 45.6755C24.5486 40.1009 25.0158 33.479 28.2052 28.2915C30.3052 24.8834 33.6114 22.4452 37.5411 21.3599C42.1323 20.121 47.3443 20.3547 51.6624 22.4058C52.3239 22.7155 52.9067 23.1026 53.5301 23.4517C54.0748 23.7614 54.8912 24.264 55.5527 24.1091C55.9412 24.0317 56.2522 23.684 56.4084 23.3743C56.6801 22.9097 56.7589 22.4058 56.7195 21.7864V21.5921H57.3036L57.4204 32.2796ZM37.8915 37.6613H38.4756L38.5137 42.4237L32.0181 42.4617C31.8995 41.9525 31.8214 41.4347 31.7844 40.9132H32.4066C33.7296 40.9132 34.3517 40.9132 35.13 40.8752H35.4017C35.869 40.8358 36.2969 40.7583 36.6853 40.4867C37.3075 40.0615 37.6973 39.4027 37.8535 38.6285C37.8915 38.3188 37.8915 37.6613 37.8915 37.6613Z" fill="#CC9755"/>
</g>
<defs>
<clipPath id="clip0_468_1781">
<rect width="64.5071" height="63.8421" fill="white" transform="translate(0.746094 0.0789795)"/>
</clipPath>
</defs>
</svg>
