<svg width="80" height="25" viewBox="0 0 80 25" fill="none" xmlns="http://www.w3.org/2000/svg">
<path d="M6.19922 2.95039H12.7992C13.3992 2.95039 15.1992 2.75039 15.9992 5.55039C16.5992 7.35039 17.3992 10.1504 18.5992 14.3504H18.9992C20.1992 9.95039 21.1992 6.95039 21.5992 5.55039C22.3992 2.75039 24.3992 2.95039 25.1992 2.95039H31.3992V22.1504H24.9992V10.7504H24.5992L21.1992 22.1504H16.3992L12.9992 10.7504H12.3992V22.1504H6.19922M33.9992 2.95039H40.3992V14.3504H40.9992L45.1992 4.95039C45.9992 3.15039 47.7992 2.95039 47.7992 2.95039H53.7992V22.1504H47.3992V10.7504H46.9992L42.7992 20.1504C41.9992 21.9504 39.9992 22.1504 39.9992 22.1504H33.9992M62.3992 16.3504V22.1504H56.3992V12.1504H75.9992C75.1992 14.5504 72.3992 16.3504 69.1992 16.3504" fill="white"/>
<path d="M76.4 10.9502C77.2 7.3502 74.8 2.9502 69.6 2.9502H56C56.4 7.1502 60 10.9502 63.8 10.9502" fill="white"/>
</svg>
