<?xml version="1.0" encoding="utf-8"?><svg xmlns="http://www.w3.org/2000/svg" xmlns:xlink="http://www.w3.org/1999/xlink"><symbol fill="none" viewBox="0 0 24 24" id="accordeon-angle" xmlns="http://www.w3.org/2000/svg">
    <path d="m16 10-4 4-4-4" stroke="#CA853F" stroke-width="2" stroke-linecap="round" stroke-linejoin="round"/>
</symbol><symbol fill="none" viewBox="0 0 65 64" id="add-plus" xmlns="http://www.w3.org/2000/svg">
    <path d="M21.662 32h10.666m0 0h10.667m-10.667 0v10.667m0-10.667V21.333m0 34.667c-13.255 0-24-10.745-24-24s10.745-24 24-24 24 10.745 24 24-10.745 24-24 24Z" stroke="currentColor" stroke-width="2" stroke-linecap="round" stroke-linejoin="round"/>
</symbol><symbol fill="none" viewBox="0 0 24 24" id="angle-bottom" xmlns="http://www.w3.org/2000/svg">
    <path d="m16 10-4 4-4-4" stroke="#CC9755" stroke-width="2" stroke-linecap="round" stroke-linejoin="round"/>
</symbol><symbol fill="currentColorone" viewBox="0 0 24 24" id="angle-bottom-filter" xmlns="http://www.w3.org/2000/svg">
    <path d="m16 10-4 4-4-4" stroke="currentColor" stroke-width="2" stroke-linecap="round" stroke-linejoin="round" fill="none"/>
</symbol><symbol fill="none" viewBox="0 0 24 24" id="angle-right" xmlns="http://www.w3.org/2000/svg">
    <path d="m10 8 4 4-4 4" stroke="#CC9755" stroke-width="2" stroke-linecap="round" stroke-linejoin="round"/>
</symbol><symbol fill="none" viewBox="0 0 10 6" id="angle-select" xmlns="http://www.w3.org/2000/svg">
    <path d="M8.369.224a1 1 0 0 1 1.406 1.407l-.068.076-4 4a1 1 0 0 1-1.338.068l-.076-.068-4-4-.069-.076A1 1 0 0 1 1.631.224l.076.069L5 3.586 8.293.293l.076-.069Z" fill="#CC9755"/>
</symbol><symbol fill="currentColor" viewBox="0 0 24 24" id="arrow-left" xmlns="http://www.w3.org/2000/svg">
    <path fill-rule="evenodd" clip-rule="evenodd" d="M8.707 17.707a1 1 0 0 1-1.414 0l-5-5a1 1 0 0 1 0-1.414l5-5a1 1 0 0 1 1.414 1.414L5.414 11H21a1 1 0 1 1 0 2H5.414l3.293 3.293a1 1 0 0 1 0 1.414Z"/>
</symbol><symbol fill="none" viewBox="0 0 12 12" id="arrow-more" xmlns="http://www.w3.org/2000/svg">
    <path fill-rule="evenodd" clip-rule="evenodd" d="M7.646 3.146a.5.5 0 0 1 .708 0l2.5 2.5a.5.5 0 0 1 0 .708l-2.5 2.5a.5.5 0 1 1-.708-.708L9.293 6.5H1.5a.5.5 0 0 1 0-1h7.793L7.646 3.854a.5.5 0 0 1 0-.708Z" fill="#CC9755"/>
</symbol><symbol fill="currentColor" viewBox="0 0 24 24" id="arrow-right" xmlns="http://www.w3.org/2000/svg">
    <path fill-rule="evenodd" clip-rule="evenodd" d="M15.293 6.293a1 1 0 0 1 1.414 0l5 5a1 1 0 0 1 0 1.414l-5 5a1 1 0 0 1-1.414-1.414L18.586 13H3a1 1 0 1 1 0-2h15.586l-3.293-3.293a1 1 0 0 1 0-1.414Z"/>
</symbol><symbol fill="currentColor" viewBox="0 0 24 24" id="ask" xmlns="http://www.w3.org/2000/svg">
    <path d="M9.146 9.074a2.998 2.998 0 0 1 5.28-.838A3 3 0 0 1 12 13v1m0 7a9 9 0 1 1 0-18 9 9 0 0 1 0 18Zm.05-4v.1h-.1V17h.1Z" stroke="currentColor" stroke-width="2" stroke-linecap="round" stroke-linejoin="round" fill="none"/>
</symbol><symbol fill="none" viewBox="0 0 24 24" id="ava" xmlns="http://www.w3.org/2000/svg">
    <path d="M20 21c0-2.761-3.582-5-8-5s-8 2.239-8 5m8-8a5 5 0 1 1 0-10 5 5 0 0 1 0 10Z" stroke="#999" stroke-width="2" stroke-linecap="round" stroke-linejoin="round"/>
</symbol><symbol fill="none" viewBox="0 0 19 20" id="block" xmlns="http://www.w3.org/2000/svg">
    <path fill-rule="evenodd" clip-rule="evenodd" d="M17.501 2H1.5v16h16.001V2ZM0 .5v19h19.001V.5H0Z" fill="currentColor"/>
    <path fill-rule="evenodd" clip-rule="evenodd" d="M18.605 10.396H.396v-1.5h18.209v1.5Z" fill="currentColor"/>
    <path fill-rule="evenodd" clip-rule="evenodd" d="M9.502 19.5V1.29h1.5V19.5h-1.5Z" fill="currentColor"/>
</symbol><symbol fill="currentColor" viewBox="0 0 16 16" id="calendar" xmlns="http://www.w3.org/2000/svg">
    <path fill-rule="evenodd" clip-rule="evenodd" d="M5.333.667c.369 0 .667.298.667.667V2h4v-.666a.667.667 0 0 1 1.333 0V2c.306 0 .573.002.797.02.263.022.525.07.778.198.375.192.682.497.874.874.129.252.176.514.198.778.02.25.02.552.02.903v6.455c0 .351 0 .654-.02.903a2.034 2.034 0 0 1-.198.777 2.002 2.002 0 0 1-.874.875 2.037 2.037 0 0 1-.777.197c-.25.02-.553.02-.903.02H4.772c-.35 0-.653 0-.903-.02a2.038 2.038 0 0 1-.777-.197 2 2 0 0 1-.874-.875 2.036 2.036 0 0 1-.198-.778C2 11.88 2 11.578 2 11.226V4.775c0-.352 0-.655.02-.905.022-.263.07-.526.198-.778a2 2 0 0 1 .874-.874c.252-.128.514-.176.778-.197.224-.019.49-.02.797-.02v-.667c0-.369.298-.667.666-.667ZM3.98 3.35c-.182.014-.249.04-.282.056a.666.666 0 0 0-.291.292c-.017.032-.042.1-.057.28a9.289 9.289 0 0 0-.016.689h9.334c0-.31-.003-.523-.016-.689-.015-.18-.04-.248-.057-.28a.667.667 0 0 0-.292-.292c-.033-.017-.1-.042-.28-.056a11.329 11.329 0 0 0-.822-.016H4.8c-.384 0-.632 0-.821.016ZM12.667 6H3.333v5.2c0 .385 0 .633.016.822.015.18.04.248.057.28a.667.667 0 0 0 .291.293c.033.016.1.041.28.056.19.015.437.016.82.016h6.405c.384 0 .631 0 .82-.016.18-.015.247-.04.28-.056a.668.668 0 0 0 .292-.292c.017-.033.042-.1.057-.28.015-.189.016-.437.016-.82V6Z"/>
</symbol><symbol fill="currentColor" viewBox="0 0 24 24" id="cart" xmlns="http://www.w3.org/2000/svg">
    <path d="M8 8h-.29c-.962 0-1.443 0-1.834.175a2 2 0 0 0-.847.718c-.237.356-.316.83-.475 1.78l-.933 5.6v.003c-.214 1.28-.32 1.921-.135 2.42.163.439.475.806.88 1.039C4.828 20 5.478 20 6.777 20h10.445c1.3 0 1.95 0 2.413-.265a2 2 0 0 0 .88-1.038c.184-.5.078-1.14-.136-2.42v-.003l-.934-5.6c-.158-.95-.237-1.425-.474-1.781a2 2 0 0 0-.847-.718C17.734 8 17.252 8 16.289 8H16M8 8h8M8 8a4 4 0 1 1 8 0" stroke="currentColor" stroke-width="2" stroke-linecap="round" stroke-linejoin="round" fill="none"/>
</symbol><symbol fill="none" viewBox="0 0 18 18" id="check" xmlns="http://www.w3.org/2000/svg">
    <path d="m4.5 9 3.182 3.182 6.363-6.364" stroke="#fff" stroke-width="2" stroke-linecap="round" stroke-linejoin="round"/>
</symbol><symbol fill="none" viewBox="0 0 18 18" id="check-black" xmlns="http://www.w3.org/2000/svg">
    <path d="m4.5 9 3.182 3.182 6.363-6.364" stroke="#000" stroke-width="2" stroke-linecap="round" stroke-linejoin="round"/>
</symbol><symbol fill="none" viewBox="0 0 16 16" id="circle-check" xmlns="http://www.w3.org/2000/svg">
    <path fill-rule="evenodd" clip-rule="evenodd" d="M7.999 2.667a5.333 5.333 0 1 0 0 10.666 5.333 5.333 0 0 0 0-10.666ZM1.332 8a6.667 6.667 0 1 1 13.333 0A6.667 6.667 0 0 1 1.332 8Zm9.138-1.805c.26.26.26.683 0 .943L7.803 9.805a.667.667 0 0 1-.942 0L5.527 8.47a.667.667 0 1 1 .943-.942l.862.862 2.195-2.196c.26-.26.683-.26.943 0Z" fill="#24BD22"/>
</symbol><symbol fill="currentColor" viewBox="0 0 24 24" id="close" xmlns="http://www.w3.org/2000/svg">
    <path d="m21 21-9-9m0 0L3 3m9 9 9-9m-9 9-9 9" stroke="currentColor" stroke-width="2" stroke-linecap="round" stroke-linejoin="round" fill="none"/>
</symbol><symbol fill="none" viewBox="0 0 24 24" id="close2" xmlns="http://www.w3.org/2000/svg">
    <circle cx="12" cy="12" r="12" fill="#F1F1F1"/>
    <path d="m16 16-4-4m0 0L8 8m4 4 4-4m-4 4-4 4" stroke="#999" stroke-width="2" stroke-linecap="round" stroke-linejoin="round"/>
</symbol><symbol fill="none" viewBox="0 0 18 19" id="dislike" xmlns="http://www.w3.org/2000/svg">
    <g clip-path="url(#ata)" fill="currentColor">
        <path d="M12.29 11.046V1.82c0-.733.246-.982.976-.987H16.758c.712.005.976.283.976.99v9.227c0 .72-.264.988-.976.988h-3.49c-.722 0-.979-.26-.979-.993ZM.265 7.144a1.511 1.511 0 0 1 .948-1.239l-.08-.082a1.509 1.509 0 0 1-.384-1.16A1.533 1.533 0 0 1 2.01 3.34a1.485 1.485 0 0 1-.375-1.135A1.546 1.546 0 0 1 3.195.833H8.11c1.253.037 2.492.282 3.665.726-.01.088-.014.176-.013.264v9.225c0 .138.01.275.032.41l-.347.303c-.111.092-.222.187-.33.285-.729.638-1.46 1.342-1.713 2.32-.09.4-.137.81-.138 1.222 0 .212-.016.424-.032.633 0 .098-.016.193-.024.291-.01.297-.053.593-.127.881-.148.498-.593.781-1.217.781a1.308 1.308 0 0 1-1.281-.834 6.578 6.578 0 0 1-.32-3.753c.113-.53.264-1.059.439-1.562.076-.249.156-.5.23-.752H2.459A1.546 1.546 0 0 1 .91 9.915a1.514 1.514 0 0 1 .386-1.159l.026-.029A1.514 1.514 0 0 1 .265 7.144Z"/>
    </g>
    <defs>
        <clipPath id="ata">
            <path fill="#fff" transform="rotate(-180 9 9.25)" d="M0 0h18v18H0z"/>
        </clipPath>
    </defs>
</symbol><symbol fill="none" viewBox="0 0 24 24" id="exit" xmlns="http://www.w3.org/2000/svg">
    <path d="m12 15 3-3m0 0-3-3m3 3H4m0-4.752V7.2c0-1.12 0-1.68.218-2.108.192-.377.497-.682.874-.874C5.52 4 6.08 4 7.2 4h9.6c1.12 0 1.68 0 2.107.218.377.192.683.497.875.874.218.427.218.987.218 2.105v9.607c0 1.118 0 1.677-.218 2.104a2.002 2.002 0 0 1-.875.874c-.427.218-.986.218-2.104.218H7.197c-1.118 0-1.678 0-2.105-.218a2 2 0 0 1-.874-.874C4 18.48 4 17.92 4 16.8v-.05" stroke="#999" stroke-width="2" stroke-linecap="round" stroke-linejoin="round"/>
</symbol><symbol fill="currentColor" viewBox="0 0 24 24" id="filter" xmlns="http://www.w3.org/2000/svg">
    <path d="M14 18h7M3 18h2m0 0a2.5 2.5 0 1 0 5 0 2.5 2.5 0 0 0-5 0Zm15-6h1M3 12h7m3-6h8m-8 0a2.5 2.5 0 1 0-5 0 2.5 2.5 0 0 0 5 0ZM3 6h1m12.5 8.5a2.5 2.5 0 1 1 0-5 2.5 2.5 0 0 1 0 5Z" stroke="currentColor" stroke-width="2" stroke-linecap="round" stroke-linejoin="round" fill="none"/>
</symbol><symbol fill="currentColor" viewBox="0 0 24 24" id="first" xmlns="http://www.w3.org/2000/svg">
    <path d="m17 16-4-4 4-4m-6 8-4-4 4-4" stroke="currentColor" stroke-width="2" stroke-linecap="round" stroke-linejoin="round" fill="none"/>
</symbol><symbol fill="none" viewBox="0 0 19 20" id="grid" xmlns="http://www.w3.org/2000/svg">
    <path fill-rule="evenodd" clip-rule="evenodd" d="M17.5 2h-16v16h16V2ZM0 .5v19h19V.5H0Z" fill="currentColor"/>
    <path fill-rule="evenodd" clip-rule="evenodd" d="M19 8.417H.79v-1.5h18.208v1.5Z" fill="currentColor"/>
    <path fill-rule="evenodd" clip-rule="evenodd" d="M7.125 19.5V1.292h1.5V19.5h-1.5Z" fill="currentColor"/>
</symbol><symbol fill="currentColor" viewBox="0 0 24 24" id="heart" xmlns="http://www.w3.org/2000/svg">
    <path d="M19.237 6.237a4.098 4.098 0 0 1 .135 5.654l-7.373 8.11-7.37-8.11a4.098 4.098 0 1 1 6.23-5.316L12 8l1.14-1.425a4.098 4.098 0 0 1 6.097-.338Z" stroke="currentColor" stroke-width="2" stroke-linecap="round" stroke-linejoin="round" fill="none"/>
</symbol><symbol fill="currentColor" viewBox="0 0 24 24" id="home" xmlns="http://www.w3.org/2000/svg">
    <path d="M20 17v-5.547c0-.535 0-.802-.065-1.05a1.999 1.999 0 0 0-.28-.618c-.145-.213-.345-.389-.748-.74l-4.8-4.2c-.746-.654-1.12-.98-1.54-1.105-.37-.11-.764-.11-1.135 0-.42.124-.792.45-1.538 1.103L5.093 9.044c-.402.352-.603.528-.747.741a2 2 0 0 0-.281.617C4 10.652 4 10.918 4 11.452v5.549c0 .931 0 1.397.152 1.765a2 2 0 0 0 1.082 1.083C5.602 20 6.068 20 7 20s1.398 0 1.766-.152a2 2 0 0 0 1.082-1.083C10 18.398 10 17.932 10 17v-1a2 2 0 1 1 4 0v1c0 .931 0 1.397.152 1.765a2 2 0 0 0 1.082 1.083C15.602 20 16.068 20 17 20s1.398 0 1.766-.152a2 2 0 0 0 1.082-1.083C20 18.398 20 17.933 20 17Z" stroke="currentColor" stroke-width="2" stroke-linecap="round" stroke-linejoin="round" fill="none"/>
</symbol><symbol fill="none" viewBox="0 0 17 16" id="info" xmlns="http://www.w3.org/2000/svg">
    <path d="M13.66 8A5.333 5.333 0 1 0 2.993 8 5.333 5.333 0 0 0 13.66 8Zm-5.3 1.634c.368 0 .667.299.667.667v.066a.667.667 0 0 1-.67.667h-.066a.667.667 0 0 1-.664-.667v-.066c0-.368.298-.667.667-.667h.066Zm-.7-1.333V5.634a.667.667 0 1 1 1.333 0v2.667a.667.667 0 0 1-1.333 0Zm7.333-.3A6.667 6.667 0 1 1 1.66 8a6.667 6.667 0 0 1 13.333 0Z" fill="currentColor"/>
</symbol><symbol fill="currentColor" viewBox="0 0 24 24" id="last" xmlns="http://www.w3.org/2000/svg">
    <path d="m7 8 4 4-4 4m6-8 4 4-4 4" stroke="currentColor" stroke-width="2" stroke-linecap="round" stroke-linejoin="round" fill="none"/>
</symbol><symbol fill="none" viewBox="0 0 18 19" id="like" xmlns="http://www.w3.org/2000/svg">
    <g clip-path="url(#bca)" fill="currentColor">
        <path d="M5.71 7.954v9.225c0 .733-.246.982-.976.987H1.242c-.712-.005-.976-.283-.976-.99V7.95c0-.72.264-.988.976-.988h3.49c.722 0 .979.26.979.993ZM17.735 11.856a1.511 1.511 0 0 1-.948 1.239l.08.082a1.508 1.508 0 0 1 .384 1.16 1.533 1.533 0 0 1-1.26 1.323 1.486 1.486 0 0 1 .375 1.135 1.546 1.546 0 0 1-1.561 1.372H9.89a11.277 11.277 0 0 1-3.665-.726 2.05 2.05 0 0 0 .013-.264V7.952c0-.138-.01-.275-.032-.41l.347-.302c.111-.093.222-.188.33-.286.729-.638 1.46-1.342 1.713-2.32.09-.4.137-.81.138-1.222 0-.212.016-.424.032-.633 0-.098.016-.193.024-.291a4.19 4.19 0 0 1 .127-.881c.148-.498.593-.781 1.217-.781a1.308 1.308 0 0 1 1.281.834 6.577 6.577 0 0 1 .32 3.753c-.113.53-.264 1.059-.439 1.562-.076.249-.156.5-.23.752h4.474a1.546 1.546 0 0 1 1.55 1.358 1.515 1.515 0 0 1-.386 1.159l-.026.029a1.514 1.514 0 0 1 1.056 1.583Z"/>
    </g>
    <defs>
        <clipPath id="bca">
            <path fill="#fff" transform="translate(0 .5)" d="M0 0h18v18H0z"/>
        </clipPath>
    </defs>
</symbol><symbol fill="none" viewBox="0 0 24 24" id="logout" xmlns="http://www.w3.org/2000/svg">
    <path d="m12 15 3-3m0 0-3-3m3 3H4m5-4.751V7.2c0-1.12 0-1.68.218-2.108.192-.377.497-.682.874-.874C10.52 4 11.08 4 12.2 4h4.6c1.12 0 1.68 0 2.107.218.377.192.683.497.875.874.218.427.218.987.218 2.105v9.607c0 1.118 0 1.677-.218 2.104a2.002 2.002 0 0 1-.875.874c-.427.218-.986.218-2.104.218h-4.606c-1.118 0-1.678 0-2.105-.218a2 2 0 0 1-.874-.874C9 18.48 9 17.92 9 16.8v-.05" stroke="#CC9755" stroke-width="2" stroke-linecap="round" stroke-linejoin="round"/>
</symbol><symbol fill="currentColor" viewBox="0 0 24 24" id="menu" xmlns="http://www.w3.org/2000/svg">
    <path d="M3 15h18M3 9h18" stroke="currentColor" stroke-width="2" stroke-linecap="round" stroke-linejoin="round" fill="none"/>
</symbol><symbol fill="none" viewBox="0 0 24 24" id="minus" xmlns="http://www.w3.org/2000/svg">
    <path d="M8 12h8m-4 9a9 9 0 1 1 0-18 9 9 0 0 1 0 18Z" stroke="currentColor" stroke-width="2" stroke-linecap="round" stroke-linejoin="round"/>
</symbol><symbol fill="currentColor" viewBox="0 0 24 24" id="next" xmlns="http://www.w3.org/2000/svg">
    <path d="m10 8 4 4-4 4" stroke="currentColor" stroke-width="2" stroke-linecap="round" stroke-linejoin="round" fill="none"/>
</symbol><symbol fill="none" viewBox="0 0 16 17" id="pen" xmlns="http://www.w3.org/2000/svg">
    <path fill-rule="evenodd" clip-rule="evenodd" d="M10.255 2.84c.268-.086.556-.086.824 0 .193.063.34.17.457.268.106.09.221.206.34.324l1.19 1.19c.118.12.234.235.324.341.1.117.206.265.269.458.087.268.087.556 0 .824-.063.193-.17.34-.268.457-.09.106-.206.222-.325.34l-6.123 6.124h6.39a.667.667 0 0 1 0 1.333H2.667A.667.667 0 0 1 2 13.833v-2.667c0-.177.07-.346.195-.471l7.25-7.25.012-.012c.119-.119.234-.235.34-.325.117-.098.265-.205.458-.267ZM5.057 13.167H3.333v-1.724l7.049-7.048.003-.003c.14-.14.216-.216.275-.266l.007-.005a5.408 5.408 0 0 1 .281.27l1.16 1.16a5.501 5.501 0 0 1 .272.283l-.006.006c-.05.059-.124.134-.26.27l-7.057 7.057Z" fill="currentColor"/>
</symbol><symbol fill="none" viewBox="0 0 24 24" id="plus" xmlns="http://www.w3.org/2000/svg">
    <path d="M8 12h4m0 0h4m-4 0v4m0-4V8m0 13a9 9 0 1 1 0-18 9 9 0 0 1 0 18Z" stroke="currentColor" stroke-width="2" stroke-linecap="round" stroke-linejoin="round"/>
</symbol><symbol fill="currentColor" viewBox="0 0 24 24" id="prev" xmlns="http://www.w3.org/2000/svg">
    <path d="m14 16-4-4 4-4" stroke="currentColor" stroke-width="2" stroke-linecap="round" stroke-linejoin="round" fill="none"/>
</symbol><symbol fill="currentColor" viewBox="0 0 24 24" id="refresh" xmlns="http://www.w3.org/2000/svg">
    <path d="M14 16h5v5M10 8H5V3m14.418 6.003A8 8 0 0 0 5.086 7.976m-.504 7.021a8 8 0 0 0 14.331 1.027" stroke="currentColor" stroke-width="2" stroke-linecap="round" stroke-linejoin="round" fill="none"/>
</symbol><symbol fill="currentColor" viewBox="0 0 24 24" id="review" xmlns="http://www.w3.org/2000/svg">
    <path d="M7.51 19.802a9 9 0 1 0-3.312-3.312l.003.005c.073.127.11.191.127.252.016.057.02.108.016.168-.004.063-.025.129-.07.26l-.768 2.307-.001.003c-.162.487-.243.73-.186.892.05.142.163.253.304.304.162.057.404-.023.889-.185l.006-.002 2.306-.769c.131-.044.198-.066.262-.07.059-.004.11.001.167.017.06.017.125.054.253.127l.004.003Z" stroke="currentColor" stroke-width="2" stroke-linecap="round" stroke-linejoin="round" fill="none"/>
</symbol><symbol fill="currentColor" viewBox="0 0 24 24" id="search" xmlns="http://www.w3.org/2000/svg">
    <path d="m15 15 6 6m-11-4a7 7 0 1 1 0-14 7 7 0 0 1 0 14Z" stroke="currentColor" stroke-width="2" stroke-linecap="round" stroke-linejoin="round" fill="none"/>
</symbol><symbol fill="none" viewBox="0 0 24 24" id="search-brown" xmlns="http://www.w3.org/2000/svg">
    <path d="m15 15 6 6m-11-4a7 7 0 1 1 0-14 7 7 0 0 1 0 14Z" stroke="#CA853F" stroke-width="2" stroke-linecap="round" stroke-linejoin="round"/>
</symbol><symbol fill="none" viewBox="0 0 16 16" id="shield" xmlns="http://www.w3.org/2000/svg">
    <path fill-rule="evenodd" clip-rule="evenodd" d="M4.774 1.333h6.452c.351 0 .654 0 .904.02.263.022.525.07.778.198.375.192.682.497.874.874.129.252.176.514.198.778.02.249.02.552.02.903v2.67c0 4.788-3.636 6.92-5.108 7.585l-.007.004c-.16.072-.296.133-.546.176a2.14 2.14 0 0 1-.339.024 2.14 2.14 0 0 1-.338-.024 1.983 1.983 0 0 1-.554-.18C5.636 13.695 2 11.564 2 6.777v-2.67c0-.35 0-.654.02-.904.022-.263.07-.526.198-.778a2 2 0 0 1 .874-.874c.252-.128.514-.176.778-.197.25-.02.553-.02.904-.02Zm-.795 1.35c-.182.014-.249.04-.282.056a.666.666 0 0 0-.291.291c-.017.033-.042.1-.057.282-.015.189-.016.437-.016.821v2.644c0 3.97 2.988 5.765 4.325 6.37.08.036.108.048.134.057a.545.545 0 0 0 .208.027 1.445 1.445 0 0 0 .116-.005.523.523 0 0 0 .091-.021c.026-.01.053-.021.134-.057l.007-.004c1.34-.607 4.319-2.402 4.319-6.367V4.13c0-.383 0-.631-.016-.82-.015-.18-.04-.248-.057-.28a.667.667 0 0 0-.292-.292c-.033-.017-.1-.042-.28-.056a11.329 11.329 0 0 0-.822-.016H4.8c-.384 0-.632 0-.821.016Zm6.492 2.846c.26.26.26.682 0 .942L7.805 9.138a.667.667 0 0 1-.943 0L5.529 7.805a.667.667 0 1 1 .942-.943l.862.862L9.53 5.529c.26-.26.682-.26.942 0Z" fill="currentColor"/>
</symbol><symbol fill="none" viewBox="0 0 12 12" id="star" xmlns="http://www.w3.org/2000/svg">
    <path d="M1.167 5.168a.25.25 0 0 1 .14-.431l3.002-.356a.25.25 0 0 0 .197-.144l1.266-2.745a.25.25 0 0 1 .455 0l1.266 2.745a.25.25 0 0 0 .197.144l3.002.356a.25.25 0 0 1 .14.431l-2.22 2.053a.25.25 0 0 0-.074.232l.589 2.965a.25.25 0 0 1-.368.267L6.122 9.208a.25.25 0 0 0-.244 0L3.24 10.686a.25.25 0 0 1-.368-.267l.59-2.965a.25.25 0 0 0-.076-.232l-2.22-2.053Z" fill="currentColor"/>
</symbol><symbol fill="currentColor" viewBox="0 0 24 24" id="tg" xmlns="http://www.w3.org/2000/svg">
    <path fill-rule="evenodd" clip-rule="evenodd" d="M19.777 4.43a1.5 1.5 0 0 1 2.062 1.626L19.57 19.813c-.22 1.327-1.676 2.088-2.893 1.427-1.018-.553-2.53-1.405-3.89-2.294-.68-.445-2.763-1.87-2.507-2.884C10.5 15.195 14 11.937 16 10c.785-.761.427-1.2-.5-.5-2.302 1.738-5.998 4.381-7.22 5.125-1.078.656-1.64.768-2.312.656-1.226-.204-2.363-.52-3.291-.905-1.254-.52-1.193-2.244-.001-2.746l17.1-7.2Z"/>
</symbol><symbol fill="none" viewBox="0 0 32 33" id="tg2" xmlns="http://www.w3.org/2000/svg">
    <path d="M15.5 0C6.944 0 0 7.168 0 16s6.944 16 15.5 16C24.056 32 31 24.832 31 16S24.056 0 15.5 0Zm7.192 10.88c-.233 2.528-1.24 8.672-1.752 11.504-.216 1.2-.65 1.6-1.053 1.648-.9.08-1.582-.608-2.45-1.2-1.364-.928-2.139-1.504-3.456-2.4-1.534-1.04-.543-1.616.341-2.544.233-.24 4.2-3.968 4.278-4.304a.33.33 0 0 0-.078-.288c-.092-.08-.216-.048-.325-.032-.14.032-2.31 1.52-6.541 4.464-.62.432-1.178.656-1.674.64-.558-.016-1.612-.32-2.402-.592-.977-.32-1.737-.496-1.675-1.056.031-.288.419-.576 1.147-.88 4.527-2.032 7.534-3.376 9.037-4.016 4.309-1.856 5.193-2.176 5.782-2.176.123 0 .418.032.604.192a.643.643 0 0 1 .217.432c-.015.096.015.384 0 .608Z" fill="currentColor"/>
</symbol><symbol fill="none" viewBox="0 0 16 17" id="trash" xmlns="http://www.w3.org/2000/svg">
    <path fill-rule="evenodd" clip-rule="evenodd" d="M7.312 1.834h1.376c.292 0 .545 0 .754.014.22.015.44.048.657.138A2 2 0 0 1 11.18 3.07c.09.217.123.437.138.657l.006.108h2.008a.667.667 0 1 1 0 1.333h-.666v7.228c0 .35 0 .654-.02.903a2.032 2.032 0 0 1-.198.777 2.002 2.002 0 0 1-.875.875 2.037 2.037 0 0 1-.777.197c-.25.02-.552.02-.903.02H6.106c-.351 0-.654 0-.903-.02a2.038 2.038 0 0 1-.778-.197 2 2 0 0 1-.874-.875 2.036 2.036 0 0 1-.197-.778c-.02-.25-.02-.553-.02-.904V5.167h-.667a.667.667 0 0 1 0-1.333h2.008l.006-.108c.015-.22.048-.44.138-.657A2 2 0 0 1 5.9 1.986c.217-.09.437-.123.657-.138.21-.014.462-.014.754-.014Zm-1.302 2 .001-.017a.773.773 0 0 1 .04-.238.667.667 0 0 1 .36-.36.773.773 0 0 1 .238-.04c.158-.011.365-.012.684-.012h1.334c.32 0 .526 0 .684.011.152.01.21.029.237.04a.667.667 0 0 1 .361.361.773.773 0 0 1 .041.255H6.01ZM4.667 5.167v7.2c0 .385 0 .633.016.822.014.18.04.248.056.28a.668.668 0 0 0 .292.293c.032.016.1.041.28.056.189.016.437.016.82.016H9.87c.383 0 .631 0 .82-.016.18-.015.247-.04.28-.056a.669.669 0 0 0 .292-.292c.017-.033.042-.1.056-.28.016-.19.016-.437.016-.82V5.166H4.667Zm2 1.334c.368 0 .666.298.666.666v4.667a.667.667 0 1 1-1.333 0V7.167c0-.368.298-.666.667-.666Zm2.666 0c.369 0 .667.298.667.666v4.667a.667.667 0 1 1-1.333 0V7.167c0-.368.298-.666.666-.666Z" fill="#CA853F"/>
</symbol><symbol fill="currentColor" viewBox="0 0 24 24" id="user" xmlns="http://www.w3.org/2000/svg">
    <path d="M20 21c0-2.761-3.582-5-8-5s-8 2.239-8 5m8-8a5 5 0 1 1 0-10 5 5 0 0 1 0 10Z" stroke="currentColor" stroke-width="2" stroke-linecap="round" stroke-linejoin="round" fill="none"/>
</symbol><symbol fill="currentColor" viewBox="0 0 32 32" id="vk" xmlns="http://www.w3.org/2000/svg">
    <path d="M28.672 24.508h-3.043c-1.15 0-1.497-.932-3.56-2.996-1.802-1.737-2.564-1.953-3.02-1.953-.63 0-.802.173-.802 1.041v2.736c0 .74-.24 1.173-2.174 1.173A11.867 11.867 0 0 1 6.8 18.95 24.266 24.266 0 0 1 2 8.872c0-.456.173-.87 1.043-.87h3.04c.781 0 1.062.349 1.369 1.153 1.476 4.344 3.995 8.122 5.017 8.122.392 0 .563-.173.563-1.15v-4.475c-.13-2.041-1.213-2.213-1.213-2.952a.75.75 0 0 1 .78-.697h4.778c.654 0 .87.325.87 1.106v6.04c0 .652.28.868.477.868.392 0 .693-.216 1.412-.933a25.066 25.066 0 0 0 3.736-6.213 1.306 1.306 0 0 1 1.324-.867h3.041c.912 0 1.106.456.912 1.107a37.995 37.995 0 0 1-4.082 7.016c-.328.5-.459.76 0 1.346.301.456 1.368 1.347 2.084 2.194a13.536 13.536 0 0 1 2.562 3.56c.262.848-.173 1.281-1.041 1.281Z"/>
</symbol><symbol fill="none" viewBox="0 0 32 33" id="vk2" xmlns="http://www.w3.org/2000/svg">
    <path d="M16 .99C7.518.99.64 7.867.64 16.35S7.518 31.71 16 31.71c8.484 0 15.36-6.877 15.36-15.36S24.485.99 16 .99Zm5.908 17.33s1.358 1.34 1.693 1.963c.01.014.015.025.017.032.136.227.17.407.101.54-.112.22-.496.329-.627.338h-2.4c-.167 0-.515-.043-.938-.334-.325-.227-.645-.6-.957-.963-.465-.541-.868-1.008-1.275-1.008a.482.482 0 0 0-.152.024c-.307.099-.7.537-.7 1.705 0 .365-.289.575-.492.575H15.08c-.374 0-2.325-.131-4.053-1.954-2.115-2.232-4.019-6.709-4.035-6.75-.12-.29.128-.445.398-.445h2.424c.324 0 .43.197.503.371.086.203.403 1.011.923 1.92.843 1.482 1.36 2.083 1.774 2.083.078 0 .154-.02.223-.057.54-.301.44-2.229.416-2.629 0-.075-.002-.862-.279-1.24-.198-.274-.536-.378-.74-.416a.881.881 0 0 1 .318-.27c.371-.186 1.04-.213 1.704-.213h.37c.72.01.905.056 1.166.121.528.127.54.468.493 1.634-.015.331-.029.706-.029 1.147l-.005.307c-.016.594-.035 1.268.384 1.544a.32.32 0 0 0 .183.053c.145 0 .584 0 1.77-2.037.366-.656.684-1.337.953-2.038.024-.042.094-.17.177-.22a.48.48 0 0 1 .199-.046h2.85c.31 0 .523.047.563.167.07.19-.013.771-1.314 2.533l-.58.766c-1.18 1.546-1.18 1.624.073 2.797Z" fill="currentColor"/>
</symbol><symbol fill="currentColor" viewBox="0 0 32 32" id="vk_copy" xmlns="http://www.w3.org/2000/svg">
    <path d="M28.672 24.508h-3.043c-1.15 0-1.497-.932-3.56-2.996-1.802-1.737-2.564-1.953-3.02-1.953-.63 0-.802.173-.802 1.041v2.736c0 .74-.24 1.173-2.174 1.173A11.867 11.867 0 0 1 6.8 18.95 24.266 24.266 0 0 1 2 8.872c0-.456.173-.87 1.043-.87h3.04c.781 0 1.062.349 1.369 1.153 1.476 4.344 3.995 8.122 5.017 8.122.392 0 .563-.173.563-1.15v-4.475c-.13-2.041-1.213-2.213-1.213-2.952a.75.75 0 0 1 .78-.697h4.778c.654 0 .87.325.87 1.106v6.04c0 .652.28.868.477.868.392 0 .693-.216 1.412-.933a25.066 25.066 0 0 0 3.736-6.213 1.306 1.306 0 0 1 1.324-.867h3.041c.912 0 1.106.456.912 1.107a37.995 37.995 0 0 1-4.082 7.016c-.328.5-.459.76 0 1.346.301.456 1.368 1.347 2.084 2.194a13.536 13.536 0 0 1 2.562 3.56c.262.848-.173 1.281-1.041 1.281Z"/>
</symbol><symbol fill="currentColor" viewBox="0 0 32 32" id="whatsapp" xmlns="http://www.w3.org/2000/svg">
    <path d="M25.4 6.547a13.093 13.093 0 0 0-9.348-3.88C8.772 2.667 2.84 8.6 2.84 15.88c0 2.333.613 4.6 1.76 6.6l-1.867 6.853 7-1.84a13.217 13.217 0 0 0 6.32 1.614c7.28 0 13.214-5.934 13.214-13.214a13.13 13.13 0 0 0-3.867-9.346Zm-9.348 20.32c-1.973 0-3.906-.534-5.6-1.534l-.4-.24-4.16 1.094L7 22.133l-.267-.413a11.013 11.013 0 0 1-1.68-5.84c0-6.053 4.934-10.987 10.987-10.987A10.87 10.87 0 0 1 23.8 8.12a10.908 10.908 0 0 1 3.213 7.773c.027 6.054-4.906 10.974-10.96 10.974Zm6.027-8.214c-.333-.16-1.96-.96-2.253-1.08-.307-.106-.52-.16-.747.16-.227.334-.853 1.08-1.04 1.294-.187.226-.387.253-.72.08-.333-.16-1.4-.52-2.653-1.64-.987-.88-1.64-1.96-1.84-2.294-.187-.333-.027-.506.146-.68.147-.146.334-.386.494-.573.16-.187.226-.333.333-.547.107-.226.053-.413-.027-.573-.08-.16-.746-1.787-1.013-2.453-.267-.64-.547-.56-.747-.574h-.64c-.226 0-.573.08-.88.414-.293.333-1.146 1.133-1.146 2.76 0 1.626 1.186 3.2 1.346 3.413.16.227 2.334 3.56 5.64 4.987.787.346 1.4.546 1.88.693.787.253 1.507.213 2.08.133.64-.093 1.96-.8 2.227-1.573.28-.773.28-1.427.187-1.573-.094-.147-.294-.214-.627-.374Z"/>
</symbol><symbol fill="none" viewBox="0 0 32 33" id="youtube" xmlns="http://www.w3.org/2000/svg">
    <path d="m18.565 16.083-3.593-1.677c-.314-.145-.571.018-.571.365v3.158c0 .348.257.51.57.365l3.593-1.677c.315-.147.315-.387.001-.534ZM16.001.99C7.517.99.64 7.867.64 16.35S7.517 31.71 16 31.71c8.483 0 15.36-6.877 15.36-15.36S24.484.99 16 .99Zm0 21.6c-7.863 0-8-.709-8-6.24 0-5.531.137-6.24 8-6.24 7.862 0 8 .709 8 6.24 0 5.531-.138 6.24-8 6.24Z" fill="currentColor"/>
</symbol></svg>