<svg width="61" height="21" viewBox="0 0 61 21" fill="none" xmlns="http://www.w3.org/2000/svg">
<g clip-path="url(#clip0_478_4117)">
<path d="M39.7233 0.447266C35.3966 0.447266 31.5298 2.69751 31.5298 6.85407C31.5298 11.6214 38.3874 11.9506 38.3874 14.3459C38.3874 15.3544 37.2358 16.2571 35.2679 16.2571C32.4759 16.2571 30.3891 14.9958 30.3891 14.9958L29.4961 19.1909C29.4961 19.1909 31.9001 20.2564 35.0916 20.2564C39.8222 20.2564 43.545 17.896 43.545 13.6678C43.545 8.63003 36.6587 8.31057 36.6587 6.08787C36.6587 5.2978 37.6042 4.43247 39.566 4.43247C41.7796 4.43247 43.5852 5.34982 43.5852 5.34982L44.4594 1.29853C44.4594 1.29853 42.494 0.447266 39.7227 0.447266H39.7233ZM0.13617 0.753255L0.03125 1.36462C0.03125 1.36462 1.85149 1.69876 3.49117 2.36582C5.60238 3.13018 5.75244 3.5757 6.10807 4.95754L9.98218 19.9406H15.1757L23.1765 0.753255H17.9951L12.8541 13.7988L10.7563 2.74035C10.5641 1.47478 9.58934 0.752643 8.39679 0.752643H0.13678L0.13617 0.753255ZM25.2602 0.753255L21.1958 19.9406H26.1368L30.1866 0.753255H25.2602ZM52.8176 0.753255C51.6263 0.753255 50.9949 1.39338 50.5319 2.51147L43.2931 19.9406H48.4744L49.4766 17.0355H55.7889L56.3983 19.9406H60.9702L56.9821 0.753255H52.8176ZM53.4916 5.93732L55.0276 13.1372H50.9132L53.4923 5.93732H53.4916Z" fill="white"/>
</g>
<defs>
<clipPath id="clip0_478_4117">
<rect width="61" height="19.8697" fill="white" transform="translate(0 0.416016)"/>
</clipPath>
</defs>
</svg>
