<svg width="190" height="77" fill="none" xmlns="http://www.w3.org/2000/svg"><path d="M9.164 74.488l-.572 1.852-8.506.057c.458-.285.659-.77.659-1.482l-.058-9.948c0-.712-.229-1.197-.687-1.482l2.835-.029c-.458.286-.687.799-.687 1.483l.057 10.347 4.038-.029c.745 0 1.289-.057 1.661-.17.315-.086.688-.286 1.117-.57l.143-.03zm14.55-11.117c-.458.285-.687.798-.687 1.482l.028 6.328c0 1.14-.114 1.996-.343 2.594-.344.855-.888 1.54-1.69 2.024-.802.485-1.747.741-2.864.741-1.69 0-3.036-.485-4.01-1.51-.429-.457-.744-.941-.887-1.511-.172-.57-.258-1.369-.258-2.395l-.029-6.214c0-.712-.229-1.197-.687-1.482l2.835-.028c-.458.285-.687.798-.687 1.482l.029 6.214c0 1.311.2 2.28.601 2.879.659 1.026 1.718 1.51 3.208 1.51 1.145 0 2.062-.342 2.749-.997.687-.656 1.002-1.54.974-2.623v-.855l-.029-6.185c0-.713-.23-1.197-.716-1.482l2.463.028zM39.892 76.17l-3.122.028c.172-.143.287-.314.287-.513 0-.143-.086-.314-.2-.542l-3.265-4.532-3.294 4.532c-.172.228-.258.428-.258.599 0 .142.086.285.23.484l-2.807.029a4.6 4.6 0 00.773-.456c.315-.257.573-.542.802-.827l3.838-5.302-3.494-4.902c-.401-.542-.86-.998-1.404-1.312l-.086-.085 3.093-.029a.646.646 0 00-.257.514c0 .142.057.313.2.541l2.864 4.02 2.892-3.991c.172-.257.287-.456.258-.599 0-.142-.086-.285-.229-.484l2.807-.029a4.595 4.595 0 00-.774.456 4.646 4.646 0 00-.801.855l-3.437 4.732 3.866 5.444c.401.57.888 1.026 1.404 1.311l.114.057zm13.061-1.939l-.572 1.853-8.248.057c.458-.285.658-.77.658-1.482l-.057-9.948c0-.713-.229-1.197-.687-1.483l7.76-.056.259 1.653-.115-.057a3.566 3.566 0 00-1.833-.513l-3.952.028.029 4.133 3.952-.028c.487 0 .83-.029 1.002-.114l.143 1.624c-.257-.199-.458-.342-.601-.37-.172-.057-.544-.086-1.117-.057l-3.35.028.028 5.559 3.78-.029c.716 0 1.29-.057 1.661-.17.315-.086.688-.286 1.117-.57l.143-.058zm23.341.086l-.372 1.624c-.802.171-1.718.257-2.75.257-2.262 0-4.095-.599-5.498-1.796-1.403-1.226-2.09-2.822-2.12-4.817 0-1.995.688-3.62 2.063-4.874 1.374-1.255 3.179-1.882 5.412-1.91.774 0 1.547.057 2.349.228l.2 1.596c-1.002-.484-1.976-.712-2.978-.712-1.633 0-2.921.541-3.895 1.567-.974 1.026-1.46 2.395-1.46 4.048s.543 2.993 1.632 4.019c1.088 1.026 2.491 1.54 4.238 1.51 1.175.058 2.234-.199 3.18-.74zM92.5 69.414c0 1.91-.63 3.506-1.918 4.789-1.289 1.282-2.864 1.938-4.783 1.966-1.861 0-3.437-.57-4.754-1.767-1.289-1.197-1.947-2.68-1.947-4.447v-.342c0-1.966.601-3.591 1.861-4.874 1.26-1.283 2.835-1.938 4.754-1.938 1.919 0 3.551.627 4.84 1.881 1.289 1.254 1.948 2.822 1.948 4.732zm-1.603-.029c0-1.624-.487-2.964-1.46-3.99-.974-1.026-2.235-1.54-3.752-1.54-1.49 0-2.692.542-3.609 1.568-.916 1.055-1.375 2.395-1.346 4.076v.314c0 1.596.487 2.879 1.46 3.848.974.97 2.177 1.454 3.695 1.454 1.49 0 2.72-.542 3.637-1.625.917-1.055 1.375-2.423 1.375-4.105zm14.809 2.68c0 1.254-.458 2.223-1.403 2.936-.945.712-2.234 1.083-3.895 1.083-1.088 0-2.09-.114-3.036-.37l-.2-.058-.258-2.08c.974.94 2.291 1.425 3.895 1.425 1.031 0 1.861-.257 2.463-.742.601-.484.916-1.14.916-1.966 0-.656-.229-1.169-.716-1.54-.372-.313-1.231-.684-2.577-1.168-1.031-.37-1.804-.713-2.349-1.055-.887-.541-1.346-1.311-1.346-2.28 0-1.112.401-1.995 1.203-2.594.802-.627 1.976-.94 3.437-.94.745 0 1.604.085 2.577.256l.229 1.71c-1.002-.599-2.033-.912-3.092-.912-.86 0-1.547.2-2.063.57-.515.37-.773.884-.744 1.51 0 .457.172.856.487 1.17.4.398 1.26.826 2.577 1.31 1.404.485 2.349.941 2.835 1.34.688.599 1.06 1.397 1.06 2.395zm20.045 3.648l-2.664.029c.315-.257.487-.656.487-1.14 0-.171-.029-.37-.029-.57l-1.174-9.065-4.525 11.06-4.696-11.003-1.06 9.435c0 .114-.029.228-.029.37 0 .343.172.685.487.998h-2.319c.429-.256.687-.77.773-1.51l1.059-9.635c.029-.342.058-.57.058-.74 0-.371-.172-.742-.544-1.056h2.262l4.181 9.749 3.981-9.777h2.234c-.372.285-.544.684-.544 1.14 0 .171.028.342.028.57l1.26 9.55c.058.455.144.797.201.968.086.114.286.342.573.627zm13.49-1.938l-.573 1.853-8.248.057c.458-.285.659-.77.659-1.483l-.058-9.947c0-.713-.229-1.198-.687-1.483l7.761-.057.258 1.654-.115-.057a3.567 3.567 0 00-1.833-.514l-3.952.029.029 4.133 3.952-.028c.487 0 .831-.029 1.002-.114l.144 1.624c-.258-.2-.459-.342-.602-.37-.172-.057-.544-.086-1.117-.057l-3.35.028.028 5.559 3.78-.029c.716 0 1.289-.057 1.662-.17.315-.087.687-.286 1.116-.571l.144-.057zm13.546-9.292c-.286-.342-.544-.542-.802-.656-.229-.085-.544-.114-1.002-.114h-2.434l.057 10.376c0 .712.229 1.197.687 1.482l-2.864.028c.459-.256.688-.77.688-1.482l-.058-10.375h-2.434c-.458 0-.802.057-1.002.114-.258.114-.516.313-.773.655l.257-1.853 9.394-.057.286 1.882zm7.503 11.031l-2.835.028c.458-.285.659-.77.659-1.482l-.058-9.948c0-.712-.229-1.197-.687-1.482l2.835-.029c-.458.285-.687.799-.687 1.483l.057 9.948c.029.712.258 1.197.716 1.482zm15.953-1.739l-.372 1.625c-.802.17-1.718.256-2.749.256-2.263 0-4.096-.598-5.499-1.795-1.403-1.226-2.09-2.822-2.119-4.818 0-1.995.687-3.62 2.062-4.874 1.375-1.254 3.179-1.881 5.413-1.91.773 0 1.546.057 2.348.228l.2 1.597c-1.002-.485-1.976-.713-2.978-.713-1.632 0-2.921.542-3.895 1.568-.974 1.026-1.46 2.394-1.46 4.047 0 1.654.544 2.993 1.632 4.02 1.088 1.026 2.492 1.539 4.239 1.51a5.957 5.957 0 003.178-.74zm13.145-2.166c0 1.254-.458 2.223-1.404 2.936-.945.712-2.233 1.083-3.894 1.083-1.089 0-2.091-.114-3.036-.37l-.201-.058-.257-2.08c.973.94 2.291 1.425 3.895 1.425 1.031 0 1.861-.257 2.462-.741.602-.485.917-1.14.917-1.967 0-.656-.229-1.169-.716-1.54-.372-.313-1.232-.683-2.578-1.168-1.031-.37-1.804-.713-2.348-1.055-.888-.541-1.346-1.31-1.346-2.28 0-1.112.401-1.995 1.203-2.594.802-.599 1.976-.94 3.437-.94.744 0 1.603.085 2.577.256l.229 1.71c-1.002-.598-2.033-.912-3.093-.912-.859 0-1.546.2-2.062.57-.515.37-.773.884-.744 1.51 0 .457.171.856.486 1.17.401.399 1.261.826 2.578 1.31 1.403.485 2.348.941 2.835 1.34.687.599 1.06 1.397 1.06 2.395zM72.37.257l.257 47.83 47.597-.257L119.967 0 72.369.257zm6.128 32.01v-1.14a2.2 2.2 0 001.26-.257c.115-.057.659-.37 1.002-1.026.058-.114.086-.2.115-.285.086-.228.114-.485.114-.741l-.057-15.82-.029-4.105c0-.114 0-.77-.43-1.254-.515-.598-1.803-.513-1.89-.513v-.399l7.82-.057v.399c-.087 0-1.376-.057-1.891.542-.458.541-.43 1.168-.43 1.254l.029 4.104c.029 4.248.057 12.172.057 12.172 0 .399.143 1.767-.229 2.622-.143.342-.43.713-1.203 1.254-.658.456-1.06.656-1.403.998-.2.2-.83.712-.43 1.026.172.114.373.086.573.086l7.904-.057c.03.37.086.74.172 1.14l-11.054.057zm35.684-7.582h-.43a11.895 11.895 0 00-1.375-3.079 10.705 10.705 0 00-2.148-2.508c-.83-.713-1.747-1.254-2.778-1.682a8.958 8.958 0 00-3.264-.599c-1.604 0-3.065.314-4.325 1.027-3.522 2.023-5.527 5.9-5.957 9.862-.372 3.592.573 7.183 2.893 9.948a9.667 9.667 0 003.379 2.594c1.289.599 2.75.798 4.153.798 1.203 0 2.348-.142 3.408-.599a10.77 10.77 0 002.806-1.738c.802-.713 1.49-1.54 2.062-2.48.573-.94.974-2.081 1.089-2.88h.372l.029 7.583h-.373c0-.342-.057-.713-.171-1.055-.115-.37-.373-.712-.774-.826-.544-.143-1.203.228-1.603.484-1.031.656-1.919 1.169-3.036 1.483-3.179.997-6.759.798-9.88-.285-3.008-1.055-5.327-3.278-6.559-6.186-1.718-4.104-1.374-8.979.974-12.798 1.546-2.509 3.98-4.304 6.873-5.103 3.38-.912 7.217-.74 10.396.77.487.228.916.513 1.375.77.401.228 1.002.598 1.489.484.286-.057.515-.313.63-.541.2-.342.258-.713.229-1.169v-.143h.43l.086 7.868zm-14.377 3.962h.43l.028 3.506-4.782.028a7.297 7.297 0 01-.172-1.14h.458c.974 0 1.432 0 2.005-.028h.2c.344-.029.659-.086.945-.286.458-.313.745-.798.86-1.368.028-.228.028-.712.028-.712z" fill="#CC9755"/></svg>