<svg width="61" height="62" fill="none" xmlns="http://www.w3.org/2000/svg"><path d="M0 .33L.329 62 61 61.67 60.671 0 0 .33zm7.812 41.273v-1.47c.292.036.913.036 1.606-.331.146-.074.84-.478 1.278-1.323.073-.147.11-.257.146-.368.11-.294.146-.624.146-.955l-.073-20.397-.036-5.293c0-.146 0-.992-.548-1.617-.657-.771-2.3-.661-2.41-.661v-.515l9.966-.073v.514c-.109 0-1.752-.073-2.409.699-.584.698-.547 1.506-.547 1.617l.036 5.292c.037 5.476.073 15.693.073 15.693 0 .514.183 2.279-.292 3.381-.182.441-.547.919-1.533 1.617-.84.588-1.35.845-1.789 1.287-.255.257-1.059.918-.547 1.322.219.148.474.11.73.11l10.075-.073c.037.478.11.956.219 1.47l-14.09.074zm45.485-9.776h-.547a15.449 15.449 0 00-1.752-3.97 13.788 13.788 0 00-2.738-3.233c-1.059-.92-2.227-1.617-3.541-2.169a11.313 11.313 0 00-4.162-.771c-2.044 0-3.906.404-5.512 1.322-4.49 2.61-7.046 7.608-7.593 12.717-.475 4.63.73 9.261 3.687 12.826a12.339 12.339 0 004.307 3.344c1.643.772 3.505 1.03 5.294 1.03 1.533 0 2.993-.184 4.344-.772a13.73 13.73 0 003.577-2.242 13.928 13.928 0 002.629-3.198c.73-1.212 1.24-2.682 1.387-3.712h.474l.037 9.776h-.475c0-.44-.073-.919-.219-1.36-.146-.477-.474-.918-.985-1.065-.694-.184-1.534.294-2.045.624-1.314.846-2.445 1.507-3.87 1.912-4.051 1.286-8.614 1.029-12.593-.368-3.833-1.36-6.79-4.226-8.36-7.975-2.19-5.292-1.752-11.577 1.241-16.502 1.971-3.234 5.074-5.549 8.761-6.578 4.308-1.176 9.2-.956 13.252.992.62.294 1.168.662 1.752.993.511.293 1.278.771 1.898.624.365-.073.657-.404.803-.698.256-.441.329-.919.292-1.507v-.184h.548l.11 10.144zm-18.325 5.108h.547l.037 4.52-6.096.038a9.501 9.501 0 01-.22-1.47h.585c1.24 0 1.825 0 2.555-.037h.255c.439-.037.84-.11 1.205-.368.584-.404.95-1.029 1.095-1.764.037-.294.037-.919.037-.919z" fill="#D79F4E"/></svg>