<svg width="144" height="32" fill="none" xmlns="http://www.w3.org/2000/svg"><path d="M3.113 13.782a.667.667 0 01.374-1.151l8.005-.95a.667.667 0 00.527-.382l3.377-7.32a.667.667 0 011.21 0l3.377 7.32c.097.21.296.355.526.383l8.005.949a.667.667 0 01.374 1.152l-5.918 5.473a.666.666 0 00-.2.619l1.57 7.906a.667.667 0 01-.98.713l-7.033-3.939a.665.665 0 00-.65.001l-7.035 3.937a.667.667 0 01-.98-.712l1.57-7.905a.667.667 0 00-.2-.62l-5.919-5.474zm28 0a.667.667 0 01.374-1.151l8.005-.95a.667.667 0 00.528-.382l3.376-7.32a.667.667 0 011.21 0l3.377 7.32c.097.21.296.355.526.383l8.005.949a.667.667 0 01.374 1.152l-5.918 5.473a.666.666 0 00-.2.619l1.57 7.906a.667.667 0 01-.98.713l-7.033-3.939a.665.665 0 00-.65.001l-7.035 3.937a.667.667 0 01-.98-.712l1.57-7.905a.667.667 0 00-.2-.62l-5.919-5.474zm28 0a.667.667 0 01.374-1.151l8.005-.95a.667.667 0 00.527-.382l3.377-7.32a.667.667 0 011.21 0l3.377 7.32c.097.21.296.355.526.383l8.005.949a.667.667 0 01.374 1.152l-5.918 5.473a.666.666 0 00-.2.619l1.57 7.906a.667.667 0 01-.98.713l-7.033-3.939a.665.665 0 00-.65.001l-7.035 3.937a.667.667 0 01-.98-.712l1.57-7.905a.667.667 0 00-.2-.62l-5.919-5.474zm28 0a.667.667 0 01.374-1.151l8.005-.95a.667.667 0 00.527-.382l3.377-7.32a.667.667 0 011.211 0l3.376 7.32c.097.21.296.355.526.383l8.005.949a.667.667 0 01.374 1.152l-5.918 5.473a.664.664 0 00-.2.619l1.57 7.906a.667.667 0 01-.979.713l-7.034-3.939a.665.665 0 00-.65.001l-7.035 3.937a.667.667 0 01-.98-.712l1.57-7.905a.667.667 0 00-.2-.62l-5.919-5.474zm28 0a.667.667 0 01.374-1.151l8.005-.95a.67.67 0 00.528-.382l3.376-7.32a.667.667 0 011.211 0l3.376 7.32c.097.21.296.355.526.383l8.005.949a.667.667 0 01.374 1.152l-5.918 5.473a.664.664 0 00-.2.619l1.57 7.906a.667.667 0 01-.979.713l-7.034-3.939a.666.666 0 00-.651.001l-7.034 3.937a.668.668 0 01-.981-.712l1.571-7.905a.668.668 0 00-.2-.62l-5.919-5.474z" fill="#D9D9D9" stroke="#D9D9D9" stroke-width="2" stroke-linecap="round" stroke-linejoin="round"/></svg>