<svg width="0" height="0" class="hidden">
  <symbol fill="none" xmlns="http://www.w3.org/2000/svg" viewBox="0 0 16 16" id="warning">
    <path fill-rule="evenodd" clip-rule="evenodd" d="M8.00065 2.66659C5.05513 2.66659 2.66732 5.0544 2.66732 7.99992C2.66732 10.9454 5.05513 13.3333 8.00065 13.3333C10.9462 13.3333 13.334 10.9454 13.334 7.99992C13.334 5.0544 10.9462 2.66659 8.00065 2.66659ZM1.33398 7.99992C1.33398 4.31802 4.31875 1.33325 8.00065 1.33325C11.6825 1.33325 14.6673 4.31802 14.6673 7.99992C14.6673 11.6818 11.6825 14.6666 8.00065 14.6666C4.31875 14.6666 1.33398 11.6818 1.33398 7.99992ZM8.00065 4.96672C8.36884 4.96672 8.66732 5.26519 8.66732 5.63338V8.30005C8.66732 8.66824 8.36884 8.96671 8.00065 8.96671C7.63246 8.96671 7.33398 8.66824 7.33398 8.30005V5.63338C7.33398 5.26519 7.63246 4.96672 8.00065 4.96672ZM7.30078 10.3C7.30078 9.93186 7.59926 9.63338 7.96745 9.63338H8.03385C8.40204 9.63338 8.70052 9.93186 8.70052 10.3V10.3667C8.70052 10.544 8.62992 10.7139 8.50433 10.839C8.37874 10.9641 8.2085 11.0341 8.03124 11.0334L7.96483 11.0331C7.59767 11.0317 7.30078 10.7336 7.30078 10.3665V10.3Z" fill="currentColor"></path>
  </symbol>
  <symbol fill="none" xmlns="http://www.w3.org/2000/svg" viewBox="0 0 16 17" id="add">
    <path id="Vector (Stroke)" fill-rule="evenodd" clip-rule="evenodd" d="M4.77445 2.5H11.2258C11.5773 2.49999 11.8804 2.49998 12.1301 2.52038C12.3936 2.54192 12.6557 2.58947 12.9079 2.71799C13.2839 2.90954 13.5902 3.21517 13.7822 3.59187C13.9107 3.84413 13.9582 4.10627 13.9798 4.36983C14.0002 4.61955 14.0002 4.92272 14.0001 5.27414V11.7255C14.0002 12.077 14.0002 12.3802 13.9798 12.6299C13.9582 12.8934 13.9107 13.1556 13.7822 13.4079C13.5904 13.7841 13.2843 14.0904 12.9079 14.2822C12.6559 14.4106 12.394 14.4581 12.1308 14.4796C11.8814 14.5 11.5788 14.5 11.2281 14.5H4.77226C4.42153 14.5 4.11877 14.5 3.86931 14.4796C3.60604 14.4581 3.344 14.4106 3.09187 14.2822C2.71517 14.0902 2.40954 13.7839 2.21799 13.4079C2.08947 13.1557 2.04192 12.8936 2.02038 12.6301C1.99998 12.3804 1.99999 12.0773 2 11.7258V5.27445C1.99999 4.923 1.99998 4.61977 2.02038 4.36999C2.04191 4.10641 2.08944 3.84416 2.21799 3.59187C2.40973 3.21555 2.71555 2.90973 3.09187 2.71799C3.34416 2.58944 3.60641 2.54191 3.86999 2.52038C4.11977 2.49998 4.423 2.49999 4.77445 2.5ZM3.97853 3.84929C3.7973 3.86409 3.73012 3.88922 3.69719 3.906C3.57175 3.96991 3.46991 4.07175 3.406 4.19719C3.38922 4.23012 3.36409 4.2973 3.34929 4.47853C3.33385 4.6675 3.33333 4.91577 3.33333 5.30013V11.7001C3.33333 12.0845 3.33385 12.3326 3.34929 12.5215C3.36408 12.7025 3.38919 12.7696 3.406 12.8026C3.4701 12.9284 3.57213 13.0304 3.69719 13.0941C3.73 13.1109 3.79703 13.136 3.97791 13.1507C4.16653 13.1661 4.41431 13.1667 4.79794 13.1667H11.2024C11.586 13.1667 11.8336 13.1661 12.0221 13.1507C12.2028 13.136 12.2697 13.1109 12.3026 13.0941C12.428 13.0303 12.5302 12.928 12.5941 12.8025C12.6109 12.7696 12.6361 12.7024 12.6509 12.5213C12.6663 12.3324 12.6668 12.0842 12.6668 11.6999V5.29985C12.6668 4.91548 12.6663 4.6673 12.6509 4.47841C12.6361 4.2973 12.6109 4.23016 12.5941 4.19719C12.5304 4.07213 12.4284 3.9701 12.3026 3.906C12.2696 3.88919 12.2025 3.86408 12.0215 3.84929C11.8326 3.83385 11.5845 3.83333 11.2001 3.83333H4.80013C4.41577 3.83333 4.16751 3.83385 3.97853 3.84929ZM8 5.16667C8.36819 5.16667 8.66667 5.46514 8.66667 5.83333V7.83333H10.6667C11.0349 7.83333 11.3333 8.13181 11.3333 8.5C11.3333 8.86819 11.0349 9.16667 10.6667 9.16667H8.66667V11.1667C8.66667 11.5349 8.36819 11.8333 8 11.8333C7.63181 11.8333 7.33333 11.5349 7.33333 11.1667V9.16667H5.33333C4.96514 9.16667 4.66667 8.86819 4.66667 8.5C4.66667 8.13181 4.96514 7.83333 5.33333 7.83333H7.33333V5.83333C7.33333 5.46514 7.63181 5.16667 8 5.16667Z" fill="currentColor"></path>
  </symbol>
  <symbol fill="none" xmlns="http://www.w3.org/2000/svg" viewBox="0 0 24 25" id="arrow">
    <path d="M16 10.54l-4 4-4-4" stroke="currentColor" stroke-width="2" stroke-linecap="round" stroke-linejoin="round"></path>
  </symbol>
  <symbol fill="none" xmlns="http://www.w3.org/2000/svg" viewBox="0 0 25 24" id="arrow-down">
    <path d="M16.5 10l-4 4-4-4" stroke="currentColor" stroke-width="2" stroke-linecap="round" stroke-linejoin="round"></path>
  </symbol>
  <symbol fill="none" xmlns="http://www.w3.org/2000/svg" viewBox="0 0 20 20" id="arrows">
    <path id="Vector" d="M9.16602 13.3337L6.66602 15.8337M6.66602 15.8337L4.16602 13.3337M6.66602 15.8337V4.16699M10.8327 6.66699L13.3327 4.16699M13.3327 4.16699L15.8327 6.66699M13.3327 4.16699V15.8337" stroke="currentColor" stroke-width="2" stroke-linecap="round" stroke-linejoin="round"></path>
  </symbol>
  <symbol fill="none" xmlns="http://www.w3.org/2000/svg" viewBox="0 0 16 17" id="book">
    <path fill-rule="evenodd" clip-rule="evenodd" d="M11.9852 3.17346C11.9074 3.16711 11.7991 3.16659 11.6014 3.16659H5.4681C5.08374 3.16659 4.83547 3.16711 4.6465 3.18254C4.46527 3.19734 4.39808 3.22248 4.36516 3.23925C4.23972 3.30317 4.13788 3.40501 4.07397 3.53045C4.05719 3.56337 4.03206 3.63055 4.01726 3.81179C4.00182 4.00076 4.0013 4.24902 4.0013 4.63339V11.9993C4.25783 11.8923 4.53934 11.8333 4.83464 11.8333H11.6027C11.8 11.8333 11.908 11.8327 11.9856 11.8264C11.9884 11.8262 11.991 11.8259 11.9935 11.8257C11.9938 11.8228 11.9941 11.8197 11.9943 11.8164C12.0007 11.7389 12.0013 11.6308 12.0013 11.4333V3.56665C12.0013 3.36921 12.0007 3.26098 11.9943 3.18337C11.9941 3.18013 11.9938 3.17707 11.9935 3.17418C11.9909 3.17394 11.9881 3.1737 11.9852 3.17346ZM11.3346 13.1666H4.83464C4.43148 13.1666 4.09518 13.4529 4.01797 13.8333H10.936C11.1333 13.8333 11.2413 13.8327 11.3189 13.8264C11.3217 13.8262 11.3243 13.8259 11.3269 13.8257C11.3271 13.8228 11.3274 13.8197 11.3277 13.8164C11.3341 13.7389 11.3346 13.6307 11.3346 13.4333V13.1666ZM2.69181 13.6774C2.67627 13.6209 2.66797 13.5615 2.66797 13.5001L2.66797 4.60771C2.66796 4.25626 2.66795 3.95302 2.68835 3.70324C2.70988 3.43967 2.75741 3.17742 2.88596 2.92513C3.0777 2.5488 3.38352 2.24299 3.75984 2.05124C4.01213 1.92269 4.27438 1.87516 4.53796 1.85363C4.78774 1.83323 5.09097 1.83324 5.44242 1.83325L11.6227 1.83325C11.791 1.83323 11.9549 1.83321 12.0937 1.84455C12.246 1.85699 12.426 1.88634 12.607 1.97858C12.8591 2.10703 13.0618 2.31153 13.1891 2.5612C13.2811 2.74191 13.3106 2.92157 13.3232 3.07407C13.3347 3.21372 13.3347 3.37854 13.3346 3.54791V11.4521C13.3347 11.6214 13.3347 11.7862 13.3232 11.9258C13.3106 12.0783 13.2811 12.2578 13.1891 12.4384C13.0727 12.6668 12.8927 12.8586 12.668 12.9883L12.668 13.452C12.668 13.6214 12.668 13.7861 12.6565 13.9257C12.644 14.0783 12.6144 14.2578 12.5224 14.4384C12.3956 14.6873 12.1934 14.8925 11.9405 15.0213C11.7596 15.1135 11.5797 15.1429 11.4275 15.1553C11.2888 15.1666 11.1252 15.1666 10.9572 15.1666L3.83464 15.1666C3.1903 15.1666 2.66797 14.6443 2.66797 13.9999C2.66797 13.8903 2.67611 13.7826 2.69181 13.6774Z" fill="currentColor"></path>
  </symbol>
  <symbol fill="none" xmlns="http://www.w3.org/2000/svg" viewBox="0 0 24 24" id="bug">
    <path id="Vector" d="M8 8H7.71094C6.74786 8 6.26653 8 5.87598 8.17521C5.5317 8.32965 5.23841 8.57838 5.02947 8.89258C4.79244 9.24902 4.71276 9.72386 4.55443 10.6738L3.62109 16.2738L3.62072 16.2759C3.40728 17.5565 3.3005 18.1972 3.48595 18.6965C3.64877 19.1348 3.96058 19.5022 4.36621 19.7349C4.82844 20 5.47776 20 6.77734 20H17.2224C18.522 20 19.1724 20 19.6346 19.7349C20.0402 19.5022 20.3513 19.1348 20.5141 18.6965C20.6995 18.1974 20.5928 17.557 20.3795 16.2774L20.3786 16.2738L19.4453 10.6738C19.287 9.72386 19.2077 9.24902 18.9707 8.89258C18.7618 8.57838 18.4682 8.32965 18.124 8.17521C17.7334 8 17.2524 8 16.2893 8H16M8 8H16M8 8C8 5.79086 9.79086 4 12 4C14.2091 4 16 5.79086 16 8" stroke="currentColor" stroke-width="2" stroke-linecap="round" stroke-linejoin="round"></path>
  </symbol>
  <symbol fill="none" xmlns="http://www.w3.org/2000/svg" viewBox="0 0 16 17" id="calendar">
    <path fill-rule="evenodd" clip-rule="evenodd" d="M5.333 1.031c.369 0 .667.299.667.667v.667h4v-.667a.667.667 0 011.333 0v.667c.306 0 .573.002.797.02.263.022.525.07.778.198.375.19.682.496.874.873.129.253.176.515.198.778.02.25.02.552.02.903v6.456c0 .35 0 .653-.02.902a2.035 2.035 0 01-.198.778 2.001 2.001 0 01-.874.874 2.033 2.033 0 01-.777.197c-.25.02-.553.02-.903.02H4.772c-.35 0-.653 0-.903-.02a2.034 2.034 0 01-.777-.197 2 2 0 01-.874-.874 2.036 2.036 0 01-.198-.778C2 12.245 2 11.942 2 11.59V5.14c0-.351 0-.655.02-.904.022-.264.07-.526.198-.779a2 2 0 01.874-.873c.252-.129.514-.177.778-.198.224-.018.49-.02.797-.02v-.667c0-.368.298-.667.666-.667zM3.98 3.714c-.182.015-.249.04-.282.057a.666.666 0 00-.291.29c-.017.034-.042.1-.057.282a9.29 9.29 0 00-.016.688h9.334c0-.31-.003-.522-.016-.689-.015-.18-.04-.247-.057-.28a.667.667 0 00-.292-.291c-.033-.017-.1-.042-.28-.057a11.329 11.329 0 00-.822-.016H4.8c-.384 0-.632 0-.821.016zm8.688 2.65H3.333v5.2c0 .385 0 .633.016.822.015.181.04.248.057.281a.667.667 0 00.291.292c.033.016.1.042.28.056.19.016.437.016.82.016h6.405c.384 0 .631 0 .82-.016.18-.014.247-.04.28-.056a.668.668 0 00.292-.292c.017-.033.042-.1.057-.28a11.3 11.3 0 00.016-.82V6.365zm-8 2c0-.368.298-.666.666-.666h.002A.667.667 0 016 8.38v.001a.667.667 0 01-.682.651h-.002a.667.667 0 01-.65-.666v-.001zm2.666 0c0-.368.299-.666.667-.666h.001a.667.667 0 01.667.682v.001a.667.667 0 01-.683.651.667.667 0 01-.652-.666v-.001zm2.667 0c0-.368.299-.666.667-.666h.001a.667.667 0 11-.016 1.334h-.001A.667.667 0 0110 8.366v-.001zm-5.333 2.667c0-.368.298-.666.666-.666h.002a.667.667 0 01.666.682v.001a.667.667 0 01-.682.651h-.002a.667.667 0 01-.65-.666v-.002zm2.666 0c0-.368.299-.666.667-.666h.001a.667.667 0 01.667.682v.001a.667.667 0 01-.683.651.667.667 0 01-.652-.666v-.002zm2.667 0c0-.368.299-.666.667-.666h.001a.667.667 0 01.667.682v.001a.667.667 0 01-.683.651h-.001a.667.667 0 01-.651-.666v-.002z" fill="currentColor"></path>
  </symbol>
  <symbol fill="none" xmlns="http://www.w3.org/2000/svg" viewBox="0 0 24 25" id="cart">
    <path d="M3 3.27h.268c.474 0 .711 0 .905.086.17.075.316.196.42.35.12.174.163.407.248.871L7 16.27h10.422c.453 0 .68 0 .868-.08a.999.999 0 00.415-.331c.12-.165.171-.385.273-.826v-.003l1.57-6.8v-.001c.154-.669.232-1.004.147-1.267a1.001 1.001 0 00-.44-.55c-.237-.142-.58-.142-1.266-.142H5.5m12.5 15a1 1 0 110-2 1 1 0 010 2zm-10 0a1 1 0 110-2 1 1 0 010 2z" stroke="currentColor" stroke-width="2" stroke-linecap="round" stroke-linejoin="round"></path>
  </symbol>
  <symbol fill="none" xmlns="http://www.w3.org/2000/svg" viewBox="0 0 24 24" id="chats">
    <path id="Vector" d="M16 8H20C20.5523 8 21 8.44772 21 9V20L17.667 17.231C17.4875 17.0818 17.2608 17 17.0273 17H9C8.44771 17 8 16.5523 8 16V13M16 8V5C16 4.44772 15.5523 4 15 4H4C3.44772 4 3 4.44772 3 5V16.0003L6.33301 13.2308C6.51255 13.0817 6.73924 13 6.97266 13H8M16 8V12C16 12.5523 15.5523 13 15 13H8" stroke="currentColor" stroke-width="2" stroke-linecap="round" stroke-linejoin="round"></path>
  </symbol>
  <symbol fill="none" xmlns="http://www.w3.org/2000/svg" viewBox="0 0 24 24" id="check">
    <path d="M6 12l4.243 4.243 8.484-8.486" stroke="currentColor" stroke-width="2" stroke-linecap="round" stroke-linejoin="round"></path>
  </symbol>
  <symbol fill="none" xmlns="http://www.w3.org/2000/svg" viewBox="0 0 16 16" id="check-white">
    <path d="M4.316 7.94l2.648 2.648 5.294-5.295" stroke="#fff" stroke-width="2" stroke-linecap="round" stroke-linejoin="round"></path>
  </symbol>
  <symbol fill="none" xmlns="http://www.w3.org/2000/svg" viewBox="0 0 32 33" id="circle-arrow">
    <path d="M17.333 20.364l4-4m0 0l-4-4m4 4H10.667m17.333 0c0-6.627-5.373-12-12-12s-12 5.373-12 12c0 6.628 5.373 12 12 12s12-5.372 12-12z" stroke="currentColor" stroke-width="2" stroke-linecap="round" stroke-linejoin="round"></path>
  </symbol>
  <symbol fill="none" xmlns="http://www.w3.org/2000/svg" viewBox="0 0 24 24" id="close">
    <path id="Vector" d="M18 18L12 12M12 12L6 6M12 12L18 6M12 12L6 18" stroke="currentColor" stroke-width="2" stroke-linecap="round" stroke-linejoin="round"></path>
  </symbol>
  <symbol fill="none" xmlns="http://www.w3.org/2000/svg" viewBox="0 0 18 19" id="dislike">
    <path d="M12.2894 11.0459C12.2894 7.97181 12.2894 4.89681 12.2894 1.82093C12.2894 1.08769 12.5356 0.838868 13.2661 0.833574L14.8544 0.833574L16.5379 0.833574L16.7576 0.833574C17.4697 0.838868 17.7344 1.11681 17.7344 1.82357L17.7344 7.95946C17.7344 8.98652 17.7344 10.0171 17.7344 11.0512C17.7344 11.7712 17.4697 12.0386 16.7576 12.0386L13.2688 12.0386C12.5461 12.0386 12.2894 11.7792 12.2894 11.0459Z" fill="currentColor"></path>
    <path d="M0.265028 7.14402C0.295437 6.87089 0.399738 6.61121 0.566714 6.39293C0.733689 6.17465 0.957019 6.00603 1.21268 5.9052L1.13326 5.82314C0.992012 5.66731 0.884899 5.48367 0.8188 5.284C0.752701 5.08434 0.729077 4.87306 0.74944 4.66373C0.789528 4.33708 0.933695 4.032 1.16062 3.79364C1.38753 3.55528 1.68515 3.39629 2.00944 3.3402C1.87147 3.18732 1.76681 3.00742 1.7021 2.81193C1.63739 2.61643 1.61405 2.40961 1.63356 2.20461C1.67693 1.82284 1.86091 1.47091 2.14964 1.21742C2.43837 0.963922 2.81116 0.827031 3.19532 0.833434L4.9715 0.833434L5.02444 0.833434L5.24944 0.833434C6.15738 0.833435 7.10238 0.833435 8.01826 0.833435L8.10826 0.833435C9.36216 0.86955 10.6012 1.11468 11.7744 1.55873C11.7643 1.64659 11.7599 1.73501 11.7612 1.82343C11.7612 4.90108 11.7612 7.97608 11.7612 11.0484C11.7603 11.1858 11.7709 11.3231 11.793 11.4587L11.4462 11.7605C11.335 11.8531 11.2239 11.9484 11.1153 12.0464C10.3874 12.6843 9.65679 13.3884 9.40268 14.3652C9.31252 14.7666 9.26636 15.1767 9.26503 15.5881C9.26503 15.7999 9.24915 16.0117 9.23326 16.2208C9.23326 16.3187 9.21738 16.414 9.20944 16.512C9.19852 16.8095 9.15593 17.105 9.08238 17.3934C8.93415 17.8911 8.48944 18.1743 7.86473 18.1743C7.59071 18.1873 7.31954 18.1137 7.08962 17.9641C6.85969 17.8145 6.68265 17.5963 6.58356 17.3405C6.11314 16.1473 6.00181 14.8426 6.26326 13.587C6.37709 13.0576 6.52797 12.5281 6.70267 12.0252C6.77944 11.7764 6.85885 11.5249 6.93297 11.2734L2.45944 11.2734C2.07911 11.2776 1.71062 11.1413 1.42444 10.8908C1.13826 10.6403 0.954482 10.293 0.908263 9.91549C0.888581 9.70599 0.912783 9.49469 0.979325 9.29506C1.04587 9.09544 1.15329 8.91187 1.29473 8.75608L1.32121 8.72696C1.06404 8.64699 0.83286 8.49988 0.651499 8.30079C0.509707 8.14576 0.402043 7.96269 0.33547 7.76343C0.268897 7.56417 0.244898 7.35315 0.265028 7.14402Z" fill="currentColor"></path>
  </symbol>
  <symbol fill="none" xmlns="http://www.w3.org/2000/svg" viewBox="0 0 16 17" id="edit">
    <path fill-rule="evenodd" clip-rule="evenodd" d="M10.2547 2.84138C10.5225 2.75437 10.8109 2.75437 11.0787 2.84138C11.2717 2.90407 11.4194 3.01032 11.5358 3.10906C11.6417 3.19896 11.7572 3.3145 11.8756 3.43295L13.0655 4.62286C13.1845 4.74182 13.3004 4.85768 13.3905 4.96384C13.4895 5.08039 13.5959 5.22834 13.6586 5.42151C13.7457 5.68935 13.7456 5.97781 13.6586 6.24556C13.5959 6.43862 13.4896 6.58647 13.3907 6.70296C13.3007 6.80903 13.1849 6.92477 13.0661 7.04355L6.94279 13.1668H13.3333C13.7015 13.1668 14 13.4653 14 13.8335C14 14.2017 13.7015 14.5002 13.3333 14.5002H2.66667C2.29848 14.5002 2 14.2017 2 13.8335V11.1668C2 10.99 2.07024 10.8204 2.19526 10.6954L9.44431 3.44636L9.45718 3.4335C9.57579 3.31487 9.69142 3.1992 9.79742 3.10923C9.91381 3.01042 10.0616 2.9041 10.2547 2.84138ZM5.05719 13.1668L3.33333 13.1668V11.443L10.3817 4.39461L10.385 4.39133C10.5244 4.25193 10.601 4.17604 10.6603 4.12571C10.6625 4.12381 10.6647 4.12202 10.6667 4.12033C10.6687 4.12198 10.6708 4.12373 10.6729 4.12558C10.7321 4.1758 10.8086 4.25155 10.9478 4.39077L12.1077 5.55063C12.2474 5.69041 12.3236 5.76729 12.3741 5.82676C12.3761 5.82912 12.378 5.83137 12.3798 5.83351C12.378 5.8356 12.3762 5.83779 12.3742 5.8401C12.3245 5.89865 12.2499 5.97411 12.1138 6.11019L5.05719 13.1668Z" fill="currentColor"></path>
  </symbol>
  <symbol fill="none" xmlns="http://www.w3.org/2000/svg" viewBox="0 0 25 24" id="exit">
    <path id="Vector" d="M12.5 15L15.5 12M15.5 12L12.5 9M15.5 12H4.5M9.5 7.24859V7.2002C9.5 6.08009 9.5 5.51962 9.71799 5.0918C9.90973 4.71547 10.2155 4.40973 10.5918 4.21799C11.0196 4 11.5801 4 12.7002 4H17.3002C18.4203 4 18.9796 4 19.4074 4.21799C19.7837 4.40973 20.0905 4.71547 20.2822 5.0918C20.5 5.5192 20.5 6.07899 20.5 7.19691V16.8036C20.5 17.9215 20.5 18.4805 20.2822 18.9079C20.0905 19.2842 19.7837 19.5905 19.4074 19.7822C18.98 20 18.421 20 17.3031 20H12.6969C11.579 20 11.0192 20 10.5918 19.7822C10.2155 19.5905 9.90973 19.2839 9.71799 18.9076C9.5 18.4798 9.5 17.9201 9.5 16.8V16.75" stroke="currentColor" stroke-width="2" stroke-linecap="round" stroke-linejoin="round"></path>
  </symbol>
  <symbol fill="none" xmlns="http://www.w3.org/2000/svg" viewBox="0 0 24 24" id="fb">
    <path d="M20.7657 0H3.23405C1.44797 0 0 1.44791 0 3.23405V20.7658C0 22.552 1.44791 23.9999 3.23405 23.9999H11.8806L11.8953 15.4236H9.66721C9.37765 15.4236 9.14264 15.1895 9.14152 14.8999L9.13084 12.1354C9.12972 11.8443 9.36544 11.6077 9.65659 11.6077H11.8806V8.93651C11.8806 5.83661 13.7739 4.14869 16.5392 4.14869H18.8083C19.0986 4.14869 19.3341 4.38406 19.3341 4.67444V7.00547C19.3341 7.29573 19.0988 7.53104 18.8086 7.53122L17.4161 7.53187C15.9122 7.53187 15.621 8.24648 15.621 9.29522V11.6078H18.9255C19.2404 11.6078 19.4847 11.8827 19.4476 12.1954L19.1199 14.9599C19.0885 15.2244 18.8642 15.4237 18.5978 15.4237H15.6357L15.621 24H20.7658C22.5519 24 23.9998 22.5521 23.9998 20.766V3.23405C23.9998 1.44791 22.5519 0 20.7657 0Z" fill="#475993"></path>
  </symbol>
  <symbol fill="none" xmlns="http://www.w3.org/2000/svg" viewBox="0 0 20 20" id="filters">
    <path id="Vector" d="M11.6667 15.0003H17.5M2.5 15.0003H4.16667M4.16667 15.0003C4.16667 16.1509 5.09941 17.0837 6.25 17.0837C7.40059 17.0837 8.33333 16.1509 8.33333 15.0003C8.33333 13.8497 7.40059 12.917 6.25 12.917C5.09941 12.917 4.16667 13.8497 4.16667 15.0003ZM16.6667 10.0003H17.5M2.5 10.0003H8.33333M10.8333 5.00033H17.5M10.8333 5.00033C10.8333 3.84973 9.90059 2.91699 8.75 2.91699C7.59941 2.91699 6.66667 3.84973 6.66667 5.00033C6.66667 6.15092 7.59941 7.08366 8.75 7.08366C9.90059 7.08366 10.8333 6.15092 10.8333 5.00033ZM2.5 5.00033H3.33333M13.75 12.0837C12.5994 12.0837 11.6667 11.1509 11.6667 10.0003C11.6667 8.84973 12.5994 7.91699 13.75 7.91699C14.9006 7.91699 15.8333 8.84973 15.8333 10.0003C15.8333 11.1509 14.9006 12.0837 13.75 12.0837Z" stroke="currentColor" stroke-width="1.66667" stroke-linecap="round" stroke-linejoin="round"></path>
  </symbol>
  <symbol fill="none" xmlns="http://www.w3.org/2000/svg" viewBox="0 0 25 24" id="first">
    <path d="M17.5 16L13.5 12L17.5 8M11.5 16L7.5 12L11.5 8" stroke="currentColor" stroke-width="2" stroke-linecap="round" stroke-linejoin="round"></path>
  </symbol>
  <symbol fill="none" xmlns="http://www.w3.org/2000/svg" viewBox="0 0 32 32" id="gift">
    <path id="Vector" d="M16 7.33333V10.6667M16 7.33333C16 5.49238 17.4924 4 19.3333 4C21.1743 4 22.6667 5.49238 22.6667 7.33333C22.6667 9.17428 21.1743 10.6667 19.3333 10.6667M16 7.33333C16 5.49238 14.5076 4 12.6667 4C10.8257 4 9.33333 5.49238 9.33333 7.33333C9.33333 9.17428 10.8257 10.6667 12.6667 10.6667M16 10.6667H19.3333M16 10.6667H12.6667M16 10.6667V18.6667M19.3333 10.6667H23.7336C25.2271 10.6667 25.9728 10.6667 26.5432 10.9573C27.045 11.213 27.454 11.6206 27.7096 12.1224C28 12.6923 28 13.4387 28 14.9292V18.6667M12.6667 10.6667H8.26693C6.77345 10.6667 6.02616 10.6667 5.45573 10.9573C4.95396 11.213 4.54631 11.6206 4.29065 12.1224C4 12.6928 4 13.4401 4 14.9336V18.6667M4 18.6667V22.4003C4 23.8937 4 24.6401 4.29065 25.2105C4.54631 25.7123 4.95396 26.1206 5.45573 26.3763C6.0256 26.6667 6.77199 26.6667 8.26255 26.6667H16M4 18.6667H16M16 18.6667V26.6667M16 18.6667H28M16 26.6667H23.7375C25.228 26.6667 25.9733 26.6667 26.5432 26.3763C27.045 26.1206 27.454 25.7123 27.7096 25.2105C28 24.6406 28 23.8953 28 22.4048V18.6667" stroke="currentColor" stroke-width="2" stroke-linecap="round" stroke-linejoin="round"></path>
  </symbol>
  <symbol fill="none" xmlns="http://www.w3.org/2000/svg" viewBox="0 0 24 24" id="google">
    <g clip-path="url(#clip0_172_8200)">
      <path d="M23.0955 9.91355L13.3061 9.91309C12.8738 9.91309 12.5234 10.2634 12.5234 10.6957V13.823C12.5234 14.2552 12.8738 14.6056 13.3061 14.6056H18.8188C18.2152 16.1722 17.0885 17.4842 15.651 18.3178L18.0017 22.387C21.7724 20.2062 24.0017 16.3799 24.0017 12.0965C24.0017 11.4866 23.9567 11.0506 23.8668 10.5597C23.7985 10.1867 23.4747 9.91355 23.0955 9.91355Z" fill="#167EE6"></path>
      <path d="M12.0003 19.3044C9.30242 19.3044 6.94723 17.8304 5.68231 15.6492L1.61328 17.9945C3.68398 21.5834 7.56308 24.0001 12.0003 24.0001C14.177 24.0001 16.2309 23.414 18.0003 22.3927V22.3871L15.6496 18.3179C14.5744 18.9415 13.3302 19.3044 12.0003 19.3044Z" fill="#12B347"></path>
      <path d="M18 22.3927V22.3871L15.6494 18.3179C14.5741 18.9414 13.33 19.3044 12 19.3044V24.0001C14.1767 24.0001 16.2308 23.414 18 22.3927Z" fill="#0F993E"></path>
      <path d="M4.69566 12C4.69566 10.6702 5.05856 9.42613 5.68205 8.35096L1.61302 6.00562C0.586031 7.76938 0 9.81772 0 12C0 14.1823 0.586031 16.2307 1.61302 17.9945L5.68205 15.6491C5.05856 14.5739 4.69566 13.3298 4.69566 12Z" fill="#FFD500"></path>
      <path d="M12.0003 4.69566C13.7595 4.69566 15.3755 5.32078 16.6377 6.36061C16.9491 6.61711 17.4017 6.59859 17.6869 6.31336L19.9027 4.09758C20.2263 3.77395 20.2033 3.24422 19.8575 2.94431C17.7428 1.10967 14.9912 0 12.0003 0C7.56308 0 3.68398 2.41673 1.61328 6.00558L5.68231 8.35092C6.94723 6.16969 9.30242 4.69566 12.0003 4.69566Z" fill="#FF4B26"></path>
      <path d="M16.6374 6.36061C16.9488 6.61711 17.4015 6.59859 17.6866 6.31336L19.9024 4.09758C20.226 3.77395 20.2029 3.24422 19.8573 2.94431C17.7425 1.10963 14.991 0 12 0V4.69566C13.7592 4.69566 15.3752 5.32078 16.6374 6.36061Z" fill="#D93F21"></path>
    </g>
    <defs>
      <clipPath id="clip0_172_8200">
        <rect width="24" height="24" fill="white"></rect>
      </clipPath>
    </defs>
  </symbol>
  <symbol fill="none" xmlns="http://www.w3.org/2000/svg" viewBox="0 0 24 25" id="heart">
    <path d="M19.237 6.507a4.098 4.098 0 01.135 5.654l-7.373 8.11-7.37-8.11a4.098 4.098 0 116.23-5.316L12 8.27l1.14-1.425a4.098 4.098 0 016.097-.338z" stroke="currentColor" stroke-width="2" stroke-linecap="round" stroke-linejoin="round"></path>
  </symbol>
  <symbol fill="none" xmlns="http://www.w3.org/2000/svg" viewBox="0 0 24 24" id="home">
    <g id="Navigation / House_01">
      <path id="Vector" d="M20 17.0007V11.4527C20 10.9184 19.9995 10.6511 19.9346 10.4024C19.877 10.1821 19.7825 9.97356 19.6546 9.78513C19.5102 9.5725 19.3096 9.39618 18.9074 9.04431L14.1074 4.84431C13.3608 4.19103 12.9875 3.86455 12.5674 3.74031C12.1972 3.63083 11.8026 3.63083 11.4324 3.74031C11.0126 3.86446 10.6398 4.19063 9.89436 4.84292L5.09277 9.04432C4.69064 9.39618 4.49004 9.5725 4.3457 9.78513C4.21779 9.97356 4.12255 10.1821 4.06497 10.4024C4 10.6511 4 10.9184 4 11.4527V17.0007C4 17.9325 4 18.3983 4.15224 18.7658C4.35523 19.2559 4.74432 19.6457 5.23438 19.8487C5.60192 20.0009 6.06786 20.001 6.99974 20.001C7.93163 20.001 8.39808 20.0009 8.76562 19.8487C9.25568 19.6457 9.64467 19.256 9.84766 18.7659C9.9999 18.3984 10 17.9324 10 17.0006V16.0006C10 14.896 10.8954 14.0006 12 14.0006C13.1046 14.0006 14 14.896 14 16.0006V17.0006C14 17.9324 14 18.3984 14.1522 18.7659C14.3552 19.256 14.7443 19.6457 15.2344 19.8487C15.6019 20.0009 16.0679 20.001 16.9997 20.001C17.9316 20.001 18.3981 20.0009 18.7656 19.8487C19.2557 19.6457 19.6447 19.2559 19.8477 18.7658C19.9999 18.3983 20 17.9325 20 17.0007Z" stroke="currentColor" stroke-width="2" stroke-linecap="round" stroke-linejoin="round"></path>
    </g>
  </symbol>
  <symbol fill="none" xmlns="http://www.w3.org/2000/svg" viewBox="0 0 33 33" id="insta">
    <g clip-path="url(#clip0_107_4478)" fill="currentColor">
      <path d="M19.756 16.27a3.062 3.062 0 11-6.125 0 3.062 3.062 0 016.125 0z"></path>
      <path d="M23.855 10.852a2.846 2.846 0 00-.688-1.057 2.845 2.845 0 00-1.056-.687c-.324-.126-.81-.275-1.706-.316-.969-.044-1.26-.054-3.713-.054-2.453 0-2.744.01-3.712.053-.896.042-1.383.191-1.706.317-.4.147-.76.382-1.056.687-.306.297-.54.657-.688 1.057-.126.323-.275.81-.316 1.706-.044.968-.054 1.259-.054 3.712 0 2.453.01 2.744.054 3.713.04.896.19 1.382.316 1.706.147.399.382.76.687 1.056.297.305.657.54 1.057.687.323.126.81.276 1.706.317.968.044 1.259.053 3.712.053 2.454 0 2.744-.009 3.713-.053.895-.041 1.382-.19 1.706-.317a3.043 3.043 0 001.744-1.743c.125-.324.275-.81.316-1.706.044-.97.053-1.26.053-3.713 0-2.453-.009-2.744-.053-3.712-.04-.896-.19-1.383-.316-1.706zm-7.163 10.136a4.718 4.718 0 110-9.436 4.718 4.718 0 010 9.436zm4.905-8.52a1.103 1.103 0 110-2.205 1.103 1.103 0 010 2.205z"></path>
      <path d="M16.693.27c-8.835 0-16 7.165-16 16s7.165 16 16 16c8.836 0 16-7.165 16-16s-7.164-16-16-16zm9.132 19.788c-.044.978-.2 1.646-.427 2.23a4.698 4.698 0 01-2.687 2.687c-.584.227-1.252.382-2.23.427-.98.045-1.292.055-3.787.055-2.496 0-2.808-.01-3.788-.055-.978-.045-1.646-.2-2.23-.427a4.502 4.502 0 01-1.628-1.06 4.504 4.504 0 01-1.06-1.627c-.227-.584-.382-1.252-.426-2.23-.046-.98-.056-1.293-.056-3.788s.01-2.808.055-3.788c.045-.978.2-1.646.427-2.23a4.5 4.5 0 011.06-1.627 4.5 4.5 0 011.627-1.06c.585-.227 1.252-.382 2.23-.427.98-.045 1.293-.055 3.788-.055s2.808.01 3.788.055c.978.045 1.646.2 2.23.427.614.23 1.169.592 1.628 1.06a4.5 4.5 0 011.06 1.627c.227.584.382 1.252.427 2.23.044.98.055 1.293.055 3.788s-.01 2.808-.056 3.788z"></path>
    </g>
    <defs>
      <clipPath id="clip0_107_4478">
        <path fill="#fff" transform="translate(.693 .27)" d="M0 0h32v32H0z"></path>
      </clipPath>
    </defs>
  </symbol>
  <symbol fill="none" xmlns="http://www.w3.org/2000/svg" viewBox="0 0 24 24" id="label">
    <path id="Vector" d="M14 6H6C5.06812 6 4.60192 6 4.23438 6.15224C3.74432 6.35523 3.35523 6.74481 3.15224 7.23486C3 7.60241 3 8.06835 3 9.00023C4.65685 9.00023 6 10.3429 6 11.9998C6 13.6566 4.65685 15 3 15C3 15.9319 3 16.3978 3.15224 16.7654C3.35523 17.2554 3.74432 17.6447 4.23438 17.8477C4.60192 17.9999 5.06812 18 6 18H14M14 6H18C18.9319 6 19.3978 6 19.7654 6.15224C20.2554 6.35523 20.6447 6.74481 20.8477 7.23486C20.9999 7.6024 20.9999 8.06835 20.9999 9.00023C19.343 9.00023 18 10.3431 18 12C18 13.6569 19.343 15 20.9999 15C20.9999 15.9319 20.9999 16.3978 20.8477 16.7654C20.6447 17.2554 20.2554 17.6447 19.7654 17.8477C19.3978 17.9999 18.9319 18 18 18H14M14 6V18" stroke="currentColor" stroke-width="2" stroke-linecap="round" stroke-linejoin="round"></path>
  </symbol>
  <symbol fill="none" xmlns="http://www.w3.org/2000/svg" viewBox="0 0 25 24" id="last">
    <path d="M7.5 8L11.5 12L7.5 16M13.5 8L17.5 12L13.5 16" stroke="currentColor" stroke-width="2" stroke-linecap="round" stroke-linejoin="round"></path>
  </symbol>
  <symbol fill="none" xmlns="http://www.w3.org/2000/svg" viewBox="0 0 18 19" id="like">
    <path d="M5.71063 7.95407C5.71063 11.0282 5.71063 14.1032 5.71063 17.1791C5.71063 17.9123 5.46445 18.1611 4.73386 18.1664H3.14563H1.4621H1.24239C0.530331 18.1611 0.265625 17.8832 0.265625 17.1764V11.0405C0.265625 10.0135 0.265625 8.9829 0.265625 7.94878C0.265625 7.22878 0.530331 6.96143 1.24239 6.96143H4.73121C5.45386 6.96143 5.71063 7.22084 5.71063 7.95407Z" fill="currentColor"></path>
    <path d="M17.735 11.856C17.7046 12.1291 17.6003 12.3888 17.4333 12.6071C17.2663 12.8253 17.043 12.994 16.7873 13.0948L16.8667 13.1769C17.008 13.3327 17.1151 13.5163 17.1812 13.716C17.2473 13.9157 17.2709 14.1269 17.2506 14.3363C17.2105 14.6629 17.0663 14.968 16.8394 15.2064C16.6125 15.4447 16.3148 15.6037 15.9906 15.6598C16.1285 15.8127 16.2332 15.9926 16.2979 16.1881C16.3626 16.3836 16.386 16.5904 16.3664 16.7954C16.3231 17.1772 16.1391 17.5291 15.8504 17.7826C15.5616 18.0361 15.1888 18.173 14.8047 18.1666H13.0285H12.9756H12.7506C11.8426 18.1666 10.8976 18.1666 9.98174 18.1666H9.89174C8.63784 18.1304 7.39876 17.8853 6.22556 17.4413C6.23568 17.3534 6.2401 17.265 6.2388 17.1766C6.2388 14.0989 6.2388 11.0239 6.2388 7.95156C6.23969 7.81415 6.22906 7.67691 6.20703 7.54127L6.5538 7.23951C6.66497 7.14686 6.77615 7.05156 6.88468 6.95362C7.61262 6.31568 8.34321 5.61156 8.59733 4.6348C8.68748 4.23336 8.73364 3.82329 8.73497 3.41186C8.73497 3.20009 8.75085 2.98833 8.76674 2.77921C8.76674 2.68127 8.78262 2.58598 8.79056 2.48803C8.80148 2.19053 8.84407 1.89504 8.91762 1.60656C9.06585 1.10892 9.51056 0.825682 10.1353 0.825682C10.4093 0.812711 10.6805 0.886251 10.9104 1.03589C11.1403 1.18553 11.3173 1.4037 11.4164 1.65951C11.8869 2.8527 11.9982 4.15739 11.7367 5.41303C11.6229 5.94245 11.472 6.47186 11.2973 6.9748C11.2206 7.22362 11.1411 7.47509 11.067 7.72656H15.5406C15.9209 7.72244 16.2894 7.85868 16.5756 8.10921C16.8617 8.35974 17.0455 8.70698 17.0917 9.08451C17.1114 9.29401 17.0872 9.50531 17.0207 9.70494C16.9541 9.90456 16.8467 10.0881 16.7053 10.2439L16.6788 10.273C16.936 10.353 17.1671 10.5001 17.3485 10.6992C17.4903 10.8542 17.598 11.0373 17.6645 11.2366C17.7311 11.4358 17.7551 11.6469 17.735 11.856Z" fill="currentColor"></path>
  </symbol>
  <symbol fill="none" xmlns="http://www.w3.org/2000/svg" viewBox="0 0 24 24" id="mastercard">
    <path id="Vector" d="M3 11V15.8002C3 16.9203 3 17.4801 3.21799 17.9079C3.40973 18.2842 3.71547 18.5905 4.0918 18.7822C4.5192 19 5.07899 19 6.19691 19H17.8031C18.921 19 19.48 19 19.9074 18.7822C20.2837 18.5905 20.5905 18.2842 20.7822 17.9079C21 17.4805 21 16.9215 21 15.8036V11M3 11V9M3 11H21M3 9V8.2002C3 7.08009 3 6.51962 3.21799 6.0918C3.40973 5.71547 3.71547 5.40973 4.0918 5.21799C4.51962 5 5.08009 5 6.2002 5H17.8002C18.9203 5 19.4796 5 19.9074 5.21799C20.2837 5.40973 20.5905 5.71547 20.7822 6.0918C21 6.5192 21 7.07899 21 8.19691V9M3 9H21M7 15H11M21 11V9" stroke="currentColor" stroke-width="2" stroke-linecap="round" stroke-linejoin="round"></path>
  </symbol>
  <symbol fill="none" xmlns="http://www.w3.org/2000/svg" viewBox="0 0 32 32" id="menu">
    <path d="M6.66602 22.6663H25.3327M6.66602 15.9997H25.3327M6.66602 9.33301H25.3327" stroke="currentColor" stroke-width="2" stroke-linecap="round" stroke-linejoin="round"></path>
  </symbol>
  <symbol fill="none" xmlns="http://www.w3.org/2000/svg" viewBox="0 0 24 24" id="minus">
    <path d="M6 12H18" stroke="#021A15" stroke-width="2" stroke-linecap="round" stroke-linejoin="round"></path>
  </symbol>
  <symbol fill="none" xmlns="http://www.w3.org/2000/svg" viewBox="0 0 24 24" id="next">
    <path d="M21 12l-5-5m5 5l-5 5m5-5H3" stroke="currentColor" stroke-width="2" stroke-linecap="round" stroke-linejoin="round"></path>
  </symbol>
  <symbol fill="none" xmlns="http://www.w3.org/2000/svg" viewBox="0 0 25 24" id="next1">
    <path d="M10.5 8L14.5 12L10.5 16" stroke="currentColor" stroke-width="2" stroke-linecap="round" stroke-linejoin="round"></path>
  </symbol>
  <symbol fill="none" xmlns="http://www.w3.org/2000/svg" viewBox="0 0 141 141" id="play">
    <path d="M17.625 70.5c0 29.202 23.673 52.875 52.875 52.875s52.875-23.673 52.875-52.875S99.702 17.625 70.5 17.625 17.625 41.298 17.625 70.5z" stroke="currentColor" stroke-width="2" stroke-linecap="round" stroke-linejoin="round"></path>
    <path d="M58.75 88.125v-35.25L88.125 70.5 58.75 88.125z" stroke="currentColor" stroke-width="2" stroke-linecap="round" stroke-linejoin="round"></path>
  </symbol>
  <symbol fill="none" xmlns="http://www.w3.org/2000/svg" viewBox="0 0 141 141" id="play-color">
    <path d="M17.625 70.5C17.625 99.7021 41.2979 123.375 70.5 123.375C99.7021 123.375 123.375 99.7021 123.375 70.5C123.375 41.2979 99.7021 17.625 70.5 17.625C41.2979 17.625 17.625 41.2979 17.625 70.5Z" stroke="#FCA64F" stroke-width="2" stroke-linecap="round" stroke-linejoin="round"></path>
    <path d="M58.75 88.125V52.875L88.125 70.5L58.75 88.125Z" stroke="#FCA64F" stroke-width="2" stroke-linecap="round" stroke-linejoin="round"></path>
  </symbol>
  <symbol fill="none" xmlns="http://www.w3.org/2000/svg" viewBox="0 0 24 24" id="plus">
    <path d="M6 12H12M12 12H18M12 12V18M12 12V6" stroke="#021A15" stroke-width="2" stroke-linecap="round" stroke-linejoin="round"></path>
  </symbol>
  <symbol fill="none" xmlns="http://www.w3.org/2000/svg" viewBox="0 0 24 24" id="prev">
    <path d="M3 12l5 5m-5-5l5-5m-5 5h18" stroke="currentColor" stroke-width="2" stroke-linecap="round" stroke-linejoin="round"></path>
  </symbol>
  <symbol fill="none" xmlns="http://www.w3.org/2000/svg" viewBox="0 0 25 24" id="prev1">
    <path d="M14.5 16L10.5 12L14.5 8" stroke="currentColor" stroke-width="2" stroke-linecap="round" stroke-linejoin="round"></path>
  </symbol>
  <symbol fill="none" xmlns="http://www.w3.org/2000/svg" viewBox="0 0 25 24" id="refresh">
    <path d="M14.5 16H19.5V21M10.5 8H5.5V3M19.9176 9.0034C19.3569 7.61566 18.4181 6.41304 17.208 5.53223C15.9979 4.65141 14.5652 4.12752 13.0723 4.02051C11.5794 3.9135 10.0861 4.2274 8.7627 4.92661C7.43933 5.62582 6.33882 6.68254 5.58594 7.97612M5.08203 14.9971C5.64272 16.3848 6.58146 17.5874 7.79157 18.4682C9.00169 19.3491 10.4359 19.8723 11.9288 19.9793C13.4217 20.0863 14.9138 19.7725 16.2371 19.0732C17.5605 18.374 18.6603 17.3175 19.4131 16.0239" stroke="currentColor" stroke-width="2" stroke-linecap="round" stroke-linejoin="round"></path>
  </symbol>
  <symbol fill="none" xmlns="http://www.w3.org/2000/svg" viewBox="0 0 25 24" id="repeat">
    <path d="M14.5 16H19.5V21M10.5 8H5.5V3M19.9176 9.0034C19.3569 7.61566 18.4181 6.41304 17.208 5.53223C15.9979 4.65141 14.5652 4.12752 13.0723 4.02051C11.5794 3.9135 10.0861 4.2274 8.7627 4.92661C7.43933 5.62582 6.33882 6.68254 5.58594 7.97612M5.08203 14.9971C5.64272 16.3848 6.58146 17.5874 7.79157 18.4682C9.00169 19.3491 10.4359 19.8723 11.9288 19.9793C13.4217 20.0863 14.9138 19.7725 16.2371 19.0732C17.5605 18.374 18.6603 17.3175 19.4131 16.0239" stroke="currentColor" stroke-width="2" stroke-linecap="round" stroke-linejoin="round"></path>
  </symbol>
  <symbol fill="none" xmlns="http://www.w3.org/2000/svg" viewBox="0 0 25 25" id="search">
    <path d="M15.541 15.27l6 6m-11-4a7 7 0 110-14 7 7 0 010 14z" stroke="currentColor" stroke-width="2" stroke-linecap="round" stroke-linejoin="round"></path>
  </symbol>
  <symbol fill="none" xmlns="http://www.w3.org/2000/svg" viewBox="0 0 16 16" id="shield">
    <path fill-rule="evenodd" clip-rule="evenodd" d="M4.77445 1.3335H11.2259C11.5773 1.33348 11.8803 1.33347 12.1299 1.35388C12.3935 1.37542 12.6554 1.42299 12.9076 1.55148C13.2832 1.74286 13.59 2.04832 13.7822 2.42537C13.9106 2.67749 13.9581 2.93954 13.9796 3.20281C14 3.45226 14 3.75503 14 4.10576V6.77686C14 11.5641 10.3635 13.6957 8.8921 14.3618L8.88479 14.3651C8.72553 14.4372 8.58934 14.4984 8.33871 14.5414C8.22861 14.5603 8.09697 14.5647 8.00034 14.5647C7.9037 14.5647 7.77206 14.5603 7.66196 14.5414C7.40843 14.4979 7.27153 14.4359 7.10835 14.3621L7.10773 14.3618C5.63626 13.6957 2 11.5641 2 6.77686L2 4.10795C1.99999 3.7565 1.99998 3.45326 2.02038 3.20349C2.04191 2.93991 2.08944 2.67766 2.21799 2.42537C2.40973 2.04904 2.71555 1.74323 3.09187 1.55148C3.34416 1.42293 3.60641 1.3754 3.86999 1.35388C4.11977 1.33347 4.423 1.33348 4.77445 1.3335ZM3.97853 2.68278C3.7973 2.69759 3.73012 2.72272 3.69719 2.73949C3.57175 2.80341 3.46991 2.90525 3.406 3.03069C3.38922 3.06361 3.36409 3.1308 3.34929 3.31203C3.33385 3.501 3.33333 3.74927 3.33333 4.13363V6.77686C3.33333 10.7473 6.32081 12.542 7.65754 13.1471C7.73789 13.1835 7.76621 13.1957 7.79173 13.2046C7.80828 13.2104 7.83155 13.2176 7.88442 13.2268C7.88524 13.2268 7.89454 13.2279 7.91408 13.2291C7.93827 13.2305 7.96825 13.2314 8.00034 13.2314C8.03242 13.2314 8.0624 13.2305 8.08659 13.2291C8.10612 13.2279 8.11542 13.2268 8.11624 13.2268C8.16863 13.2176 8.19143 13.2106 8.20746 13.205C8.23264 13.1961 8.26033 13.1841 8.34051 13.1479L8.34782 13.1445C9.68728 12.537 12.6667 10.7418 12.6667 6.77686V4.13144C12.6667 3.7478 12.6661 3.50003 12.6507 3.3114C12.636 3.13052 12.6109 3.0635 12.5941 3.03069C12.5306 2.90597 12.4284 2.80378 12.3023 2.73949C12.2692 2.72266 12.2022 2.69757 12.0213 2.68278C11.8325 2.66735 11.5845 2.66683 11.2001 2.66683H4.80013C4.41577 2.66683 4.1675 2.66735 3.97853 2.68278ZM10.4714 5.52876C10.7318 5.78911 10.7318 6.21122 10.4714 6.47157L7.80474 9.13824C7.54439 9.39859 7.12228 9.39859 6.86193 9.13824L5.5286 7.8049C5.26825 7.54455 5.26825 7.12244 5.5286 6.86209C5.78895 6.60174 6.21106 6.60174 6.47141 6.86209L7.33333 7.72402L9.5286 5.52876C9.78895 5.26841 10.2111 5.26841 10.4714 5.52876Z" fill="currentColor"></path>
  </symbol>
  <symbol fill="none" xmlns="http://www.w3.org/2000/svg" viewBox="0 0 24 24" id="shield2">
    <path id="Vector" d="M12.9258 20.6314C15.0319 19.6781 20 16.7333 20 10.165V6.19691C20 5.07899 20 4.5192 19.7822 4.0918C19.5905 3.71547 19.2837 3.40973 18.9074 3.21799C18.4796 3 17.9203 3 16.8002 3H7.2002C6.08009 3 5.51962 3 5.0918 3.21799C4.71547 3.40973 4.40973 3.71547 4.21799 4.0918C4 4.51962 4 5.08009 4 6.2002V10.165C4 16.7333 8.9678 19.6781 11.074 20.6314C11.2972 20.7325 11.4094 20.7829 11.6621 20.8263C11.8215 20.8537 12.1795 20.8537 12.3389 20.8263C12.5907 20.7831 12.7017 20.7328 12.9235 20.6324L12.9258 20.6314Z" stroke="currentColor" stroke-width="2" stroke-linecap="round" stroke-linejoin="round"></path>
  </symbol>
  <symbol fill="none" xmlns="http://www.w3.org/2000/svg" viewBox="0 0 25 24" id="star">
    <path d="M2.835 10.337a.5.5 0 01.28-.864l6.004-.712a.5.5 0 00.396-.287l2.532-5.49a.5.5 0 01.908 0l2.532 5.49a.499.499 0 00.395.287l6.004.712a.5.5 0 01.28.864l-4.438 4.105a.5.5 0 00-.15.464l1.177 5.93a.5.5 0 01-.735.534l-5.275-2.953a.499.499 0 00-.488 0l-5.276 2.952a.5.5 0 01-.735-.533l1.178-5.93a.5.5 0 00-.15-.464l-4.439-4.105z" fill="currentColor" stroke="currentColor" stroke-width="2" stroke-linecap="round" stroke-linejoin="round"></path>
  </symbol>
  <symbol fill="none" xmlns="http://www.w3.org/2000/svg" viewBox="0 0 16 17" id="trash">
    <path id="Vector (Stroke)" fill-rule="evenodd" clip-rule="evenodd" d="M7.31202 1.83325H8.68799C8.98042 1.83324 9.23275 1.83324 9.44159 1.84749C9.66147 1.86249 9.88141 1.89549 10.0987 1.98549C10.589 2.18856 10.9781 2.57818 11.181 3.06804C11.271 3.28526 11.304 3.50511 11.3191 3.725C11.3214 3.75988 11.3234 3.79597 11.3251 3.83325H13.3333C13.7015 3.83325 14 4.13173 14 4.49992C14 4.86811 13.7015 5.16659 13.3333 5.16659H12.6667V12.3943C12.6667 12.745 12.6667 13.0477 12.6463 13.2971C12.6248 13.5603 12.5773 13.8222 12.4488 14.0743C12.257 14.4508 11.9504 14.7571 11.5743 14.9487C11.3222 15.0772 11.0604 15.1247 10.7971 15.1462C10.5478 15.1666 10.2451 15.1666 9.8944 15.1666H6.10559C5.75487 15.1666 5.4521 15.1666 5.20264 15.1462C4.93937 15.1247 4.67733 15.0772 4.42521 14.9487C4.0483 14.7567 3.74277 14.45 3.55132 14.0743C3.42281 13.8221 3.37525 13.56 3.35371 13.2965C3.33331 13.0468 3.33332 12.7437 3.33333 12.3923L3.33333 5.16659H2.66667C2.29848 5.16659 2 4.86811 2 4.49992C2 4.13173 2.29848 3.83325 2.66667 3.83325H4.67489C4.67654 3.79599 4.67852 3.75992 4.6809 3.72507C4.69591 3.50519 4.72891 3.2853 4.81891 3.06804C5.02177 2.57828 5.41078 2.1886 5.90113 1.98549C6.11844 1.89548 6.33844 1.86249 6.55834 1.84749C6.76721 1.83324 7.01958 1.83324 7.31202 1.83325ZM6.01001 3.83325C6.01037 3.82738 6.01075 3.82158 6.01114 3.81585C6.02151 3.66391 6.03925 3.60605 6.05075 3.57828C6.11853 3.41464 6.24831 3.28487 6.41137 3.21733C6.43909 3.20585 6.497 3.1881 6.64908 3.17773C6.80711 3.16695 7.01359 3.16659 7.33333 3.16659H8.66667C8.98642 3.16659 9.19284 3.16695 9.35083 3.17773C9.50283 3.1881 9.56071 3.20584 9.58846 3.21733C9.75161 3.28491 9.88144 3.41473 9.94918 3.57828C9.9607 3.60609 9.97845 3.664 9.98883 3.81591C9.98922 3.82162 9.9896 3.82741 9.98996 3.83325H6.01001ZM4.66667 5.16659V12.3666C4.66667 12.751 4.66719 12.9991 4.68262 13.1879C4.69741 13.3689 4.72252 13.436 4.73933 13.469C4.80354 13.595 4.90567 13.6971 5.03052 13.7607C5.06333 13.7774 5.13036 13.8025 5.31124 13.8173C5.49987 13.8327 5.74764 13.8333 6.13127 13.8333H9.86873C10.2524 13.8333 10.5 13.8327 10.6885 13.8173C10.8691 13.8026 10.936 13.7775 10.9689 13.7607C11.0945 13.6967 11.197 13.5943 11.2608 13.469C11.2776 13.4361 11.3026 13.3692 11.3174 13.1885C11.3328 12.9999 11.3333 12.7523 11.3333 12.3686V5.16659H4.66667ZM6.66667 6.49992C7.03486 6.49992 7.33333 6.7984 7.33333 7.16659V11.8333C7.33333 12.2014 7.03486 12.4999 6.66667 12.4999C6.29848 12.4999 6 12.2014 6 11.8333V7.16659C6 6.7984 6.29848 6.49992 6.66667 6.49992ZM9.33333 6.49992C9.70152 6.49992 10 6.7984 10 7.16659V11.8333C10 12.2014 9.70152 12.4999 9.33333 12.4999C8.96514 12.4999 8.66667 12.2014 8.66667 11.8333V7.16659C8.66667 6.7984 8.96514 6.49992 9.33333 6.49992Z" fill="currentColor"></path>
  </symbol>
  <symbol fill="none" xmlns="http://www.w3.org/2000/svg" viewBox="0 0 20 21" id="user">
    <path fill-rule="evenodd" clip-rule="evenodd" d="M10 3.77a3.167 3.167 0 100 6.333 3.167 3.167 0 000-6.333zM4.835 6.937a5.167 5.167 0 1110.333 0 5.167 5.167 0 01-10.333 0zm-.077 7.039c1.389-.868 3.245-1.373 5.244-1.373 1.998 0 3.855.505 5.244 1.373 1.375.86 2.422 2.174 2.422 3.794a1 1 0 11-2 0c0-.681-.444-1.45-1.482-2.098-1.024-.64-2.5-1.069-4.184-1.069-1.684 0-3.16.429-4.184 1.069-1.038.648-1.483 1.417-1.483 2.098a1 1 0 11-2 0c0-1.62 1.048-2.935 2.423-3.794z" fill="currentColor"></path>
  </symbol>
  <symbol fill="none" xmlns="http://www.w3.org/2000/svg" viewBox="0 0 33 33" id="vk">
    <path d="M16.693.27a16 16 0 100 32 16 16 0 000-32zm9.222 22.262c-.465.065-2.742 0-2.86 0a2.234 2.234 0 01-1.58-.626c-.48-.463-.909-.972-1.378-1.454a3.665 3.665 0 00-.45-.407c-.374-.288-.744-.224-.92.22a8.614 8.614 0 00-.288 1.46c-.031.447-.315.727-.817.758a11.32 11.32 0 01-.929.014 7.063 7.063 0 01-3.216-.794 8.752 8.752 0 01-2.75-2.404c-1.214-1.549-2.183-3.25-3.048-5.005-.046-.09-.933-1.977-.955-2.066-.08-.296 0-.582.246-.682.156-.06 3.08 0 3.129 0a1.025 1.025 0 01.982.708 15.276 15.276 0 002.196 3.85 2.1 2.1 0 00.446.406c.238.164.463.107.561-.17.117-.38.185-.774.204-1.172.016-.789 0-1.307-.044-2.096-.029-.506-.207-.947-.953-1.091-.229-.042-.248-.231-.101-.42.307-.391.727-.455 1.198-.478.702-.04 1.404-.013 2.105 0h.153c.305-.001.61.03.91.092a.838.838 0 01.666.748c.037.199.052.401.046.603-.018.86-.06 1.722-.07 2.582-.008.341.024.682.093 1.017.1.458.415.572.728.241.405-.426.776-.884 1.11-1.369a13.773 13.773 0 001.455-2.827c.204-.51.364-.624.91-.624h3.101c.185-.003.368.022.546.073a.47.47 0 01.325.61c-.153.68-.52 1.26-.909 1.817-.63.893-1.296 1.764-1.942 2.646a3.573 3.573 0 00-.213.354c-.243.44-.225.686.128 1.05.563.58 1.165 1.121 1.709 1.718.399.434.759.901 1.076 1.398.387.625.142 1.214-.6 1.32z" fill="currentColor"></path>
  </symbol>
</svg>
