<svg width="0" height="0" class="hidden">
  <symbol fill="none" xmlns="http://www.w3.org/2000/svg" viewBox="0 0 20 21" id="user">
    <path fill-rule="evenodd" clip-rule="evenodd" d="M10 3.77a3.167 3.167 0 100 6.333 3.167 3.167 0 000-6.333zM4.835 6.937a5.167 5.167 0 1110.333 0 5.167 5.167 0 01-10.333 0zm-.077 7.039c1.389-.868 3.245-1.373 5.244-1.373 1.998 0 3.855.505 5.244 1.373 1.375.86 2.422 2.174 2.422 3.794a1 1 0 11-2 0c0-.681-.444-1.45-1.482-2.098-1.024-.64-2.5-1.069-4.184-1.069-1.684 0-3.16.429-4.184 1.069-1.038.648-1.483 1.417-1.483 2.098a1 1 0 11-2 0c0-1.62 1.048-2.935 2.423-3.794z" fill="currentColor"></path>
  </symbol>
  <symbol fill="none" xmlns="http://www.w3.org/2000/svg" viewBox="0 0 33 33" id="vk">
    <path d="M16.693.27a16 16 0 100 32 16 16 0 000-32zm9.222 22.262c-.465.065-2.742 0-2.86 0a2.234 2.234 0 01-1.58-.626c-.48-.463-.909-.972-1.378-1.454a3.665 3.665 0 00-.45-.407c-.374-.288-.744-.224-.92.22a8.614 8.614 0 00-.288 1.46c-.031.447-.315.727-.817.758a11.32 11.32 0 01-.929.014 7.063 7.063 0 01-3.216-.794 8.752 8.752 0 01-2.75-2.404c-1.214-1.549-2.183-3.25-3.048-5.005-.046-.09-.933-1.977-.955-2.066-.08-.296 0-.582.246-.682.156-.06 3.08 0 3.129 0a1.025 1.025 0 01.982.708 15.276 15.276 0 002.196 3.85 2.1 2.1 0 00.446.406c.238.164.463.107.561-.17.117-.38.185-.774.204-1.172.016-.789 0-1.307-.044-2.096-.029-.506-.207-.947-.953-1.091-.229-.042-.248-.231-.101-.42.307-.391.727-.455 1.198-.478.702-.04 1.404-.013 2.105 0h.153c.305-.001.61.03.91.092a.838.838 0 01.666.748c.037.199.052.401.046.603-.018.86-.06 1.722-.07 2.582-.008.341.024.682.093 1.017.1.458.415.572.728.241.405-.426.776-.884 1.11-1.369a13.773 13.773 0 001.455-2.827c.204-.51.364-.624.91-.624h3.101c.185-.003.368.022.546.073a.47.47 0 01.325.61c-.153.68-.52 1.26-.909 1.817-.63.893-1.296 1.764-1.942 2.646a3.573 3.573 0 00-.213.354c-.243.44-.225.686.128 1.05.563.58 1.165 1.121 1.709 1.718.399.434.759.901 1.076 1.398.387.625.142 1.214-.6 1.32z" fill="currentColor"></path>
  </symbol>
  <symbol fill="none" xmlns="http://www.w3.org/2000/svg" viewBox="0 0 16 16" id="warning">
    <path fill-rule="evenodd" clip-rule="evenodd" d="M8.00065 2.66659C5.05513 2.66659 2.66732 5.0544 2.66732 7.99992C2.66732 10.9454 5.05513 13.3333 8.00065 13.3333C10.9462 13.3333 13.334 10.9454 13.334 7.99992C13.334 5.0544 10.9462 2.66659 8.00065 2.66659ZM1.33398 7.99992C1.33398 4.31802 4.31875 1.33325 8.00065 1.33325C11.6825 1.33325 14.6673 4.31802 14.6673 7.99992C14.6673 11.6818 11.6825 14.6666 8.00065 14.6666C4.31875 14.6666 1.33398 11.6818 1.33398 7.99992ZM8.00065 4.96672C8.36884 4.96672 8.66732 5.26519 8.66732 5.63338V8.30005C8.66732 8.66824 8.36884 8.96671 8.00065 8.96671C7.63246 8.96671 7.33398 8.66824 7.33398 8.30005V5.63338C7.33398 5.26519 7.63246 4.96672 8.00065 4.96672ZM7.30078 10.3C7.30078 9.93186 7.59926 9.63338 7.96745 9.63338H8.03385C8.40204 9.63338 8.70052 9.93186 8.70052 10.3V10.3667C8.70052 10.544 8.62992 10.7139 8.50433 10.839C8.37874 10.9641 8.2085 11.0341 8.03124 11.0334L7.96483 11.0331C7.59767 11.0317 7.30078 10.7336 7.30078 10.3665V10.3Z" fill="currentColor"></path>
  </symbol>
  <symbol fill="none" xmlns="http://www.w3.org/2000/svg" viewBox="0 0 24 25" id="arrow">
    <path d="M16 10.54l-4 4-4-4" stroke="currentColor" stroke-width="2" stroke-linecap="round" stroke-linejoin="round"></path>
  </symbol>
  <symbol fill="none" xmlns="http://www.w3.org/2000/svg" viewBox="0 0 25 24" id="arrow-down">
    <path d="M16.5 10l-4 4-4-4" stroke="currentColor" stroke-width="2" stroke-linecap="round" stroke-linejoin="round"></path>
  </symbol>
  <symbol fill="none" xmlns="http://www.w3.org/2000/svg" viewBox="0 0 20 20" id="arrows">
    <path id="Vector" d="M9.16602 13.3337L6.66602 15.8337M6.66602 15.8337L4.16602 13.3337M6.66602 15.8337V4.16699M10.8327 6.66699L13.3327 4.16699M13.3327 4.16699L15.8327 6.66699M13.3327 4.16699V15.8337" stroke="currentColor" stroke-width="2" stroke-linecap="round" stroke-linejoin="round"></path>
  </symbol>
  <symbol fill="none" xmlns="http://www.w3.org/2000/svg" viewBox="0 0 16 17" id="calendar">
    <path fill-rule="evenodd" clip-rule="evenodd" d="M5.333 1.031c.369 0 .667.299.667.667v.667h4v-.667a.667.667 0 011.333 0v.667c.306 0 .573.002.797.02.263.022.525.07.778.198.375.19.682.496.874.873.129.253.176.515.198.778.02.25.02.552.02.903v6.456c0 .35 0 .653-.02.902a2.035 2.035 0 01-.198.778 2.001 2.001 0 01-.874.874 2.033 2.033 0 01-.777.197c-.25.02-.553.02-.903.02H4.772c-.35 0-.653 0-.903-.02a2.034 2.034 0 01-.777-.197 2 2 0 01-.874-.874 2.036 2.036 0 01-.198-.778C2 12.245 2 11.942 2 11.59V5.14c0-.351 0-.655.02-.904.022-.264.07-.526.198-.779a2 2 0 01.874-.873c.252-.129.514-.177.778-.198.224-.018.49-.02.797-.02v-.667c0-.368.298-.667.666-.667zM3.98 3.714c-.182.015-.249.04-.282.057a.666.666 0 00-.291.29c-.017.034-.042.1-.057.282a9.29 9.29 0 00-.016.688h9.334c0-.31-.003-.522-.016-.689-.015-.18-.04-.247-.057-.28a.667.667 0 00-.292-.291c-.033-.017-.1-.042-.28-.057a11.329 11.329 0 00-.822-.016H4.8c-.384 0-.632 0-.821.016zm8.688 2.65H3.333v5.2c0 .385 0 .633.016.822.015.181.04.248.057.281a.667.667 0 00.291.292c.033.016.1.042.28.056.19.016.437.016.82.016h6.405c.384 0 .631 0 .82-.016.18-.014.247-.04.28-.056a.668.668 0 00.292-.292c.017-.033.042-.1.057-.28a11.3 11.3 0 00.016-.82V6.365zm-8 2c0-.368.298-.666.666-.666h.002A.667.667 0 016 8.38v.001a.667.667 0 01-.682.651h-.002a.667.667 0 01-.65-.666v-.001zm2.666 0c0-.368.299-.666.667-.666h.001a.667.667 0 01.667.682v.001a.667.667 0 01-.683.651.667.667 0 01-.652-.666v-.001zm2.667 0c0-.368.299-.666.667-.666h.001a.667.667 0 11-.016 1.334h-.001A.667.667 0 0110 8.366v-.001zm-5.333 2.667c0-.368.298-.666.666-.666h.002a.667.667 0 01.666.682v.001a.667.667 0 01-.682.651h-.002a.667.667 0 01-.65-.666v-.002zm2.666 0c0-.368.299-.666.667-.666h.001a.667.667 0 01.667.682v.001a.667.667 0 01-.683.651.667.667 0 01-.652-.666v-.002zm2.667 0c0-.368.299-.666.667-.666h.001a.667.667 0 01.667.682v.001a.667.667 0 01-.683.651h-.001a.667.667 0 01-.651-.666v-.002z" fill="currentColor"></path>
  </symbol>
  <symbol fill="none" xmlns="http://www.w3.org/2000/svg" viewBox="0 0 24 25" id="cart">
    <path d="M3 3.27h.268c.474 0 .711 0 .905.086.17.075.316.196.42.35.12.174.163.407.248.871L7 16.27h10.422c.453 0 .68 0 .868-.08a.999.999 0 00.415-.331c.12-.165.171-.385.273-.826v-.003l1.57-6.8v-.001c.154-.669.232-1.004.147-1.267a1.001 1.001 0 00-.44-.55c-.237-.142-.58-.142-1.266-.142H5.5m12.5 15a1 1 0 110-2 1 1 0 010 2zm-10 0a1 1 0 110-2 1 1 0 010 2z" stroke="currentColor" stroke-width="2" stroke-linecap="round" stroke-linejoin="round"></path>
  </symbol>
  <symbol fill="none" xmlns="http://www.w3.org/2000/svg" viewBox="0 0 24 24" id="check">
    <path d="M6 12l4.243 4.243 8.484-8.486" stroke="currentColor" stroke-width="2" stroke-linecap="round" stroke-linejoin="round"></path>
  </symbol>
  <symbol fill="none" xmlns="http://www.w3.org/2000/svg" viewBox="0 0 16 16" id="check-white">
    <path d="M4.316 7.94l2.648 2.648 5.294-5.295" stroke="#fff" stroke-width="2" stroke-linecap="round" stroke-linejoin="round"></path>
  </symbol>
  <symbol fill="none" xmlns="http://www.w3.org/2000/svg" viewBox="0 0 24 24" id="close">
    <path id="Vector" d="M18 18L12 12M12 12L6 6M12 12L18 6M12 12L6 18" stroke="currentColor" stroke-width="2" stroke-linecap="round" stroke-linejoin="round"></path>
  </symbol>
  <symbol fill="none" xmlns="http://www.w3.org/2000/svg" viewBox="0 0 32 33" id="circle-arrow">
    <path d="M17.333 20.364l4-4m0 0l-4-4m4 4H10.667m17.333 0c0-6.627-5.373-12-12-12s-12 5.373-12 12c0 6.628 5.373 12 12 12s12-5.372 12-12z" stroke="currentColor" stroke-width="2" stroke-linecap="round" stroke-linejoin="round"></path>
  </symbol>
  <symbol fill="none" xmlns="http://www.w3.org/2000/svg" viewBox="0 0 18 19" id="dislike">
    <path d="M12.2894 11.0459C12.2894 7.97181 12.2894 4.89681 12.2894 1.82093C12.2894 1.08769 12.5356 0.838868 13.2661 0.833574L14.8544 0.833574L16.5379 0.833574L16.7576 0.833574C17.4697 0.838868 17.7344 1.11681 17.7344 1.82357L17.7344 7.95946C17.7344 8.98652 17.7344 10.0171 17.7344 11.0512C17.7344 11.7712 17.4697 12.0386 16.7576 12.0386L13.2688 12.0386C12.5461 12.0386 12.2894 11.7792 12.2894 11.0459Z" fill="currentColor"></path>
    <path d="M0.265028 7.14402C0.295437 6.87089 0.399738 6.61121 0.566714 6.39293C0.733689 6.17465 0.957019 6.00603 1.21268 5.9052L1.13326 5.82314C0.992012 5.66731 0.884899 5.48367 0.8188 5.284C0.752701 5.08434 0.729077 4.87306 0.74944 4.66373C0.789528 4.33708 0.933695 4.032 1.16062 3.79364C1.38753 3.55528 1.68515 3.39629 2.00944 3.3402C1.87147 3.18732 1.76681 3.00742 1.7021 2.81193C1.63739 2.61643 1.61405 2.40961 1.63356 2.20461C1.67693 1.82284 1.86091 1.47091 2.14964 1.21742C2.43837 0.963922 2.81116 0.827031 3.19532 0.833434L4.9715 0.833434L5.02444 0.833434L5.24944 0.833434C6.15738 0.833435 7.10238 0.833435 8.01826 0.833435L8.10826 0.833435C9.36216 0.86955 10.6012 1.11468 11.7744 1.55873C11.7643 1.64659 11.7599 1.73501 11.7612 1.82343C11.7612 4.90108 11.7612 7.97608 11.7612 11.0484C11.7603 11.1858 11.7709 11.3231 11.793 11.4587L11.4462 11.7605C11.335 11.8531 11.2239 11.9484 11.1153 12.0464C10.3874 12.6843 9.65679 13.3884 9.40268 14.3652C9.31252 14.7666 9.26636 15.1767 9.26503 15.5881C9.26503 15.7999 9.24915 16.0117 9.23326 16.2208C9.23326 16.3187 9.21738 16.414 9.20944 16.512C9.19852 16.8095 9.15593 17.105 9.08238 17.3934C8.93415 17.8911 8.48944 18.1743 7.86473 18.1743C7.59071 18.1873 7.31954 18.1137 7.08962 17.9641C6.85969 17.8145 6.68265 17.5963 6.58356 17.3405C6.11314 16.1473 6.00181 14.8426 6.26326 13.587C6.37709 13.0576 6.52797 12.5281 6.70267 12.0252C6.77944 11.7764 6.85885 11.5249 6.93297 11.2734L2.45944 11.2734C2.07911 11.2776 1.71062 11.1413 1.42444 10.8908C1.13826 10.6403 0.954482 10.293 0.908263 9.91549C0.888581 9.70599 0.912783 9.49469 0.979325 9.29506C1.04587 9.09544 1.15329 8.91187 1.29473 8.75608L1.32121 8.72696C1.06404 8.64699 0.83286 8.49988 0.651499 8.30079C0.509707 8.14576 0.402043 7.96269 0.33547 7.76343C0.268897 7.56417 0.244898 7.35315 0.265028 7.14402Z" fill="currentColor"></path>
  </symbol>
  <symbol fill="none" xmlns="http://www.w3.org/2000/svg" viewBox="0 0 20 20" id="filters">
    <path id="Vector" d="M11.6667 15.0003H17.5M2.5 15.0003H4.16667M4.16667 15.0003C4.16667 16.1509 5.09941 17.0837 6.25 17.0837C7.40059 17.0837 8.33333 16.1509 8.33333 15.0003C8.33333 13.8497 7.40059 12.917 6.25 12.917C5.09941 12.917 4.16667 13.8497 4.16667 15.0003ZM16.6667 10.0003H17.5M2.5 10.0003H8.33333M10.8333 5.00033H17.5M10.8333 5.00033C10.8333 3.84973 9.90059 2.91699 8.75 2.91699C7.59941 2.91699 6.66667 3.84973 6.66667 5.00033C6.66667 6.15092 7.59941 7.08366 8.75 7.08366C9.90059 7.08366 10.8333 6.15092 10.8333 5.00033ZM2.5 5.00033H3.33333M13.75 12.0837C12.5994 12.0837 11.6667 11.1509 11.6667 10.0003C11.6667 8.84973 12.5994 7.91699 13.75 7.91699C14.9006 7.91699 15.8333 8.84973 15.8333 10.0003C15.8333 11.1509 14.9006 12.0837 13.75 12.0837Z" stroke="currentColor" stroke-width="1.66667" stroke-linecap="round" stroke-linejoin="round"></path>
  </symbol>
  <symbol fill="none" xmlns="http://www.w3.org/2000/svg" viewBox="0 0 25 24" id="first">
    <path d="M17.5 16L13.5 12L17.5 8M11.5 16L7.5 12L11.5 8" stroke="currentColor" stroke-width="2" stroke-linecap="round" stroke-linejoin="round"></path>
  </symbol>
  <symbol fill="none" xmlns="http://www.w3.org/2000/svg" viewBox="0 0 24 25" id="heart">
    <path d="M19.237 6.507a4.098 4.098 0 01.135 5.654l-7.373 8.11-7.37-8.11a4.098 4.098 0 116.23-5.316L12 8.27l1.14-1.425a4.098 4.098 0 016.097-.338z" stroke="currentColor" stroke-width="2" stroke-linecap="round" stroke-linejoin="round"></path>
  </symbol>
  <symbol fill="none" xmlns="http://www.w3.org/2000/svg" viewBox="0 0 33 33" id="insta">
    <g clip-path="url(#clip0_107_4478)" fill="currentColor">
      <path d="M19.756 16.27a3.062 3.062 0 11-6.125 0 3.062 3.062 0 016.125 0z"></path>
      <path d="M23.855 10.852a2.846 2.846 0 00-.688-1.057 2.845 2.845 0 00-1.056-.687c-.324-.126-.81-.275-1.706-.316-.969-.044-1.26-.054-3.713-.054-2.453 0-2.744.01-3.712.053-.896.042-1.383.191-1.706.317-.4.147-.76.382-1.056.687-.306.297-.54.657-.688 1.057-.126.323-.275.81-.316 1.706-.044.968-.054 1.259-.054 3.712 0 2.453.01 2.744.054 3.713.04.896.19 1.382.316 1.706.147.399.382.76.687 1.056.297.305.657.54 1.057.687.323.126.81.276 1.706.317.968.044 1.259.053 3.712.053 2.454 0 2.744-.009 3.713-.053.895-.041 1.382-.19 1.706-.317a3.043 3.043 0 001.744-1.743c.125-.324.275-.81.316-1.706.044-.97.053-1.26.053-3.713 0-2.453-.009-2.744-.053-3.712-.04-.896-.19-1.383-.316-1.706zm-7.163 10.136a4.718 4.718 0 110-9.436 4.718 4.718 0 010 9.436zm4.905-8.52a1.103 1.103 0 110-2.205 1.103 1.103 0 010 2.205z"></path>
      <path d="M16.693.27c-8.835 0-16 7.165-16 16s7.165 16 16 16c8.836 0 16-7.165 16-16s-7.164-16-16-16zm9.132 19.788c-.044.978-.2 1.646-.427 2.23a4.698 4.698 0 01-2.687 2.687c-.584.227-1.252.382-2.23.427-.98.045-1.292.055-3.787.055-2.496 0-2.808-.01-3.788-.055-.978-.045-1.646-.2-2.23-.427a4.502 4.502 0 01-1.628-1.06 4.504 4.504 0 01-1.06-1.627c-.227-.584-.382-1.252-.426-2.23-.046-.98-.056-1.293-.056-3.788s.01-2.808.055-3.788c.045-.978.2-1.646.427-2.23a4.5 4.5 0 011.06-1.627 4.5 4.5 0 011.627-1.06c.585-.227 1.252-.382 2.23-.427.98-.045 1.293-.055 3.788-.055s2.808.01 3.788.055c.978.045 1.646.2 2.23.427.614.23 1.169.592 1.628 1.06a4.5 4.5 0 011.06 1.627c.227.584.382 1.252.427 2.23.044.98.055 1.293.055 3.788s-.01 2.808-.056 3.788z"></path>
    </g>
    <defs>
      <clipPath id="clip0_107_4478">
        <path fill="#fff" transform="translate(.693 .27)" d="M0 0h32v32H0z"></path>
      </clipPath>
    </defs>
  </symbol>
  <symbol fill="none" xmlns="http://www.w3.org/2000/svg" viewBox="0 0 25 24" id="last">
    <path d="M7.5 8L11.5 12L7.5 16M13.5 8L17.5 12L13.5 16" stroke="currentColor" stroke-width="2" stroke-linecap="round" stroke-linejoin="round"></path>
  </symbol>
  <symbol fill="none" xmlns="http://www.w3.org/2000/svg" viewBox="0 0 32 32" id="menu">
    <path d="M6.66602 22.6663H25.3327M6.66602 15.9997H25.3327M6.66602 9.33301H25.3327" stroke="currentColor" stroke-width="2" stroke-linecap="round" stroke-linejoin="round"></path>
  </symbol>
  <symbol fill="none" xmlns="http://www.w3.org/2000/svg" viewBox="0 0 18 19" id="like">
    <path d="M5.71063 7.95407C5.71063 11.0282 5.71063 14.1032 5.71063 17.1791C5.71063 17.9123 5.46445 18.1611 4.73386 18.1664H3.14563H1.4621H1.24239C0.530331 18.1611 0.265625 17.8832 0.265625 17.1764V11.0405C0.265625 10.0135 0.265625 8.9829 0.265625 7.94878C0.265625 7.22878 0.530331 6.96143 1.24239 6.96143H4.73121C5.45386 6.96143 5.71063 7.22084 5.71063 7.95407Z" fill="currentColor"></path>
    <path d="M17.735 11.856C17.7046 12.1291 17.6003 12.3888 17.4333 12.6071C17.2663 12.8253 17.043 12.994 16.7873 13.0948L16.8667 13.1769C17.008 13.3327 17.1151 13.5163 17.1812 13.716C17.2473 13.9157 17.2709 14.1269 17.2506 14.3363C17.2105 14.6629 17.0663 14.968 16.8394 15.2064C16.6125 15.4447 16.3148 15.6037 15.9906 15.6598C16.1285 15.8127 16.2332 15.9926 16.2979 16.1881C16.3626 16.3836 16.386 16.5904 16.3664 16.7954C16.3231 17.1772 16.1391 17.5291 15.8504 17.7826C15.5616 18.0361 15.1888 18.173 14.8047 18.1666H13.0285H12.9756H12.7506C11.8426 18.1666 10.8976 18.1666 9.98174 18.1666H9.89174C8.63784 18.1304 7.39876 17.8853 6.22556 17.4413C6.23568 17.3534 6.2401 17.265 6.2388 17.1766C6.2388 14.0989 6.2388 11.0239 6.2388 7.95156C6.23969 7.81415 6.22906 7.67691 6.20703 7.54127L6.5538 7.23951C6.66497 7.14686 6.77615 7.05156 6.88468 6.95362C7.61262 6.31568 8.34321 5.61156 8.59733 4.6348C8.68748 4.23336 8.73364 3.82329 8.73497 3.41186C8.73497 3.20009 8.75085 2.98833 8.76674 2.77921C8.76674 2.68127 8.78262 2.58598 8.79056 2.48803C8.80148 2.19053 8.84407 1.89504 8.91762 1.60656C9.06585 1.10892 9.51056 0.825682 10.1353 0.825682C10.4093 0.812711 10.6805 0.886251 10.9104 1.03589C11.1403 1.18553 11.3173 1.4037 11.4164 1.65951C11.8869 2.8527 11.9982 4.15739 11.7367 5.41303C11.6229 5.94245 11.472 6.47186 11.2973 6.9748C11.2206 7.22362 11.1411 7.47509 11.067 7.72656H15.5406C15.9209 7.72244 16.2894 7.85868 16.5756 8.10921C16.8617 8.35974 17.0455 8.70698 17.0917 9.08451C17.1114 9.29401 17.0872 9.50531 17.0207 9.70494C16.9541 9.90456 16.8467 10.0881 16.7053 10.2439L16.6788 10.273C16.936 10.353 17.1671 10.5001 17.3485 10.6992C17.4903 10.8542 17.598 11.0373 17.6645 11.2366C17.7311 11.4358 17.7551 11.6469 17.735 11.856Z" fill="currentColor"></path>
  </symbol>
  <symbol fill="none" xmlns="http://www.w3.org/2000/svg" viewBox="0 0 25 24" id="next1">
    <path d="M10.5 8L14.5 12L10.5 16" stroke="currentColor" stroke-width="2" stroke-linecap="round" stroke-linejoin="round"></path>
  </symbol>
  <symbol fill="none" xmlns="http://www.w3.org/2000/svg" viewBox="0 0 141 141" id="play">
    <path d="M17.625 70.5c0 29.202 23.673 52.875 52.875 52.875s52.875-23.673 52.875-52.875S99.702 17.625 70.5 17.625 17.625 41.298 17.625 70.5z" stroke="currentColor" stroke-width="2" stroke-linecap="round" stroke-linejoin="round"></path>
    <path d="M58.75 88.125v-35.25L88.125 70.5 58.75 88.125z" stroke="currentColor" stroke-width="2" stroke-linecap="round" stroke-linejoin="round"></path>
  </symbol>
  <symbol fill="none" xmlns="http://www.w3.org/2000/svg" viewBox="0 0 24 24" id="next">
    <path d="M21 12l-5-5m5 5l-5 5m5-5H3" stroke="currentColor" stroke-width="2" stroke-linecap="round" stroke-linejoin="round"></path>
  </symbol>
  <symbol fill="none" xmlns="http://www.w3.org/2000/svg" viewBox="0 0 141 141" id="play-color">
    <path d="M17.625 70.5C17.625 99.7021 41.2979 123.375 70.5 123.375C99.7021 123.375 123.375 99.7021 123.375 70.5C123.375 41.2979 99.7021 17.625 70.5 17.625C41.2979 17.625 17.625 41.2979 17.625 70.5Z" stroke="#FCA64F" stroke-width="2" stroke-linecap="round" stroke-linejoin="round"></path>
    <path d="M58.75 88.125V52.875L88.125 70.5L58.75 88.125Z" stroke="#FCA64F" stroke-width="2" stroke-linecap="round" stroke-linejoin="round"></path>
  </symbol>
  <symbol fill="none" xmlns="http://www.w3.org/2000/svg" viewBox="0 0 24 24" id="prev">
    <path d="M3 12l5 5m-5-5l5-5m-5 5h18" stroke="currentColor" stroke-width="2" stroke-linecap="round" stroke-linejoin="round"></path>
  </symbol>
  <symbol fill="none" xmlns="http://www.w3.org/2000/svg" viewBox="0 0 25 24" id="prev1">
    <path d="M14.5 16L10.5 12L14.5 8" stroke="currentColor" stroke-width="2" stroke-linecap="round" stroke-linejoin="round"></path>
  </symbol>
  <symbol fill="none" xmlns="http://www.w3.org/2000/svg" viewBox="0 0 25 24" id="refresh">
    <path d="M14.5 16H19.5V21M10.5 8H5.5V3M19.9176 9.0034C19.3569 7.61566 18.4181 6.41304 17.208 5.53223C15.9979 4.65141 14.5652 4.12752 13.0723 4.02051C11.5794 3.9135 10.0861 4.2274 8.7627 4.92661C7.43933 5.62582 6.33882 6.68254 5.58594 7.97612M5.08203 14.9971C5.64272 16.3848 6.58146 17.5874 7.79157 18.4682C9.00169 19.3491 10.4359 19.8723 11.9288 19.9793C13.4217 20.0863 14.9138 19.7725 16.2371 19.0732C17.5605 18.374 18.6603 17.3175 19.4131 16.0239" stroke="currentColor" stroke-width="2" stroke-linecap="round" stroke-linejoin="round"></path>
  </symbol>
  <symbol fill="none" xmlns="http://www.w3.org/2000/svg" viewBox="0 0 25 25" id="search">
    <path d="M15.541 15.27l6 6m-11-4a7 7 0 110-14 7 7 0 010 14z" stroke="currentColor" stroke-width="2" stroke-linecap="round" stroke-linejoin="round"></path>
  </symbol>
  <symbol fill="none" xmlns="http://www.w3.org/2000/svg" viewBox="0 0 25 24" id="star">
    <path d="M2.835 10.337a.5.5 0 01.28-.864l6.004-.712a.5.5 0 00.396-.287l2.532-5.49a.5.5 0 01.908 0l2.532 5.49a.499.499 0 00.395.287l6.004.712a.5.5 0 01.28.864l-4.438 4.105a.5.5 0 00-.15.464l1.177 5.93a.5.5 0 01-.735.534l-5.275-2.953a.499.499 0 00-.488 0l-5.276 2.952a.5.5 0 01-.735-.533l1.178-5.93a.5.5 0 00-.15-.464l-4.439-4.105z" fill="currentColor" stroke="currentColor" stroke-width="2" stroke-linecap="round" stroke-linejoin="round"></path>
  </symbol>
</svg>